G04 EAGLE Gerber RS-274X export*
G75*
%MOMM*%
%FSLAX34Y34*%
%LPD*%
%INTop Copper*%
%IPPOS*%
%AMOC8*
5,1,8,0,0,1.08239X$1,22.5*%
G01*
%ADD10R,1.524000X12.700000*%
%ADD11R,1.500000X1.300000*%
%ADD12C,1.320800*%
%ADD13R,1.300000X1.500000*%
%ADD14C,1.650000*%
%ADD15C,1.270000*%
%ADD16C,0.508000*%
%ADD17C,0.609600*%
%ADD18C,0.406400*%
%ADD19C,1.006400*%


D10*
X38100Y76200D03*
X63500Y76200D03*
X88900Y76200D03*
X114300Y76200D03*
X139700Y76200D03*
X165100Y76200D03*
X190500Y76200D03*
X215900Y76200D03*
X241300Y76200D03*
X266700Y76200D03*
X292100Y76200D03*
X317500Y76200D03*
X342900Y76200D03*
X368300Y76200D03*
X393700Y76200D03*
X419100Y76200D03*
X444500Y76200D03*
X469900Y76200D03*
D11*
X254000Y581000D03*
X254000Y562000D03*
X279400Y562000D03*
X279400Y581000D03*
D12*
X444500Y527304D02*
X444500Y514096D01*
X419100Y514096D02*
X419100Y527304D01*
X292100Y527304D02*
X292100Y514096D01*
X266700Y514096D02*
X266700Y527304D01*
X393700Y527304D02*
X393700Y514096D01*
X368300Y514096D02*
X368300Y527304D01*
X317500Y527304D02*
X317500Y514096D01*
X342900Y514096D02*
X342900Y527304D01*
X241300Y527304D02*
X241300Y514096D01*
X215900Y514096D02*
X215900Y527304D01*
X190500Y527304D02*
X190500Y514096D01*
X165100Y514096D02*
X165100Y527304D01*
X139700Y527304D02*
X139700Y514096D01*
X114300Y514096D02*
X114300Y527304D01*
X88900Y527304D02*
X88900Y514096D01*
X63500Y514096D02*
X63500Y527304D01*
X63500Y374904D02*
X63500Y361696D01*
X88900Y361696D02*
X88900Y374904D01*
X114300Y374904D02*
X114300Y361696D01*
X139700Y361696D02*
X139700Y374904D01*
X165100Y374904D02*
X165100Y361696D01*
X190500Y361696D02*
X190500Y374904D01*
X215900Y374904D02*
X215900Y361696D01*
X241300Y361696D02*
X241300Y374904D01*
X266700Y374904D02*
X266700Y361696D01*
X292100Y361696D02*
X292100Y374904D01*
X317500Y374904D02*
X317500Y361696D01*
X342900Y361696D02*
X342900Y374904D01*
X368300Y374904D02*
X368300Y361696D01*
X393700Y361696D02*
X393700Y374904D01*
X419100Y374904D02*
X419100Y361696D01*
X444500Y361696D02*
X444500Y374904D01*
D11*
X304800Y562000D03*
X304800Y581000D03*
D12*
X317500Y691896D02*
X317500Y705104D01*
X292100Y705104D02*
X292100Y691896D01*
X292100Y628904D02*
X292100Y615696D01*
X317500Y615696D02*
X317500Y628904D01*
X266700Y691896D02*
X266700Y705104D01*
X241300Y705104D02*
X241300Y691896D01*
X266700Y628904D02*
X266700Y615696D01*
X241300Y615696D02*
X241300Y628904D01*
D11*
X444500Y562000D03*
X444500Y581000D03*
D13*
X422300Y317500D03*
X441300Y317500D03*
D12*
X457200Y691896D02*
X457200Y705104D01*
X431800Y705104D02*
X431800Y691896D01*
X431800Y628904D02*
X431800Y615696D01*
X457200Y615696D02*
X457200Y628904D01*
X406400Y691896D02*
X406400Y705104D01*
X381000Y705104D02*
X381000Y691896D01*
X406400Y628904D02*
X406400Y615696D01*
X381000Y615696D02*
X381000Y628904D01*
D11*
X393700Y562000D03*
X393700Y581000D03*
X419100Y562000D03*
X419100Y581000D03*
D14*
X186050Y609600D02*
X169550Y609600D01*
X169550Y635000D02*
X186050Y635000D01*
X186050Y660400D02*
X169550Y660400D01*
X122550Y609600D02*
X106050Y609600D01*
X106050Y635000D02*
X122550Y635000D01*
X122550Y660400D02*
X106050Y660400D01*
X59050Y609600D02*
X42550Y609600D01*
X42550Y635000D02*
X59050Y635000D01*
X59050Y660400D02*
X42550Y660400D01*
D15*
X469900Y177800D02*
X469900Y76200D01*
X469900Y177800D02*
X457200Y190500D01*
X444500Y177800D01*
X444500Y88900D01*
X482600Y215900D02*
X482600Y317500D01*
X482600Y342900D01*
X482600Y215900D02*
X457200Y190500D01*
D16*
X444500Y88900D02*
X444500Y76200D01*
D17*
X441300Y317500D02*
X482600Y317500D01*
D15*
X444500Y355600D02*
X444500Y368300D01*
X444500Y355600D02*
X457200Y342900D01*
X482600Y342900D01*
D17*
X279400Y562000D02*
X254000Y562000D01*
X279400Y562000D02*
X304800Y562000D01*
X419100Y581000D02*
X444500Y581000D01*
X419100Y581000D02*
X393700Y581000D01*
X333400Y562000D02*
X304800Y562000D01*
X333400Y562000D02*
X355600Y584200D01*
X390500Y584200D01*
X393700Y581000D01*
X444500Y581000D02*
X473100Y581000D01*
X482600Y571500D01*
X482600Y342900D01*
D16*
X419100Y228600D02*
X317500Y330200D01*
X419100Y228600D02*
X419100Y76200D01*
X317500Y330200D02*
X317500Y368300D01*
X292100Y368300D02*
X292100Y330200D01*
X393700Y228600D01*
X393700Y76200D01*
X368300Y76200D02*
X368300Y228600D01*
X266700Y330200D02*
X266700Y368300D01*
X266700Y330200D02*
X368300Y228600D01*
X215900Y330200D02*
X215900Y368300D01*
X215900Y330200D02*
X317500Y228600D01*
X317500Y76200D01*
D17*
X190500Y635000D02*
X177800Y635000D01*
X215900Y609600D02*
X215900Y571500D01*
X228600Y558800D01*
X228600Y533400D01*
D18*
X228600Y508000D01*
D17*
X228600Y495300D01*
X241300Y482600D01*
X355600Y482600D01*
X368300Y495300D01*
X368300Y520700D01*
X215900Y609600D02*
X190500Y635000D01*
X342900Y368300D02*
X342900Y342900D01*
X355600Y330200D01*
X368300Y330200D01*
X381000Y342900D01*
X381000Y355600D01*
D18*
X381000Y393700D01*
D17*
X381000Y406400D01*
X355600Y431800D02*
X139700Y431800D01*
X127000Y444500D01*
X127000Y495300D01*
D18*
X127000Y546100D01*
D17*
X127000Y571500D01*
X139700Y584200D01*
X139700Y622300D01*
X127000Y635000D01*
X114300Y635000D01*
X355600Y431800D02*
X381000Y406400D01*
X63500Y635000D02*
X50800Y635000D01*
X63500Y635000D02*
X76200Y622300D01*
X76200Y546100D01*
D18*
X76200Y495300D01*
D17*
X76200Y419100D02*
X88900Y406400D01*
X355600Y406400D02*
X368300Y393700D01*
X368300Y368300D01*
X76200Y419100D02*
X76200Y495300D01*
X88900Y406400D02*
X355600Y406400D01*
X393700Y520700D02*
X393700Y562000D01*
D16*
X165100Y228600D02*
X165100Y76200D01*
X63500Y330200D02*
X63500Y368300D01*
X63500Y330200D02*
X165100Y228600D01*
X88900Y330200D02*
X88900Y368300D01*
X88900Y330200D02*
X190500Y228600D01*
X190500Y76200D01*
X114300Y330200D02*
X114300Y368300D01*
X114300Y330200D02*
X215900Y228600D01*
X215900Y76200D01*
X139700Y330200D02*
X139700Y368300D01*
X139700Y330200D02*
X241300Y228600D01*
X241300Y76200D01*
X165100Y330200D02*
X165100Y368300D01*
X266700Y228600D02*
X266700Y63500D01*
X266700Y228600D02*
X165100Y330200D01*
X241300Y330200D02*
X241300Y368300D01*
X342900Y228600D02*
X342900Y76200D01*
X342900Y228600D02*
X241300Y330200D01*
X190500Y330200D02*
X190500Y368300D01*
X190500Y330200D02*
X292100Y228600D01*
X292100Y76200D01*
D17*
X419100Y520700D02*
X419100Y562000D01*
X419100Y320700D02*
X422300Y317500D01*
X419100Y320700D02*
X419100Y368300D01*
D19*
X57150Y556260D03*
D17*
X41910Y556260D01*
X38100Y552450D01*
X38100Y241300D01*
X114300Y165100D02*
X113665Y164465D01*
D19*
X113665Y164465D03*
D17*
X114300Y165100D02*
X38100Y241300D01*
X241300Y609600D02*
X241300Y622300D01*
X241300Y609600D02*
X254000Y596900D01*
X254000Y581000D01*
X190500Y660400D02*
X177800Y660400D01*
X190500Y660400D02*
X228600Y622300D01*
X241300Y622300D01*
X266700Y622300D02*
X266700Y609600D01*
X279400Y596900D01*
X279400Y581000D01*
X228600Y647700D02*
X190500Y685800D01*
X254000Y647700D02*
X266700Y635000D01*
X266700Y622300D01*
X139700Y685800D02*
X114300Y660400D01*
X139700Y685800D02*
X190500Y685800D01*
X228600Y647700D02*
X254000Y647700D01*
X292100Y622300D02*
X292100Y609600D01*
X304800Y596900D01*
X304800Y581000D01*
X228600Y673100D02*
X203200Y698500D01*
X279400Y673100D02*
X292100Y660400D01*
X292100Y622300D01*
X88900Y698500D02*
X50800Y660400D01*
X88900Y698500D02*
X203200Y698500D01*
X228600Y673100D02*
X279400Y673100D01*
X444500Y562000D02*
X444500Y520700D01*
M02*
