G04 EAGLE Gerber RS-274X export*
G75*
%MOMM*%
%FSLAX34Y34*%
%LPD*%
%INSilkscreen Top*%
%IPPOS*%
%AMOC8*
5,1,8,0,0,1.08239X$1,22.5*%
G01*
%ADD10C,0.152400*%
%ADD11C,0.101600*%
%ADD12R,1.016000X0.381000*%
%ADD13C,0.127000*%
%ADD14C,0.203200*%


D10*
X26162Y715518D02*
X26162Y699262D01*
X30678Y699262D01*
X30782Y699264D01*
X30885Y699270D01*
X30989Y699280D01*
X31092Y699294D01*
X31194Y699312D01*
X31295Y699333D01*
X31396Y699359D01*
X31495Y699388D01*
X31594Y699421D01*
X31691Y699458D01*
X31786Y699499D01*
X31880Y699543D01*
X31972Y699591D01*
X32062Y699642D01*
X32151Y699697D01*
X32237Y699755D01*
X32320Y699817D01*
X32402Y699881D01*
X32480Y699949D01*
X32556Y700019D01*
X32630Y700092D01*
X32700Y700169D01*
X32768Y700247D01*
X32832Y700329D01*
X32894Y700412D01*
X32952Y700498D01*
X33007Y700587D01*
X33058Y700677D01*
X33106Y700769D01*
X33150Y700863D01*
X33191Y700958D01*
X33228Y701055D01*
X33261Y701154D01*
X33290Y701253D01*
X33316Y701354D01*
X33337Y701455D01*
X33355Y701557D01*
X33369Y701660D01*
X33379Y701764D01*
X33385Y701867D01*
X33387Y701971D01*
X33387Y707390D01*
X33385Y707491D01*
X33379Y707592D01*
X33370Y707693D01*
X33357Y707794D01*
X33340Y707894D01*
X33319Y707993D01*
X33295Y708091D01*
X33267Y708188D01*
X33235Y708285D01*
X33200Y708380D01*
X33161Y708473D01*
X33119Y708565D01*
X33073Y708656D01*
X33024Y708745D01*
X32972Y708831D01*
X32916Y708916D01*
X32858Y708999D01*
X32796Y709079D01*
X32731Y709157D01*
X32664Y709233D01*
X32594Y709306D01*
X32521Y709376D01*
X32445Y709443D01*
X32367Y709508D01*
X32287Y709570D01*
X32204Y709628D01*
X32119Y709684D01*
X32033Y709736D01*
X31944Y709785D01*
X31853Y709831D01*
X31761Y709873D01*
X31668Y709912D01*
X31573Y709947D01*
X31476Y709979D01*
X31379Y710007D01*
X31281Y710031D01*
X31182Y710052D01*
X31082Y710069D01*
X30981Y710082D01*
X30880Y710091D01*
X30779Y710097D01*
X30678Y710099D01*
X26162Y710099D01*
X39601Y710099D02*
X39601Y699262D01*
X39149Y714615D02*
X39149Y715518D01*
X40052Y715518D01*
X40052Y714615D01*
X39149Y714615D01*
X44591Y710099D02*
X50010Y710099D01*
X46397Y715518D02*
X46397Y701971D01*
X46398Y701971D02*
X46400Y701870D01*
X46406Y701769D01*
X46415Y701668D01*
X46428Y701567D01*
X46445Y701467D01*
X46466Y701368D01*
X46490Y701270D01*
X46518Y701173D01*
X46550Y701076D01*
X46585Y700981D01*
X46624Y700888D01*
X46666Y700796D01*
X46712Y700705D01*
X46761Y700617D01*
X46813Y700530D01*
X46869Y700445D01*
X46927Y700362D01*
X46989Y700282D01*
X47054Y700204D01*
X47121Y700128D01*
X47191Y700055D01*
X47264Y699985D01*
X47340Y699918D01*
X47418Y699853D01*
X47498Y699791D01*
X47581Y699733D01*
X47666Y699677D01*
X47753Y699625D01*
X47841Y699576D01*
X47932Y699530D01*
X48024Y699488D01*
X48117Y699449D01*
X48212Y699414D01*
X48309Y699382D01*
X48406Y699354D01*
X48504Y699330D01*
X48603Y699309D01*
X48703Y699292D01*
X48804Y699279D01*
X48905Y699270D01*
X49006Y699264D01*
X49107Y699262D01*
X50010Y699262D01*
X55927Y711906D02*
X60443Y715518D01*
X60443Y699262D01*
X64958Y699262D02*
X55927Y699262D01*
X71558Y702874D02*
X75171Y715518D01*
X71558Y702874D02*
X80589Y702874D01*
X77880Y706487D02*
X77880Y699262D01*
X89662Y699262D02*
X89662Y715518D01*
X89662Y699262D02*
X94178Y699262D01*
X94282Y699264D01*
X94385Y699270D01*
X94489Y699280D01*
X94592Y699294D01*
X94694Y699312D01*
X94795Y699333D01*
X94896Y699359D01*
X94995Y699388D01*
X95094Y699421D01*
X95191Y699458D01*
X95286Y699499D01*
X95380Y699543D01*
X95472Y699591D01*
X95562Y699642D01*
X95651Y699697D01*
X95737Y699755D01*
X95820Y699817D01*
X95902Y699881D01*
X95980Y699949D01*
X96056Y700019D01*
X96130Y700092D01*
X96200Y700169D01*
X96268Y700247D01*
X96332Y700329D01*
X96394Y700412D01*
X96452Y700498D01*
X96507Y700587D01*
X96558Y700677D01*
X96606Y700769D01*
X96650Y700863D01*
X96691Y700958D01*
X96728Y701055D01*
X96761Y701154D01*
X96790Y701253D01*
X96816Y701354D01*
X96837Y701455D01*
X96855Y701557D01*
X96869Y701660D01*
X96879Y701764D01*
X96885Y701867D01*
X96887Y701971D01*
X96887Y707390D01*
X96885Y707491D01*
X96879Y707592D01*
X96870Y707693D01*
X96857Y707794D01*
X96840Y707894D01*
X96819Y707993D01*
X96795Y708091D01*
X96767Y708188D01*
X96735Y708285D01*
X96700Y708380D01*
X96661Y708473D01*
X96619Y708565D01*
X96573Y708656D01*
X96524Y708745D01*
X96472Y708831D01*
X96416Y708916D01*
X96358Y708999D01*
X96296Y709079D01*
X96231Y709157D01*
X96164Y709233D01*
X96094Y709306D01*
X96021Y709376D01*
X95945Y709443D01*
X95867Y709508D01*
X95787Y709570D01*
X95704Y709628D01*
X95619Y709684D01*
X95533Y709736D01*
X95444Y709785D01*
X95353Y709831D01*
X95261Y709873D01*
X95168Y709912D01*
X95073Y709947D01*
X94976Y709979D01*
X94879Y710007D01*
X94781Y710031D01*
X94682Y710052D01*
X94582Y710069D01*
X94481Y710082D01*
X94380Y710091D01*
X94279Y710097D01*
X94178Y710099D01*
X89662Y710099D01*
X103101Y710099D02*
X103101Y699262D01*
X102649Y714615D02*
X102649Y715518D01*
X103552Y715518D01*
X103552Y714615D01*
X102649Y714615D01*
X108091Y710099D02*
X113510Y710099D01*
X109897Y715518D02*
X109897Y701971D01*
X109898Y701971D02*
X109900Y701870D01*
X109906Y701769D01*
X109915Y701668D01*
X109928Y701567D01*
X109945Y701467D01*
X109966Y701368D01*
X109990Y701270D01*
X110018Y701173D01*
X110050Y701076D01*
X110085Y700981D01*
X110124Y700888D01*
X110166Y700796D01*
X110212Y700705D01*
X110261Y700617D01*
X110313Y700530D01*
X110369Y700445D01*
X110427Y700362D01*
X110489Y700282D01*
X110554Y700204D01*
X110621Y700128D01*
X110691Y700055D01*
X110764Y699985D01*
X110840Y699918D01*
X110918Y699853D01*
X110998Y699791D01*
X111081Y699733D01*
X111166Y699677D01*
X111253Y699625D01*
X111341Y699576D01*
X111432Y699530D01*
X111524Y699488D01*
X111617Y699449D01*
X111712Y699414D01*
X111809Y699382D01*
X111906Y699354D01*
X112004Y699330D01*
X112103Y699309D01*
X112203Y699292D01*
X112304Y699279D01*
X112405Y699270D01*
X112506Y699264D01*
X112607Y699262D01*
X113510Y699262D01*
X119427Y711906D02*
X123943Y715518D01*
X123943Y699262D01*
X128458Y699262D02*
X119427Y699262D01*
X135058Y699262D02*
X139574Y699262D01*
X139707Y699264D01*
X139839Y699270D01*
X139971Y699280D01*
X140103Y699293D01*
X140235Y699311D01*
X140365Y699332D01*
X140496Y699357D01*
X140625Y699386D01*
X140753Y699419D01*
X140881Y699455D01*
X141007Y699495D01*
X141132Y699539D01*
X141256Y699587D01*
X141378Y699638D01*
X141499Y699693D01*
X141618Y699751D01*
X141736Y699813D01*
X141851Y699878D01*
X141965Y699947D01*
X142076Y700018D01*
X142185Y700094D01*
X142292Y700172D01*
X142397Y700253D01*
X142499Y700338D01*
X142599Y700425D01*
X142696Y700515D01*
X142791Y700608D01*
X142882Y700704D01*
X142971Y700802D01*
X143057Y700903D01*
X143140Y701007D01*
X143220Y701113D01*
X143296Y701221D01*
X143370Y701331D01*
X143440Y701444D01*
X143507Y701558D01*
X143570Y701675D01*
X143630Y701793D01*
X143687Y701913D01*
X143740Y702035D01*
X143789Y702158D01*
X143835Y702282D01*
X143877Y702408D01*
X143915Y702535D01*
X143950Y702663D01*
X143981Y702792D01*
X144008Y702921D01*
X144031Y703052D01*
X144051Y703183D01*
X144066Y703315D01*
X144078Y703447D01*
X144086Y703579D01*
X144090Y703712D01*
X144090Y703844D01*
X144086Y703977D01*
X144078Y704109D01*
X144066Y704241D01*
X144051Y704373D01*
X144031Y704504D01*
X144008Y704635D01*
X143981Y704764D01*
X143950Y704893D01*
X143915Y705021D01*
X143877Y705148D01*
X143835Y705274D01*
X143789Y705398D01*
X143740Y705521D01*
X143687Y705643D01*
X143630Y705763D01*
X143570Y705881D01*
X143507Y705998D01*
X143440Y706112D01*
X143370Y706225D01*
X143296Y706335D01*
X143220Y706443D01*
X143140Y706549D01*
X143057Y706653D01*
X142971Y706754D01*
X142882Y706852D01*
X142791Y706948D01*
X142696Y707041D01*
X142599Y707131D01*
X142499Y707218D01*
X142397Y707303D01*
X142292Y707384D01*
X142185Y707462D01*
X142076Y707538D01*
X141965Y707609D01*
X141851Y707678D01*
X141736Y707743D01*
X141618Y707805D01*
X141499Y707863D01*
X141378Y707918D01*
X141256Y707969D01*
X141132Y708017D01*
X141007Y708061D01*
X140881Y708101D01*
X140753Y708137D01*
X140625Y708170D01*
X140496Y708199D01*
X140365Y708224D01*
X140235Y708245D01*
X140103Y708263D01*
X139971Y708276D01*
X139839Y708286D01*
X139707Y708292D01*
X139574Y708294D01*
X140477Y715518D02*
X135058Y715518D01*
X140477Y715518D02*
X140596Y715516D01*
X140716Y715510D01*
X140835Y715500D01*
X140953Y715486D01*
X141072Y715469D01*
X141189Y715447D01*
X141306Y715422D01*
X141421Y715392D01*
X141536Y715359D01*
X141650Y715322D01*
X141762Y715282D01*
X141873Y715237D01*
X141982Y715189D01*
X142090Y715138D01*
X142196Y715083D01*
X142300Y715024D01*
X142402Y714962D01*
X142502Y714897D01*
X142600Y714828D01*
X142696Y714756D01*
X142789Y714681D01*
X142879Y714604D01*
X142967Y714523D01*
X143052Y714439D01*
X143134Y714352D01*
X143214Y714263D01*
X143290Y714171D01*
X143364Y714077D01*
X143434Y713980D01*
X143501Y713882D01*
X143565Y713781D01*
X143625Y713677D01*
X143682Y713572D01*
X143735Y713465D01*
X143785Y713357D01*
X143831Y713247D01*
X143873Y713135D01*
X143912Y713022D01*
X143947Y712908D01*
X143978Y712793D01*
X144006Y712676D01*
X144029Y712559D01*
X144049Y712442D01*
X144065Y712323D01*
X144077Y712204D01*
X144085Y712085D01*
X144089Y711966D01*
X144089Y711846D01*
X144085Y711727D01*
X144077Y711608D01*
X144065Y711489D01*
X144049Y711370D01*
X144029Y711253D01*
X144006Y711136D01*
X143978Y711019D01*
X143947Y710904D01*
X143912Y710790D01*
X143873Y710677D01*
X143831Y710565D01*
X143785Y710455D01*
X143735Y710347D01*
X143682Y710240D01*
X143625Y710135D01*
X143565Y710031D01*
X143501Y709930D01*
X143434Y709832D01*
X143364Y709735D01*
X143290Y709641D01*
X143214Y709549D01*
X143134Y709460D01*
X143052Y709373D01*
X142967Y709289D01*
X142879Y709208D01*
X142789Y709131D01*
X142696Y709056D01*
X142600Y708984D01*
X142502Y708915D01*
X142402Y708850D01*
X142300Y708788D01*
X142196Y708729D01*
X142090Y708674D01*
X141982Y708623D01*
X141873Y708575D01*
X141762Y708530D01*
X141650Y708490D01*
X141536Y708453D01*
X141421Y708420D01*
X141306Y708390D01*
X141189Y708365D01*
X141072Y708343D01*
X140953Y708326D01*
X140835Y708312D01*
X140716Y708302D01*
X140596Y708296D01*
X140477Y708294D01*
X140477Y708293D02*
X136864Y708293D01*
X153162Y715518D02*
X153162Y699262D01*
X157678Y699262D01*
X157782Y699264D01*
X157885Y699270D01*
X157989Y699280D01*
X158092Y699294D01*
X158194Y699312D01*
X158295Y699333D01*
X158396Y699359D01*
X158495Y699388D01*
X158594Y699421D01*
X158691Y699458D01*
X158786Y699499D01*
X158880Y699543D01*
X158972Y699591D01*
X159062Y699642D01*
X159151Y699697D01*
X159237Y699755D01*
X159320Y699817D01*
X159402Y699881D01*
X159480Y699949D01*
X159556Y700019D01*
X159630Y700092D01*
X159700Y700169D01*
X159768Y700247D01*
X159832Y700329D01*
X159894Y700412D01*
X159952Y700498D01*
X160007Y700587D01*
X160058Y700677D01*
X160106Y700769D01*
X160150Y700863D01*
X160191Y700958D01*
X160228Y701055D01*
X160261Y701154D01*
X160290Y701253D01*
X160316Y701354D01*
X160337Y701455D01*
X160355Y701557D01*
X160369Y701660D01*
X160379Y701764D01*
X160385Y701867D01*
X160387Y701971D01*
X160387Y707390D01*
X160385Y707491D01*
X160379Y707592D01*
X160370Y707693D01*
X160357Y707794D01*
X160340Y707894D01*
X160319Y707993D01*
X160295Y708091D01*
X160267Y708188D01*
X160235Y708285D01*
X160200Y708380D01*
X160161Y708473D01*
X160119Y708565D01*
X160073Y708656D01*
X160024Y708745D01*
X159972Y708831D01*
X159916Y708916D01*
X159858Y708999D01*
X159796Y709079D01*
X159731Y709157D01*
X159664Y709233D01*
X159594Y709306D01*
X159521Y709376D01*
X159445Y709443D01*
X159367Y709508D01*
X159287Y709570D01*
X159204Y709628D01*
X159119Y709684D01*
X159033Y709736D01*
X158944Y709785D01*
X158853Y709831D01*
X158761Y709873D01*
X158668Y709912D01*
X158573Y709947D01*
X158476Y709979D01*
X158379Y710007D01*
X158281Y710031D01*
X158182Y710052D01*
X158082Y710069D01*
X157981Y710082D01*
X157880Y710091D01*
X157779Y710097D01*
X157678Y710099D01*
X153162Y710099D01*
X166601Y710099D02*
X166601Y699262D01*
X166149Y714615D02*
X166149Y715518D01*
X167052Y715518D01*
X167052Y714615D01*
X166149Y714615D01*
X171591Y710099D02*
X177010Y710099D01*
X173397Y715518D02*
X173397Y701971D01*
X173398Y701971D02*
X173400Y701870D01*
X173406Y701769D01*
X173415Y701668D01*
X173428Y701567D01*
X173445Y701467D01*
X173466Y701368D01*
X173490Y701270D01*
X173518Y701173D01*
X173550Y701076D01*
X173585Y700981D01*
X173624Y700888D01*
X173666Y700796D01*
X173712Y700705D01*
X173761Y700617D01*
X173813Y700530D01*
X173869Y700445D01*
X173927Y700362D01*
X173989Y700282D01*
X174054Y700204D01*
X174121Y700128D01*
X174191Y700055D01*
X174264Y699985D01*
X174340Y699918D01*
X174418Y699853D01*
X174498Y699791D01*
X174581Y699733D01*
X174666Y699677D01*
X174753Y699625D01*
X174841Y699576D01*
X174932Y699530D01*
X175024Y699488D01*
X175117Y699449D01*
X175212Y699414D01*
X175309Y699382D01*
X175406Y699354D01*
X175504Y699330D01*
X175603Y699309D01*
X175703Y699292D01*
X175804Y699279D01*
X175905Y699270D01*
X176006Y699264D01*
X176107Y699262D01*
X177010Y699262D01*
X182927Y711906D02*
X187443Y715518D01*
X187443Y699262D01*
X191958Y699262D02*
X182927Y699262D01*
X203525Y715518D02*
X203650Y715516D01*
X203775Y715510D01*
X203900Y715501D01*
X204024Y715487D01*
X204148Y715470D01*
X204272Y715449D01*
X204394Y715424D01*
X204516Y715395D01*
X204637Y715363D01*
X204757Y715327D01*
X204876Y715287D01*
X204993Y715244D01*
X205109Y715197D01*
X205224Y715146D01*
X205336Y715092D01*
X205448Y715034D01*
X205557Y714974D01*
X205664Y714909D01*
X205770Y714842D01*
X205873Y714771D01*
X205974Y714697D01*
X206073Y714620D01*
X206169Y714540D01*
X206263Y714457D01*
X206354Y714372D01*
X206443Y714283D01*
X206528Y714192D01*
X206611Y714098D01*
X206691Y714002D01*
X206768Y713903D01*
X206842Y713802D01*
X206913Y713699D01*
X206980Y713593D01*
X207045Y713486D01*
X207105Y713377D01*
X207163Y713265D01*
X207217Y713153D01*
X207268Y713038D01*
X207315Y712922D01*
X207358Y712805D01*
X207398Y712686D01*
X207434Y712566D01*
X207466Y712445D01*
X207495Y712323D01*
X207520Y712201D01*
X207541Y712077D01*
X207558Y711953D01*
X207572Y711829D01*
X207581Y711704D01*
X207587Y711579D01*
X207589Y711454D01*
X203525Y715518D02*
X203382Y715516D01*
X203240Y715510D01*
X203097Y715500D01*
X202955Y715487D01*
X202814Y715469D01*
X202672Y715448D01*
X202532Y715423D01*
X202392Y715394D01*
X202253Y715361D01*
X202115Y715324D01*
X201978Y715284D01*
X201843Y715240D01*
X201708Y715192D01*
X201575Y715140D01*
X201443Y715085D01*
X201313Y715026D01*
X201185Y714964D01*
X201058Y714898D01*
X200933Y714829D01*
X200810Y714757D01*
X200690Y714681D01*
X200571Y714602D01*
X200454Y714519D01*
X200340Y714434D01*
X200228Y714345D01*
X200119Y714254D01*
X200012Y714159D01*
X199907Y714062D01*
X199806Y713961D01*
X199707Y713858D01*
X199611Y713753D01*
X199518Y713644D01*
X199428Y713533D01*
X199341Y713420D01*
X199257Y713305D01*
X199177Y713187D01*
X199099Y713067D01*
X199025Y712945D01*
X198955Y712821D01*
X198887Y712695D01*
X198824Y712567D01*
X198763Y712438D01*
X198706Y712307D01*
X198653Y712175D01*
X198604Y712041D01*
X198558Y711906D01*
X206234Y708293D02*
X206328Y708385D01*
X206418Y708479D01*
X206506Y708576D01*
X206591Y708676D01*
X206673Y708778D01*
X206752Y708883D01*
X206827Y708990D01*
X206899Y709099D01*
X206968Y709210D01*
X207034Y709324D01*
X207096Y709439D01*
X207155Y709556D01*
X207210Y709675D01*
X207261Y709795D01*
X207309Y709917D01*
X207354Y710040D01*
X207394Y710164D01*
X207431Y710290D01*
X207464Y710417D01*
X207493Y710544D01*
X207519Y710673D01*
X207540Y710802D01*
X207558Y710932D01*
X207571Y711062D01*
X207581Y711192D01*
X207587Y711323D01*
X207589Y711454D01*
X206235Y708293D02*
X198558Y699262D01*
X207589Y699262D01*
X234950Y317500D02*
X234950Y285750D01*
X234950Y222250D01*
X234950Y184150D01*
X336550Y285750D02*
X336550Y317500D01*
X336550Y285750D02*
X336550Y222250D01*
X336550Y184150D01*
X374650Y285750D02*
X374650Y317500D01*
X374650Y285750D02*
X374650Y222250D01*
X374650Y184150D01*
X476250Y285750D02*
X476250Y317500D01*
D11*
X253492Y229108D02*
X240284Y229108D01*
X253492Y229108D02*
X253492Y232777D01*
X253490Y232868D01*
X253484Y232959D01*
X253475Y233049D01*
X253462Y233139D01*
X253445Y233229D01*
X253425Y233317D01*
X253400Y233405D01*
X253373Y233492D01*
X253341Y233577D01*
X253307Y233661D01*
X253268Y233744D01*
X253227Y233825D01*
X253182Y233904D01*
X253134Y233981D01*
X253082Y234056D01*
X253028Y234129D01*
X252971Y234200D01*
X252910Y234268D01*
X252847Y234333D01*
X252782Y234396D01*
X252714Y234457D01*
X252643Y234514D01*
X252570Y234568D01*
X252495Y234620D01*
X252418Y234668D01*
X252339Y234713D01*
X252258Y234754D01*
X252175Y234793D01*
X252091Y234827D01*
X252006Y234859D01*
X251919Y234886D01*
X251831Y234911D01*
X251743Y234931D01*
X251653Y234948D01*
X251563Y234961D01*
X251473Y234970D01*
X251382Y234976D01*
X251291Y234978D01*
X246888Y234978D01*
X246797Y234976D01*
X246706Y234970D01*
X246616Y234961D01*
X246526Y234948D01*
X246436Y234931D01*
X246348Y234911D01*
X246260Y234886D01*
X246173Y234859D01*
X246088Y234827D01*
X246004Y234793D01*
X245921Y234754D01*
X245840Y234713D01*
X245761Y234668D01*
X245684Y234620D01*
X245609Y234568D01*
X245536Y234514D01*
X245465Y234457D01*
X245397Y234396D01*
X245332Y234333D01*
X245269Y234268D01*
X245208Y234200D01*
X245151Y234129D01*
X245097Y234056D01*
X245045Y233981D01*
X244997Y233904D01*
X244952Y233825D01*
X244911Y233744D01*
X244872Y233661D01*
X244838Y233577D01*
X244806Y233492D01*
X244779Y233405D01*
X244754Y233317D01*
X244734Y233229D01*
X244717Y233139D01*
X244704Y233049D01*
X244695Y232959D01*
X244689Y232868D01*
X244687Y232777D01*
X244687Y229108D01*
X244687Y240088D02*
X253492Y240088D01*
X241018Y239721D02*
X240284Y239721D01*
X240284Y240455D01*
X241018Y240455D01*
X241018Y239721D01*
X244687Y244190D02*
X244687Y248593D01*
X240284Y245657D02*
X251291Y245657D01*
X251291Y245658D02*
X251382Y245660D01*
X251473Y245666D01*
X251563Y245675D01*
X251653Y245688D01*
X251743Y245705D01*
X251831Y245725D01*
X251919Y245750D01*
X252006Y245777D01*
X252091Y245809D01*
X252175Y245843D01*
X252258Y245882D01*
X252339Y245923D01*
X252418Y245968D01*
X252495Y246016D01*
X252570Y246068D01*
X252643Y246122D01*
X252714Y246179D01*
X252782Y246240D01*
X252847Y246303D01*
X252910Y246368D01*
X252971Y246437D01*
X253028Y246507D01*
X253082Y246580D01*
X253134Y246655D01*
X253182Y246732D01*
X253227Y246811D01*
X253268Y246892D01*
X253307Y246975D01*
X253341Y247059D01*
X253373Y247144D01*
X253401Y247231D01*
X253425Y247319D01*
X253445Y247407D01*
X253462Y247497D01*
X253475Y247587D01*
X253484Y247677D01*
X253490Y247768D01*
X253492Y247859D01*
X253492Y248593D01*
X243219Y253488D02*
X240284Y257157D01*
X253492Y257157D01*
X253492Y253488D02*
X253492Y260826D01*
X243586Y273628D02*
X243473Y273626D01*
X243361Y273620D01*
X243248Y273611D01*
X243136Y273597D01*
X243025Y273580D01*
X242914Y273559D01*
X242804Y273534D01*
X242695Y273506D01*
X242587Y273473D01*
X242480Y273437D01*
X242375Y273398D01*
X242270Y273355D01*
X242168Y273308D01*
X242067Y273258D01*
X241968Y273204D01*
X241870Y273147D01*
X241775Y273087D01*
X241682Y273024D01*
X241591Y272957D01*
X241502Y272887D01*
X241416Y272815D01*
X241332Y272739D01*
X241251Y272661D01*
X241173Y272580D01*
X241097Y272496D01*
X241025Y272410D01*
X240955Y272321D01*
X240888Y272230D01*
X240825Y272137D01*
X240765Y272042D01*
X240708Y271944D01*
X240654Y271845D01*
X240604Y271744D01*
X240557Y271642D01*
X240514Y271537D01*
X240475Y271432D01*
X240439Y271325D01*
X240406Y271217D01*
X240378Y271108D01*
X240353Y270998D01*
X240332Y270887D01*
X240315Y270776D01*
X240301Y270664D01*
X240292Y270551D01*
X240286Y270439D01*
X240284Y270326D01*
X240286Y270199D01*
X240292Y270072D01*
X240301Y269945D01*
X240314Y269819D01*
X240331Y269693D01*
X240352Y269568D01*
X240377Y269443D01*
X240405Y269320D01*
X240437Y269197D01*
X240473Y269075D01*
X240512Y268954D01*
X240555Y268834D01*
X240601Y268716D01*
X240651Y268599D01*
X240705Y268484D01*
X240762Y268371D01*
X240822Y268259D01*
X240885Y268149D01*
X240952Y268041D01*
X241022Y267935D01*
X241095Y267831D01*
X241172Y267729D01*
X241251Y267630D01*
X241333Y267533D01*
X241418Y267439D01*
X241506Y267347D01*
X241596Y267258D01*
X241690Y267172D01*
X241785Y267088D01*
X241883Y267008D01*
X241984Y266930D01*
X242087Y266855D01*
X242192Y266784D01*
X242299Y266716D01*
X242408Y266651D01*
X242519Y266589D01*
X242632Y266530D01*
X242746Y266475D01*
X242862Y266424D01*
X242980Y266376D01*
X243099Y266331D01*
X243219Y266290D01*
X246154Y272527D02*
X246074Y272609D01*
X245991Y272688D01*
X245905Y272765D01*
X245817Y272839D01*
X245726Y272909D01*
X245634Y272977D01*
X245539Y273042D01*
X245442Y273104D01*
X245343Y273162D01*
X245242Y273218D01*
X245140Y273270D01*
X245036Y273318D01*
X244930Y273363D01*
X244823Y273405D01*
X244715Y273444D01*
X244605Y273478D01*
X244495Y273510D01*
X244383Y273537D01*
X244271Y273561D01*
X244158Y273582D01*
X244044Y273598D01*
X243930Y273611D01*
X243816Y273621D01*
X243701Y273626D01*
X243586Y273628D01*
X246154Y272527D02*
X253492Y266290D01*
X253492Y273628D01*
X265684Y229108D02*
X278892Y229108D01*
X278892Y232777D01*
X278890Y232868D01*
X278884Y232959D01*
X278875Y233049D01*
X278862Y233139D01*
X278845Y233229D01*
X278825Y233317D01*
X278800Y233405D01*
X278773Y233492D01*
X278741Y233577D01*
X278707Y233661D01*
X278668Y233744D01*
X278627Y233825D01*
X278582Y233904D01*
X278534Y233981D01*
X278482Y234056D01*
X278428Y234129D01*
X278371Y234200D01*
X278310Y234268D01*
X278247Y234333D01*
X278182Y234396D01*
X278114Y234457D01*
X278043Y234514D01*
X277970Y234568D01*
X277895Y234620D01*
X277818Y234668D01*
X277739Y234713D01*
X277658Y234754D01*
X277575Y234793D01*
X277491Y234827D01*
X277406Y234859D01*
X277319Y234886D01*
X277231Y234911D01*
X277143Y234931D01*
X277053Y234948D01*
X276963Y234961D01*
X276873Y234970D01*
X276782Y234976D01*
X276691Y234978D01*
X272288Y234978D01*
X272197Y234976D01*
X272106Y234970D01*
X272016Y234961D01*
X271926Y234948D01*
X271836Y234931D01*
X271748Y234911D01*
X271660Y234886D01*
X271573Y234859D01*
X271488Y234827D01*
X271404Y234793D01*
X271321Y234754D01*
X271240Y234713D01*
X271161Y234668D01*
X271084Y234620D01*
X271009Y234568D01*
X270936Y234514D01*
X270865Y234457D01*
X270797Y234396D01*
X270732Y234333D01*
X270669Y234268D01*
X270608Y234200D01*
X270551Y234129D01*
X270497Y234056D01*
X270445Y233981D01*
X270397Y233904D01*
X270352Y233825D01*
X270311Y233744D01*
X270272Y233661D01*
X270238Y233577D01*
X270206Y233492D01*
X270179Y233405D01*
X270154Y233317D01*
X270134Y233229D01*
X270117Y233139D01*
X270104Y233049D01*
X270095Y232959D01*
X270089Y232868D01*
X270087Y232777D01*
X270087Y229108D01*
X270087Y240088D02*
X278892Y240088D01*
X266418Y239721D02*
X265684Y239721D01*
X265684Y240455D01*
X266418Y240455D01*
X266418Y239721D01*
X270087Y244190D02*
X270087Y248593D01*
X265684Y245657D02*
X276691Y245657D01*
X276691Y245658D02*
X276782Y245660D01*
X276873Y245666D01*
X276963Y245675D01*
X277053Y245688D01*
X277143Y245705D01*
X277231Y245725D01*
X277319Y245750D01*
X277406Y245777D01*
X277491Y245809D01*
X277575Y245843D01*
X277658Y245882D01*
X277739Y245923D01*
X277818Y245968D01*
X277895Y246016D01*
X277970Y246068D01*
X278043Y246122D01*
X278114Y246179D01*
X278182Y246240D01*
X278247Y246303D01*
X278310Y246368D01*
X278371Y246437D01*
X278428Y246507D01*
X278482Y246580D01*
X278534Y246655D01*
X278582Y246732D01*
X278627Y246811D01*
X278668Y246892D01*
X278707Y246975D01*
X278741Y247059D01*
X278773Y247144D01*
X278801Y247231D01*
X278825Y247319D01*
X278845Y247407D01*
X278862Y247497D01*
X278875Y247587D01*
X278884Y247677D01*
X278890Y247768D01*
X278892Y247859D01*
X278892Y248593D01*
X268619Y253488D02*
X265684Y257157D01*
X278892Y257157D01*
X278892Y253488D02*
X278892Y260826D01*
X278892Y266290D02*
X278892Y269959D01*
X278890Y270079D01*
X278884Y270199D01*
X278874Y270319D01*
X278861Y270438D01*
X278843Y270557D01*
X278822Y270675D01*
X278796Y270792D01*
X278767Y270909D01*
X278734Y271024D01*
X278697Y271138D01*
X278657Y271251D01*
X278613Y271363D01*
X278565Y271473D01*
X278514Y271582D01*
X278459Y271689D01*
X278400Y271794D01*
X278339Y271896D01*
X278274Y271997D01*
X278205Y272096D01*
X278134Y272193D01*
X278059Y272287D01*
X277982Y272378D01*
X277901Y272467D01*
X277817Y272553D01*
X277731Y272637D01*
X277642Y272718D01*
X277551Y272795D01*
X277457Y272870D01*
X277360Y272941D01*
X277261Y273010D01*
X277160Y273075D01*
X277058Y273136D01*
X276953Y273195D01*
X276846Y273250D01*
X276737Y273301D01*
X276627Y273349D01*
X276515Y273393D01*
X276402Y273433D01*
X276288Y273470D01*
X276173Y273503D01*
X276056Y273532D01*
X275939Y273558D01*
X275821Y273579D01*
X275702Y273597D01*
X275583Y273610D01*
X275463Y273620D01*
X275343Y273626D01*
X275223Y273628D01*
X275103Y273626D01*
X274983Y273620D01*
X274863Y273610D01*
X274744Y273597D01*
X274625Y273579D01*
X274507Y273558D01*
X274390Y273532D01*
X274273Y273503D01*
X274158Y273470D01*
X274044Y273433D01*
X273931Y273393D01*
X273819Y273349D01*
X273709Y273301D01*
X273600Y273250D01*
X273493Y273195D01*
X273389Y273136D01*
X273286Y273075D01*
X273185Y273010D01*
X273086Y272941D01*
X272989Y272870D01*
X272895Y272795D01*
X272804Y272718D01*
X272715Y272637D01*
X272629Y272553D01*
X272545Y272467D01*
X272464Y272378D01*
X272387Y272287D01*
X272312Y272193D01*
X272241Y272096D01*
X272172Y271997D01*
X272107Y271896D01*
X272046Y271794D01*
X271987Y271689D01*
X271932Y271582D01*
X271881Y271473D01*
X271833Y271363D01*
X271789Y271251D01*
X271749Y271138D01*
X271712Y271024D01*
X271679Y270909D01*
X271650Y270792D01*
X271624Y270675D01*
X271603Y270557D01*
X271585Y270438D01*
X271572Y270319D01*
X271562Y270199D01*
X271556Y270079D01*
X271554Y269959D01*
X265684Y270692D02*
X265684Y266290D01*
X265684Y270692D02*
X265686Y270799D01*
X265692Y270906D01*
X265702Y271013D01*
X265715Y271119D01*
X265733Y271225D01*
X265754Y271330D01*
X265779Y271434D01*
X265808Y271538D01*
X265841Y271640D01*
X265878Y271740D01*
X265918Y271840D01*
X265962Y271938D01*
X266009Y272034D01*
X266060Y272128D01*
X266114Y272221D01*
X266171Y272311D01*
X266232Y272400D01*
X266296Y272486D01*
X266363Y272569D01*
X266433Y272651D01*
X266506Y272729D01*
X266582Y272805D01*
X266660Y272878D01*
X266742Y272948D01*
X266825Y273015D01*
X266911Y273079D01*
X267000Y273140D01*
X267090Y273197D01*
X267183Y273251D01*
X267277Y273302D01*
X267373Y273349D01*
X267471Y273393D01*
X267571Y273433D01*
X267671Y273470D01*
X267773Y273503D01*
X267877Y273532D01*
X267981Y273557D01*
X268086Y273578D01*
X268192Y273596D01*
X268298Y273609D01*
X268405Y273619D01*
X268512Y273625D01*
X268619Y273627D01*
X268726Y273625D01*
X268833Y273619D01*
X268940Y273609D01*
X269046Y273596D01*
X269152Y273578D01*
X269257Y273557D01*
X269361Y273532D01*
X269465Y273503D01*
X269567Y273470D01*
X269667Y273433D01*
X269767Y273393D01*
X269865Y273349D01*
X269961Y273302D01*
X270055Y273251D01*
X270148Y273197D01*
X270238Y273140D01*
X270327Y273079D01*
X270413Y273015D01*
X270496Y272948D01*
X270578Y272878D01*
X270656Y272805D01*
X270732Y272729D01*
X270805Y272651D01*
X270875Y272569D01*
X270942Y272486D01*
X271006Y272400D01*
X271067Y272311D01*
X271124Y272221D01*
X271178Y272128D01*
X271229Y272034D01*
X271276Y271938D01*
X271320Y271840D01*
X271360Y271740D01*
X271397Y271640D01*
X271430Y271538D01*
X271459Y271434D01*
X271484Y271330D01*
X271505Y271225D01*
X271523Y271119D01*
X271536Y271013D01*
X271546Y270906D01*
X271552Y270799D01*
X271554Y270692D01*
X271554Y267757D01*
X291084Y229108D02*
X304292Y229108D01*
X304292Y232777D01*
X304290Y232868D01*
X304284Y232959D01*
X304275Y233049D01*
X304262Y233139D01*
X304245Y233229D01*
X304225Y233317D01*
X304200Y233405D01*
X304173Y233492D01*
X304141Y233577D01*
X304107Y233661D01*
X304068Y233744D01*
X304027Y233825D01*
X303982Y233904D01*
X303934Y233981D01*
X303882Y234056D01*
X303828Y234129D01*
X303771Y234200D01*
X303710Y234268D01*
X303647Y234333D01*
X303582Y234396D01*
X303514Y234457D01*
X303443Y234514D01*
X303370Y234568D01*
X303295Y234620D01*
X303218Y234668D01*
X303139Y234713D01*
X303058Y234754D01*
X302975Y234793D01*
X302891Y234827D01*
X302806Y234859D01*
X302719Y234886D01*
X302631Y234911D01*
X302543Y234931D01*
X302453Y234948D01*
X302363Y234961D01*
X302273Y234970D01*
X302182Y234976D01*
X302091Y234978D01*
X297688Y234978D01*
X297597Y234976D01*
X297506Y234970D01*
X297416Y234961D01*
X297326Y234948D01*
X297236Y234931D01*
X297148Y234911D01*
X297060Y234886D01*
X296973Y234859D01*
X296888Y234827D01*
X296804Y234793D01*
X296721Y234754D01*
X296640Y234713D01*
X296561Y234668D01*
X296484Y234620D01*
X296409Y234568D01*
X296336Y234514D01*
X296265Y234457D01*
X296197Y234396D01*
X296132Y234333D01*
X296069Y234268D01*
X296008Y234200D01*
X295951Y234129D01*
X295897Y234056D01*
X295845Y233981D01*
X295797Y233904D01*
X295752Y233825D01*
X295711Y233744D01*
X295672Y233661D01*
X295638Y233577D01*
X295606Y233492D01*
X295579Y233405D01*
X295554Y233317D01*
X295534Y233229D01*
X295517Y233139D01*
X295504Y233049D01*
X295495Y232959D01*
X295489Y232868D01*
X295487Y232777D01*
X295487Y229108D01*
X295487Y240088D02*
X304292Y240088D01*
X291818Y239721D02*
X291084Y239721D01*
X291084Y240455D01*
X291818Y240455D01*
X291818Y239721D01*
X295487Y244190D02*
X295487Y248593D01*
X291084Y245657D02*
X302091Y245657D01*
X302091Y245658D02*
X302182Y245660D01*
X302273Y245666D01*
X302363Y245675D01*
X302453Y245688D01*
X302543Y245705D01*
X302631Y245725D01*
X302719Y245750D01*
X302806Y245777D01*
X302891Y245809D01*
X302975Y245843D01*
X303058Y245882D01*
X303139Y245923D01*
X303218Y245968D01*
X303295Y246016D01*
X303370Y246068D01*
X303443Y246122D01*
X303514Y246179D01*
X303582Y246240D01*
X303647Y246303D01*
X303710Y246368D01*
X303771Y246437D01*
X303828Y246507D01*
X303882Y246580D01*
X303934Y246655D01*
X303982Y246732D01*
X304027Y246811D01*
X304068Y246892D01*
X304107Y246975D01*
X304141Y247059D01*
X304173Y247144D01*
X304201Y247231D01*
X304225Y247319D01*
X304245Y247407D01*
X304262Y247497D01*
X304275Y247587D01*
X304284Y247677D01*
X304290Y247768D01*
X304292Y247859D01*
X304292Y248593D01*
X294019Y253488D02*
X291084Y257157D01*
X304292Y257157D01*
X304292Y253488D02*
X304292Y260826D01*
X301357Y266290D02*
X291084Y269225D01*
X301357Y266290D02*
X301357Y273628D01*
X298422Y271426D02*
X304292Y271426D01*
X329692Y234978D02*
X329692Y231309D01*
X329690Y231218D01*
X329684Y231127D01*
X329675Y231037D01*
X329662Y230947D01*
X329645Y230857D01*
X329625Y230769D01*
X329600Y230681D01*
X329573Y230594D01*
X329541Y230509D01*
X329507Y230425D01*
X329468Y230342D01*
X329427Y230261D01*
X329382Y230182D01*
X329334Y230105D01*
X329282Y230030D01*
X329228Y229957D01*
X329171Y229886D01*
X329110Y229818D01*
X329047Y229753D01*
X328982Y229690D01*
X328914Y229629D01*
X328843Y229572D01*
X328770Y229518D01*
X328695Y229466D01*
X328618Y229418D01*
X328539Y229373D01*
X328458Y229332D01*
X328375Y229293D01*
X328291Y229259D01*
X328206Y229227D01*
X328119Y229200D01*
X328031Y229175D01*
X327943Y229155D01*
X327853Y229138D01*
X327763Y229125D01*
X327673Y229116D01*
X327582Y229110D01*
X327491Y229108D01*
X323822Y229108D01*
X323715Y229110D01*
X323608Y229116D01*
X323501Y229126D01*
X323395Y229139D01*
X323289Y229157D01*
X323184Y229178D01*
X323080Y229203D01*
X322976Y229232D01*
X322874Y229265D01*
X322774Y229302D01*
X322674Y229342D01*
X322576Y229386D01*
X322480Y229433D01*
X322386Y229484D01*
X322293Y229538D01*
X322203Y229595D01*
X322114Y229656D01*
X322028Y229720D01*
X321945Y229787D01*
X321863Y229857D01*
X321785Y229930D01*
X321709Y230006D01*
X321636Y230084D01*
X321566Y230166D01*
X321499Y230249D01*
X321435Y230335D01*
X321374Y230424D01*
X321317Y230514D01*
X321263Y230607D01*
X321212Y230701D01*
X321165Y230797D01*
X321121Y230895D01*
X321081Y230995D01*
X321044Y231095D01*
X321011Y231197D01*
X320982Y231301D01*
X320957Y231405D01*
X320936Y231510D01*
X320918Y231616D01*
X320905Y231722D01*
X320895Y231829D01*
X320889Y231936D01*
X320887Y232043D01*
X320889Y232150D01*
X320895Y232257D01*
X320905Y232364D01*
X320918Y232470D01*
X320936Y232576D01*
X320957Y232681D01*
X320982Y232785D01*
X321011Y232889D01*
X321044Y232991D01*
X321081Y233091D01*
X321121Y233191D01*
X321165Y233289D01*
X321212Y233385D01*
X321263Y233479D01*
X321317Y233572D01*
X321374Y233662D01*
X321435Y233751D01*
X321499Y233837D01*
X321566Y233920D01*
X321636Y234002D01*
X321709Y234080D01*
X321785Y234156D01*
X321863Y234229D01*
X321945Y234299D01*
X322028Y234366D01*
X322114Y234430D01*
X322203Y234491D01*
X322293Y234548D01*
X322386Y234602D01*
X322480Y234653D01*
X322576Y234700D01*
X322674Y234744D01*
X322774Y234784D01*
X322874Y234821D01*
X322976Y234854D01*
X323080Y234883D01*
X323184Y234908D01*
X323289Y234929D01*
X323395Y234947D01*
X323501Y234960D01*
X323608Y234970D01*
X323715Y234976D01*
X323822Y234978D01*
X325289Y234978D01*
X325289Y229108D01*
X320887Y240869D02*
X329692Y240869D01*
X320887Y240869D02*
X320887Y247473D01*
X320889Y247564D01*
X320895Y247655D01*
X320904Y247745D01*
X320917Y247835D01*
X320934Y247925D01*
X320954Y248013D01*
X320979Y248101D01*
X321006Y248188D01*
X321038Y248273D01*
X321072Y248357D01*
X321111Y248440D01*
X321152Y248521D01*
X321197Y248600D01*
X321245Y248677D01*
X321297Y248752D01*
X321351Y248825D01*
X321408Y248896D01*
X321469Y248964D01*
X321532Y249029D01*
X321597Y249092D01*
X321665Y249153D01*
X321736Y249210D01*
X321809Y249264D01*
X321884Y249316D01*
X321961Y249364D01*
X322040Y249409D01*
X322121Y249450D01*
X322204Y249489D01*
X322288Y249523D01*
X322373Y249555D01*
X322460Y249582D01*
X322548Y249607D01*
X322636Y249627D01*
X322726Y249644D01*
X322816Y249657D01*
X322906Y249666D01*
X322997Y249672D01*
X323088Y249674D01*
X329692Y249674D01*
X329692Y245271D02*
X320887Y245271D01*
X320887Y256054D02*
X334095Y256054D01*
X320887Y256054D02*
X320887Y259723D01*
X320889Y259816D01*
X320895Y259910D01*
X320905Y260003D01*
X320919Y260095D01*
X320936Y260187D01*
X320958Y260278D01*
X320983Y260367D01*
X321013Y260456D01*
X321046Y260544D01*
X321082Y260630D01*
X321123Y260714D01*
X321166Y260796D01*
X321214Y260877D01*
X321264Y260955D01*
X321318Y261032D01*
X321376Y261106D01*
X321436Y261177D01*
X321499Y261246D01*
X321565Y261312D01*
X321634Y261375D01*
X321705Y261435D01*
X321779Y261493D01*
X321855Y261547D01*
X321934Y261597D01*
X322015Y261644D01*
X322097Y261688D01*
X322181Y261729D01*
X322267Y261765D01*
X322355Y261798D01*
X322443Y261828D01*
X322533Y261853D01*
X322624Y261875D01*
X322716Y261892D01*
X322808Y261906D01*
X322901Y261916D01*
X322995Y261922D01*
X323088Y261924D01*
X327491Y261924D01*
X327582Y261922D01*
X327673Y261916D01*
X327763Y261907D01*
X327853Y261894D01*
X327943Y261877D01*
X328031Y261857D01*
X328119Y261832D01*
X328206Y261805D01*
X328291Y261773D01*
X328375Y261739D01*
X328458Y261700D01*
X328539Y261659D01*
X328618Y261614D01*
X328695Y261566D01*
X328770Y261514D01*
X328843Y261460D01*
X328914Y261403D01*
X328982Y261342D01*
X329047Y261279D01*
X329110Y261214D01*
X329171Y261146D01*
X329228Y261075D01*
X329282Y261002D01*
X329334Y260927D01*
X329382Y260850D01*
X329427Y260771D01*
X329468Y260690D01*
X329507Y260607D01*
X329541Y260523D01*
X329573Y260438D01*
X329600Y260351D01*
X329625Y260263D01*
X329645Y260175D01*
X329662Y260085D01*
X329675Y259995D01*
X329684Y259905D01*
X329690Y259814D01*
X329692Y259723D01*
X329692Y256054D01*
X320887Y266015D02*
X320887Y270418D01*
X316484Y267483D02*
X327491Y267483D01*
X327582Y267485D01*
X327673Y267491D01*
X327763Y267500D01*
X327853Y267513D01*
X327943Y267530D01*
X328031Y267550D01*
X328119Y267575D01*
X328206Y267602D01*
X328291Y267634D01*
X328375Y267668D01*
X328458Y267707D01*
X328539Y267748D01*
X328618Y267793D01*
X328695Y267841D01*
X328770Y267893D01*
X328843Y267947D01*
X328914Y268004D01*
X328982Y268065D01*
X329047Y268128D01*
X329110Y268193D01*
X329171Y268262D01*
X329228Y268332D01*
X329282Y268405D01*
X329334Y268480D01*
X329382Y268557D01*
X329427Y268636D01*
X329468Y268717D01*
X329507Y268800D01*
X329541Y268884D01*
X329573Y268969D01*
X329601Y269056D01*
X329625Y269144D01*
X329645Y269232D01*
X329662Y269322D01*
X329675Y269412D01*
X329684Y269502D01*
X329690Y269593D01*
X329692Y269684D01*
X329692Y270418D01*
X334095Y274767D02*
X334095Y276234D01*
X320887Y280637D01*
X320887Y274767D02*
X329692Y277702D01*
X379984Y229108D02*
X393192Y229108D01*
X393192Y232777D01*
X393190Y232868D01*
X393184Y232959D01*
X393175Y233049D01*
X393162Y233139D01*
X393145Y233229D01*
X393125Y233317D01*
X393100Y233405D01*
X393073Y233492D01*
X393041Y233577D01*
X393007Y233661D01*
X392968Y233744D01*
X392927Y233825D01*
X392882Y233904D01*
X392834Y233981D01*
X392782Y234056D01*
X392728Y234129D01*
X392671Y234200D01*
X392610Y234268D01*
X392547Y234333D01*
X392482Y234396D01*
X392414Y234457D01*
X392343Y234514D01*
X392270Y234568D01*
X392195Y234620D01*
X392118Y234668D01*
X392039Y234713D01*
X391958Y234754D01*
X391875Y234793D01*
X391791Y234827D01*
X391706Y234859D01*
X391619Y234886D01*
X391531Y234911D01*
X391443Y234931D01*
X391353Y234948D01*
X391263Y234961D01*
X391173Y234970D01*
X391082Y234976D01*
X390991Y234978D01*
X386588Y234978D01*
X386497Y234976D01*
X386406Y234970D01*
X386316Y234961D01*
X386226Y234948D01*
X386136Y234931D01*
X386048Y234911D01*
X385960Y234886D01*
X385873Y234859D01*
X385788Y234827D01*
X385704Y234793D01*
X385621Y234754D01*
X385540Y234713D01*
X385461Y234668D01*
X385384Y234620D01*
X385309Y234568D01*
X385236Y234514D01*
X385165Y234457D01*
X385097Y234396D01*
X385032Y234333D01*
X384969Y234268D01*
X384908Y234200D01*
X384851Y234129D01*
X384797Y234056D01*
X384745Y233981D01*
X384697Y233904D01*
X384652Y233825D01*
X384611Y233744D01*
X384572Y233661D01*
X384538Y233577D01*
X384506Y233492D01*
X384479Y233405D01*
X384454Y233317D01*
X384434Y233229D01*
X384417Y233139D01*
X384404Y233049D01*
X384395Y232959D01*
X384389Y232868D01*
X384387Y232777D01*
X384387Y229108D01*
X384387Y240088D02*
X393192Y240088D01*
X380718Y239721D02*
X379984Y239721D01*
X379984Y240455D01*
X380718Y240455D01*
X380718Y239721D01*
X384387Y244190D02*
X384387Y248593D01*
X379984Y245657D02*
X390991Y245657D01*
X390991Y245658D02*
X391082Y245660D01*
X391173Y245666D01*
X391263Y245675D01*
X391353Y245688D01*
X391443Y245705D01*
X391531Y245725D01*
X391619Y245750D01*
X391706Y245777D01*
X391791Y245809D01*
X391875Y245843D01*
X391958Y245882D01*
X392039Y245923D01*
X392118Y245968D01*
X392195Y246016D01*
X392270Y246068D01*
X392343Y246122D01*
X392414Y246179D01*
X392482Y246240D01*
X392547Y246303D01*
X392610Y246368D01*
X392671Y246437D01*
X392728Y246507D01*
X392782Y246580D01*
X392834Y246655D01*
X392882Y246732D01*
X392927Y246811D01*
X392968Y246892D01*
X393007Y246975D01*
X393041Y247059D01*
X393073Y247144D01*
X393101Y247231D01*
X393125Y247319D01*
X393145Y247407D01*
X393162Y247497D01*
X393175Y247587D01*
X393184Y247677D01*
X393190Y247768D01*
X393192Y247859D01*
X393192Y248593D01*
X382919Y253488D02*
X379984Y257157D01*
X393192Y257157D01*
X393192Y253488D02*
X393192Y260826D01*
X393192Y266290D02*
X393192Y270692D01*
X393190Y270799D01*
X393184Y270906D01*
X393174Y271013D01*
X393161Y271119D01*
X393143Y271225D01*
X393122Y271330D01*
X393097Y271434D01*
X393068Y271538D01*
X393035Y271640D01*
X392998Y271740D01*
X392958Y271840D01*
X392914Y271938D01*
X392867Y272034D01*
X392816Y272128D01*
X392762Y272221D01*
X392705Y272311D01*
X392644Y272400D01*
X392580Y272486D01*
X392513Y272569D01*
X392443Y272651D01*
X392370Y272729D01*
X392294Y272805D01*
X392216Y272878D01*
X392134Y272948D01*
X392051Y273015D01*
X391965Y273079D01*
X391876Y273140D01*
X391786Y273197D01*
X391693Y273251D01*
X391599Y273302D01*
X391503Y273349D01*
X391405Y273393D01*
X391305Y273433D01*
X391205Y273470D01*
X391103Y273503D01*
X390999Y273532D01*
X390895Y273557D01*
X390790Y273578D01*
X390684Y273596D01*
X390578Y273609D01*
X390471Y273619D01*
X390364Y273625D01*
X390257Y273627D01*
X390257Y273628D02*
X388789Y273628D01*
X388789Y273627D02*
X388682Y273625D01*
X388575Y273619D01*
X388468Y273609D01*
X388362Y273596D01*
X388256Y273578D01*
X388151Y273557D01*
X388047Y273532D01*
X387943Y273503D01*
X387841Y273470D01*
X387741Y273433D01*
X387641Y273393D01*
X387543Y273349D01*
X387447Y273302D01*
X387353Y273251D01*
X387260Y273197D01*
X387170Y273140D01*
X387081Y273079D01*
X386995Y273015D01*
X386912Y272948D01*
X386830Y272878D01*
X386752Y272805D01*
X386676Y272729D01*
X386603Y272651D01*
X386533Y272569D01*
X386466Y272486D01*
X386402Y272400D01*
X386341Y272311D01*
X386284Y272221D01*
X386230Y272128D01*
X386179Y272034D01*
X386132Y271938D01*
X386088Y271840D01*
X386048Y271740D01*
X386011Y271640D01*
X385978Y271538D01*
X385949Y271434D01*
X385924Y271330D01*
X385903Y271225D01*
X385885Y271119D01*
X385872Y271013D01*
X385862Y270906D01*
X385856Y270799D01*
X385854Y270692D01*
X385854Y266290D01*
X379984Y266290D01*
X379984Y273628D01*
X405384Y229108D02*
X418592Y229108D01*
X418592Y232777D01*
X418590Y232868D01*
X418584Y232959D01*
X418575Y233049D01*
X418562Y233139D01*
X418545Y233229D01*
X418525Y233317D01*
X418500Y233405D01*
X418473Y233492D01*
X418441Y233577D01*
X418407Y233661D01*
X418368Y233744D01*
X418327Y233825D01*
X418282Y233904D01*
X418234Y233981D01*
X418182Y234056D01*
X418128Y234129D01*
X418071Y234200D01*
X418010Y234268D01*
X417947Y234333D01*
X417882Y234396D01*
X417814Y234457D01*
X417743Y234514D01*
X417670Y234568D01*
X417595Y234620D01*
X417518Y234668D01*
X417439Y234713D01*
X417358Y234754D01*
X417275Y234793D01*
X417191Y234827D01*
X417106Y234859D01*
X417019Y234886D01*
X416931Y234911D01*
X416843Y234931D01*
X416753Y234948D01*
X416663Y234961D01*
X416573Y234970D01*
X416482Y234976D01*
X416391Y234978D01*
X411988Y234978D01*
X411897Y234976D01*
X411806Y234970D01*
X411716Y234961D01*
X411626Y234948D01*
X411536Y234931D01*
X411448Y234911D01*
X411360Y234886D01*
X411273Y234859D01*
X411188Y234827D01*
X411104Y234793D01*
X411021Y234754D01*
X410940Y234713D01*
X410861Y234668D01*
X410784Y234620D01*
X410709Y234568D01*
X410636Y234514D01*
X410565Y234457D01*
X410497Y234396D01*
X410432Y234333D01*
X410369Y234268D01*
X410308Y234200D01*
X410251Y234129D01*
X410197Y234056D01*
X410145Y233981D01*
X410097Y233904D01*
X410052Y233825D01*
X410011Y233744D01*
X409972Y233661D01*
X409938Y233577D01*
X409906Y233492D01*
X409879Y233405D01*
X409854Y233317D01*
X409834Y233229D01*
X409817Y233139D01*
X409804Y233049D01*
X409795Y232959D01*
X409789Y232868D01*
X409787Y232777D01*
X409787Y229108D01*
X409787Y240088D02*
X418592Y240088D01*
X406118Y239721D02*
X405384Y239721D01*
X405384Y240455D01*
X406118Y240455D01*
X406118Y239721D01*
X409787Y244190D02*
X409787Y248593D01*
X405384Y245657D02*
X416391Y245657D01*
X416391Y245658D02*
X416482Y245660D01*
X416573Y245666D01*
X416663Y245675D01*
X416753Y245688D01*
X416843Y245705D01*
X416931Y245725D01*
X417019Y245750D01*
X417106Y245777D01*
X417191Y245809D01*
X417275Y245843D01*
X417358Y245882D01*
X417439Y245923D01*
X417518Y245968D01*
X417595Y246016D01*
X417670Y246068D01*
X417743Y246122D01*
X417814Y246179D01*
X417882Y246240D01*
X417947Y246303D01*
X418010Y246368D01*
X418071Y246437D01*
X418128Y246507D01*
X418182Y246580D01*
X418234Y246655D01*
X418282Y246732D01*
X418327Y246811D01*
X418368Y246892D01*
X418407Y246975D01*
X418441Y247059D01*
X418473Y247144D01*
X418501Y247231D01*
X418525Y247319D01*
X418545Y247407D01*
X418562Y247497D01*
X418575Y247587D01*
X418584Y247677D01*
X418590Y247768D01*
X418592Y247859D01*
X418592Y248593D01*
X408319Y253488D02*
X405384Y257157D01*
X418592Y257157D01*
X418592Y253488D02*
X418592Y260826D01*
X411254Y266290D02*
X411254Y270692D01*
X411256Y270799D01*
X411262Y270906D01*
X411272Y271013D01*
X411285Y271119D01*
X411303Y271225D01*
X411324Y271330D01*
X411349Y271434D01*
X411378Y271538D01*
X411411Y271640D01*
X411448Y271740D01*
X411488Y271840D01*
X411532Y271938D01*
X411579Y272034D01*
X411630Y272128D01*
X411684Y272221D01*
X411741Y272311D01*
X411802Y272400D01*
X411866Y272486D01*
X411933Y272569D01*
X412003Y272651D01*
X412076Y272729D01*
X412152Y272805D01*
X412230Y272878D01*
X412312Y272948D01*
X412395Y273015D01*
X412481Y273079D01*
X412570Y273140D01*
X412660Y273197D01*
X412753Y273251D01*
X412847Y273302D01*
X412943Y273350D01*
X413041Y273393D01*
X413141Y273433D01*
X413241Y273470D01*
X413343Y273503D01*
X413447Y273532D01*
X413551Y273557D01*
X413656Y273578D01*
X413762Y273596D01*
X413868Y273609D01*
X413975Y273619D01*
X414082Y273625D01*
X414189Y273627D01*
X414189Y273628D02*
X414923Y273628D01*
X415043Y273626D01*
X415163Y273620D01*
X415283Y273610D01*
X415402Y273597D01*
X415521Y273579D01*
X415639Y273558D01*
X415756Y273532D01*
X415873Y273503D01*
X415988Y273470D01*
X416102Y273433D01*
X416215Y273393D01*
X416327Y273349D01*
X416437Y273301D01*
X416546Y273250D01*
X416653Y273195D01*
X416757Y273136D01*
X416860Y273075D01*
X416961Y273010D01*
X417060Y272941D01*
X417157Y272870D01*
X417251Y272795D01*
X417342Y272718D01*
X417431Y272637D01*
X417517Y272553D01*
X417601Y272467D01*
X417682Y272378D01*
X417759Y272287D01*
X417834Y272193D01*
X417905Y272096D01*
X417974Y271997D01*
X418039Y271896D01*
X418100Y271794D01*
X418159Y271689D01*
X418214Y271582D01*
X418265Y271473D01*
X418313Y271363D01*
X418357Y271251D01*
X418397Y271138D01*
X418434Y271024D01*
X418467Y270909D01*
X418496Y270792D01*
X418522Y270675D01*
X418543Y270557D01*
X418561Y270438D01*
X418574Y270319D01*
X418584Y270199D01*
X418590Y270079D01*
X418592Y269959D01*
X418590Y269839D01*
X418584Y269719D01*
X418574Y269599D01*
X418561Y269480D01*
X418543Y269361D01*
X418522Y269243D01*
X418496Y269126D01*
X418467Y269009D01*
X418434Y268894D01*
X418397Y268780D01*
X418357Y268667D01*
X418313Y268555D01*
X418265Y268445D01*
X418214Y268336D01*
X418159Y268229D01*
X418100Y268125D01*
X418039Y268022D01*
X417974Y267921D01*
X417905Y267822D01*
X417834Y267725D01*
X417759Y267631D01*
X417682Y267540D01*
X417601Y267451D01*
X417517Y267365D01*
X417431Y267281D01*
X417342Y267200D01*
X417251Y267123D01*
X417157Y267048D01*
X417060Y266977D01*
X416961Y266908D01*
X416860Y266843D01*
X416758Y266782D01*
X416653Y266723D01*
X416546Y266668D01*
X416437Y266617D01*
X416327Y266569D01*
X416215Y266525D01*
X416102Y266485D01*
X415988Y266448D01*
X415873Y266415D01*
X415756Y266386D01*
X415639Y266360D01*
X415521Y266339D01*
X415402Y266321D01*
X415283Y266308D01*
X415163Y266298D01*
X415043Y266292D01*
X414923Y266290D01*
X411254Y266290D01*
X411103Y266292D01*
X410952Y266298D01*
X410801Y266308D01*
X410650Y266321D01*
X410500Y266339D01*
X410351Y266360D01*
X410202Y266385D01*
X410053Y266414D01*
X409906Y266447D01*
X409759Y266484D01*
X409613Y266524D01*
X409469Y266568D01*
X409325Y266616D01*
X409183Y266667D01*
X409043Y266722D01*
X408903Y266781D01*
X408766Y266844D01*
X408630Y266909D01*
X408495Y266979D01*
X408363Y267051D01*
X408232Y267128D01*
X408104Y267207D01*
X407977Y267290D01*
X407853Y267376D01*
X407731Y267465D01*
X407611Y267557D01*
X407494Y267653D01*
X407379Y267751D01*
X407267Y267852D01*
X407157Y267956D01*
X407050Y268063D01*
X406946Y268173D01*
X406845Y268285D01*
X406747Y268400D01*
X406651Y268517D01*
X406559Y268637D01*
X406470Y268759D01*
X406384Y268883D01*
X406301Y269010D01*
X406222Y269138D01*
X406145Y269269D01*
X406073Y269401D01*
X406003Y269536D01*
X405938Y269672D01*
X405875Y269809D01*
X405816Y269949D01*
X405761Y270089D01*
X405710Y270231D01*
X405662Y270375D01*
X405618Y270519D01*
X405578Y270665D01*
X405541Y270812D01*
X405508Y270959D01*
X405479Y271108D01*
X405454Y271257D01*
X405433Y271406D01*
X405415Y271556D01*
X405402Y271707D01*
X405392Y271858D01*
X405386Y272009D01*
X405384Y272160D01*
X443992Y234978D02*
X443992Y231309D01*
X443990Y231218D01*
X443984Y231127D01*
X443975Y231037D01*
X443962Y230947D01*
X443945Y230857D01*
X443925Y230769D01*
X443900Y230681D01*
X443873Y230594D01*
X443841Y230509D01*
X443807Y230425D01*
X443768Y230342D01*
X443727Y230261D01*
X443682Y230182D01*
X443634Y230105D01*
X443582Y230030D01*
X443528Y229957D01*
X443471Y229886D01*
X443410Y229818D01*
X443347Y229753D01*
X443282Y229690D01*
X443214Y229629D01*
X443143Y229572D01*
X443070Y229518D01*
X442995Y229466D01*
X442918Y229418D01*
X442839Y229373D01*
X442758Y229332D01*
X442675Y229293D01*
X442591Y229259D01*
X442506Y229227D01*
X442419Y229200D01*
X442331Y229175D01*
X442243Y229155D01*
X442153Y229138D01*
X442063Y229125D01*
X441973Y229116D01*
X441882Y229110D01*
X441791Y229108D01*
X438122Y229108D01*
X438015Y229110D01*
X437908Y229116D01*
X437801Y229126D01*
X437695Y229139D01*
X437589Y229157D01*
X437484Y229178D01*
X437380Y229203D01*
X437276Y229232D01*
X437174Y229265D01*
X437074Y229302D01*
X436974Y229342D01*
X436876Y229386D01*
X436780Y229433D01*
X436686Y229484D01*
X436593Y229538D01*
X436503Y229595D01*
X436414Y229656D01*
X436328Y229720D01*
X436245Y229787D01*
X436163Y229857D01*
X436085Y229930D01*
X436009Y230006D01*
X435936Y230084D01*
X435866Y230166D01*
X435799Y230249D01*
X435735Y230335D01*
X435674Y230424D01*
X435617Y230514D01*
X435563Y230607D01*
X435512Y230701D01*
X435465Y230797D01*
X435421Y230895D01*
X435381Y230995D01*
X435344Y231095D01*
X435311Y231197D01*
X435282Y231301D01*
X435257Y231405D01*
X435236Y231510D01*
X435218Y231616D01*
X435205Y231722D01*
X435195Y231829D01*
X435189Y231936D01*
X435187Y232043D01*
X435189Y232150D01*
X435195Y232257D01*
X435205Y232364D01*
X435218Y232470D01*
X435236Y232576D01*
X435257Y232681D01*
X435282Y232785D01*
X435311Y232889D01*
X435344Y232991D01*
X435381Y233091D01*
X435421Y233191D01*
X435465Y233289D01*
X435512Y233385D01*
X435563Y233479D01*
X435617Y233572D01*
X435674Y233662D01*
X435735Y233751D01*
X435799Y233837D01*
X435866Y233920D01*
X435936Y234002D01*
X436009Y234080D01*
X436085Y234156D01*
X436163Y234229D01*
X436245Y234299D01*
X436328Y234366D01*
X436414Y234430D01*
X436503Y234491D01*
X436593Y234548D01*
X436686Y234602D01*
X436780Y234653D01*
X436876Y234700D01*
X436974Y234744D01*
X437074Y234784D01*
X437174Y234821D01*
X437276Y234854D01*
X437380Y234883D01*
X437484Y234908D01*
X437589Y234929D01*
X437695Y234947D01*
X437801Y234960D01*
X437908Y234970D01*
X438015Y234976D01*
X438122Y234978D01*
X439589Y234978D01*
X439589Y229108D01*
X435187Y240869D02*
X443992Y240869D01*
X435187Y240869D02*
X435187Y247473D01*
X435189Y247564D01*
X435195Y247655D01*
X435204Y247745D01*
X435217Y247835D01*
X435234Y247925D01*
X435254Y248013D01*
X435279Y248101D01*
X435306Y248188D01*
X435338Y248273D01*
X435372Y248357D01*
X435411Y248440D01*
X435452Y248521D01*
X435497Y248600D01*
X435545Y248677D01*
X435597Y248752D01*
X435651Y248825D01*
X435708Y248896D01*
X435769Y248964D01*
X435832Y249029D01*
X435897Y249092D01*
X435965Y249153D01*
X436036Y249210D01*
X436109Y249264D01*
X436184Y249316D01*
X436261Y249364D01*
X436340Y249409D01*
X436421Y249450D01*
X436504Y249489D01*
X436588Y249523D01*
X436673Y249555D01*
X436760Y249582D01*
X436848Y249607D01*
X436936Y249627D01*
X437026Y249644D01*
X437116Y249657D01*
X437206Y249666D01*
X437297Y249672D01*
X437388Y249674D01*
X443992Y249674D01*
X443992Y245271D02*
X435187Y245271D01*
X435187Y256054D02*
X448395Y256054D01*
X435187Y256054D02*
X435187Y259723D01*
X435189Y259816D01*
X435195Y259910D01*
X435205Y260003D01*
X435219Y260095D01*
X435236Y260187D01*
X435258Y260278D01*
X435283Y260367D01*
X435313Y260456D01*
X435346Y260544D01*
X435382Y260630D01*
X435423Y260714D01*
X435466Y260796D01*
X435514Y260877D01*
X435564Y260955D01*
X435618Y261032D01*
X435676Y261106D01*
X435736Y261177D01*
X435799Y261246D01*
X435865Y261312D01*
X435934Y261375D01*
X436005Y261435D01*
X436079Y261493D01*
X436155Y261547D01*
X436234Y261597D01*
X436315Y261644D01*
X436397Y261688D01*
X436481Y261729D01*
X436567Y261765D01*
X436655Y261798D01*
X436743Y261828D01*
X436833Y261853D01*
X436924Y261875D01*
X437016Y261892D01*
X437108Y261906D01*
X437201Y261916D01*
X437295Y261922D01*
X437388Y261924D01*
X441791Y261924D01*
X441882Y261922D01*
X441973Y261916D01*
X442063Y261907D01*
X442153Y261894D01*
X442243Y261877D01*
X442331Y261857D01*
X442419Y261832D01*
X442506Y261805D01*
X442591Y261773D01*
X442675Y261739D01*
X442758Y261700D01*
X442839Y261659D01*
X442918Y261614D01*
X442995Y261566D01*
X443070Y261514D01*
X443143Y261460D01*
X443214Y261403D01*
X443282Y261342D01*
X443347Y261279D01*
X443410Y261214D01*
X443471Y261146D01*
X443528Y261075D01*
X443582Y261002D01*
X443634Y260927D01*
X443682Y260850D01*
X443727Y260771D01*
X443768Y260690D01*
X443807Y260607D01*
X443841Y260523D01*
X443873Y260438D01*
X443900Y260351D01*
X443925Y260263D01*
X443945Y260175D01*
X443962Y260085D01*
X443975Y259995D01*
X443984Y259905D01*
X443990Y259814D01*
X443992Y259723D01*
X443992Y256054D01*
X435187Y266015D02*
X435187Y270418D01*
X430784Y267483D02*
X441791Y267483D01*
X441882Y267485D01*
X441973Y267491D01*
X442063Y267500D01*
X442153Y267513D01*
X442243Y267530D01*
X442331Y267550D01*
X442419Y267575D01*
X442506Y267602D01*
X442591Y267634D01*
X442675Y267668D01*
X442758Y267707D01*
X442839Y267748D01*
X442918Y267793D01*
X442995Y267841D01*
X443070Y267893D01*
X443143Y267947D01*
X443214Y268004D01*
X443282Y268065D01*
X443347Y268128D01*
X443410Y268193D01*
X443471Y268262D01*
X443528Y268332D01*
X443582Y268405D01*
X443634Y268480D01*
X443682Y268557D01*
X443727Y268636D01*
X443768Y268717D01*
X443807Y268800D01*
X443841Y268884D01*
X443873Y268969D01*
X443901Y269056D01*
X443925Y269144D01*
X443945Y269232D01*
X443962Y269322D01*
X443975Y269412D01*
X443984Y269502D01*
X443990Y269593D01*
X443992Y269684D01*
X443992Y270418D01*
X448395Y274767D02*
X448395Y276234D01*
X435187Y280637D01*
X435187Y274767D02*
X443992Y277702D01*
X469392Y234978D02*
X469392Y231309D01*
X469390Y231218D01*
X469384Y231127D01*
X469375Y231037D01*
X469362Y230947D01*
X469345Y230857D01*
X469325Y230769D01*
X469300Y230681D01*
X469273Y230594D01*
X469241Y230509D01*
X469207Y230425D01*
X469168Y230342D01*
X469127Y230261D01*
X469082Y230182D01*
X469034Y230105D01*
X468982Y230030D01*
X468928Y229957D01*
X468871Y229886D01*
X468810Y229818D01*
X468747Y229753D01*
X468682Y229690D01*
X468614Y229629D01*
X468543Y229572D01*
X468470Y229518D01*
X468395Y229466D01*
X468318Y229418D01*
X468239Y229373D01*
X468158Y229332D01*
X468075Y229293D01*
X467991Y229259D01*
X467906Y229227D01*
X467819Y229200D01*
X467731Y229175D01*
X467643Y229155D01*
X467553Y229138D01*
X467463Y229125D01*
X467373Y229116D01*
X467282Y229110D01*
X467191Y229108D01*
X463522Y229108D01*
X463415Y229110D01*
X463308Y229116D01*
X463201Y229126D01*
X463095Y229139D01*
X462989Y229157D01*
X462884Y229178D01*
X462780Y229203D01*
X462676Y229232D01*
X462574Y229265D01*
X462474Y229302D01*
X462374Y229342D01*
X462276Y229386D01*
X462180Y229433D01*
X462086Y229484D01*
X461993Y229538D01*
X461903Y229595D01*
X461814Y229656D01*
X461728Y229720D01*
X461645Y229787D01*
X461563Y229857D01*
X461485Y229930D01*
X461409Y230006D01*
X461336Y230084D01*
X461266Y230166D01*
X461199Y230249D01*
X461135Y230335D01*
X461074Y230424D01*
X461017Y230514D01*
X460963Y230607D01*
X460912Y230701D01*
X460865Y230797D01*
X460821Y230895D01*
X460781Y230995D01*
X460744Y231095D01*
X460711Y231197D01*
X460682Y231301D01*
X460657Y231405D01*
X460636Y231510D01*
X460618Y231616D01*
X460605Y231722D01*
X460595Y231829D01*
X460589Y231936D01*
X460587Y232043D01*
X460589Y232150D01*
X460595Y232257D01*
X460605Y232364D01*
X460618Y232470D01*
X460636Y232576D01*
X460657Y232681D01*
X460682Y232785D01*
X460711Y232889D01*
X460744Y232991D01*
X460781Y233091D01*
X460821Y233191D01*
X460865Y233289D01*
X460912Y233385D01*
X460963Y233479D01*
X461017Y233572D01*
X461074Y233662D01*
X461135Y233751D01*
X461199Y233837D01*
X461266Y233920D01*
X461336Y234002D01*
X461409Y234080D01*
X461485Y234156D01*
X461563Y234229D01*
X461645Y234299D01*
X461728Y234366D01*
X461814Y234430D01*
X461903Y234491D01*
X461993Y234548D01*
X462086Y234602D01*
X462180Y234653D01*
X462276Y234700D01*
X462374Y234744D01*
X462474Y234784D01*
X462574Y234821D01*
X462676Y234854D01*
X462780Y234883D01*
X462884Y234908D01*
X462989Y234929D01*
X463095Y234947D01*
X463201Y234960D01*
X463308Y234970D01*
X463415Y234976D01*
X463522Y234978D01*
X464989Y234978D01*
X464989Y229108D01*
X460587Y240869D02*
X469392Y240869D01*
X460587Y240869D02*
X460587Y247473D01*
X460589Y247564D01*
X460595Y247655D01*
X460604Y247745D01*
X460617Y247835D01*
X460634Y247925D01*
X460654Y248013D01*
X460679Y248101D01*
X460706Y248188D01*
X460738Y248273D01*
X460772Y248357D01*
X460811Y248440D01*
X460852Y248521D01*
X460897Y248600D01*
X460945Y248677D01*
X460997Y248752D01*
X461051Y248825D01*
X461108Y248896D01*
X461169Y248964D01*
X461232Y249029D01*
X461297Y249092D01*
X461365Y249153D01*
X461436Y249210D01*
X461509Y249264D01*
X461584Y249316D01*
X461661Y249364D01*
X461740Y249409D01*
X461821Y249450D01*
X461904Y249489D01*
X461988Y249523D01*
X462073Y249555D01*
X462160Y249582D01*
X462248Y249607D01*
X462336Y249627D01*
X462426Y249644D01*
X462516Y249657D01*
X462606Y249666D01*
X462697Y249672D01*
X462788Y249674D01*
X469392Y249674D01*
X469392Y245271D02*
X460587Y245271D01*
X460587Y256054D02*
X473795Y256054D01*
X460587Y256054D02*
X460587Y259723D01*
X460589Y259816D01*
X460595Y259910D01*
X460605Y260003D01*
X460619Y260095D01*
X460636Y260187D01*
X460658Y260278D01*
X460683Y260367D01*
X460713Y260456D01*
X460746Y260544D01*
X460782Y260630D01*
X460823Y260714D01*
X460866Y260796D01*
X460914Y260877D01*
X460964Y260955D01*
X461018Y261032D01*
X461076Y261106D01*
X461136Y261177D01*
X461199Y261246D01*
X461265Y261312D01*
X461334Y261375D01*
X461405Y261435D01*
X461479Y261493D01*
X461555Y261547D01*
X461634Y261597D01*
X461715Y261644D01*
X461797Y261688D01*
X461881Y261729D01*
X461967Y261765D01*
X462055Y261798D01*
X462143Y261828D01*
X462233Y261853D01*
X462324Y261875D01*
X462416Y261892D01*
X462508Y261906D01*
X462601Y261916D01*
X462695Y261922D01*
X462788Y261924D01*
X467191Y261924D01*
X467282Y261922D01*
X467373Y261916D01*
X467463Y261907D01*
X467553Y261894D01*
X467643Y261877D01*
X467731Y261857D01*
X467819Y261832D01*
X467906Y261805D01*
X467991Y261773D01*
X468075Y261739D01*
X468158Y261700D01*
X468239Y261659D01*
X468318Y261614D01*
X468395Y261566D01*
X468470Y261514D01*
X468543Y261460D01*
X468614Y261403D01*
X468682Y261342D01*
X468747Y261279D01*
X468810Y261214D01*
X468871Y261146D01*
X468928Y261075D01*
X468982Y261002D01*
X469034Y260927D01*
X469082Y260850D01*
X469127Y260771D01*
X469168Y260690D01*
X469207Y260607D01*
X469241Y260523D01*
X469273Y260438D01*
X469300Y260351D01*
X469325Y260263D01*
X469345Y260175D01*
X469362Y260085D01*
X469375Y259995D01*
X469384Y259905D01*
X469390Y259814D01*
X469392Y259723D01*
X469392Y256054D01*
X460587Y266015D02*
X460587Y270418D01*
X456184Y267483D02*
X467191Y267483D01*
X467282Y267485D01*
X467373Y267491D01*
X467463Y267500D01*
X467553Y267513D01*
X467643Y267530D01*
X467731Y267550D01*
X467819Y267575D01*
X467906Y267602D01*
X467991Y267634D01*
X468075Y267668D01*
X468158Y267707D01*
X468239Y267748D01*
X468318Y267793D01*
X468395Y267841D01*
X468470Y267893D01*
X468543Y267947D01*
X468614Y268004D01*
X468682Y268065D01*
X468747Y268128D01*
X468810Y268193D01*
X468871Y268262D01*
X468928Y268332D01*
X468982Y268405D01*
X469034Y268480D01*
X469082Y268557D01*
X469127Y268636D01*
X469168Y268717D01*
X469207Y268800D01*
X469241Y268884D01*
X469273Y268969D01*
X469301Y269056D01*
X469325Y269144D01*
X469345Y269232D01*
X469362Y269322D01*
X469375Y269412D01*
X469384Y269502D01*
X469390Y269593D01*
X469392Y269684D01*
X469392Y270418D01*
X473795Y274767D02*
X473795Y276234D01*
X460587Y280637D01*
X460587Y274767D02*
X469392Y277702D01*
D10*
X476250Y285750D02*
X476250Y222250D01*
X476250Y190500D01*
X260350Y222250D02*
X260350Y285750D01*
X285750Y285750D02*
X285750Y222250D01*
X311150Y222250D02*
X311150Y285750D01*
X400050Y285750D02*
X400050Y222250D01*
X425450Y222250D02*
X425450Y285750D01*
X450850Y285750D02*
X450850Y222250D01*
X336550Y285750D02*
X234950Y285750D01*
X374650Y285750D02*
X476250Y285750D01*
X336550Y222250D02*
X234950Y222250D01*
X374650Y222250D02*
X476250Y222250D01*
X254762Y292862D02*
X254762Y309118D01*
X254762Y292862D02*
X261987Y292862D01*
X267758Y297378D02*
X267758Y304602D01*
X267760Y304735D01*
X267766Y304867D01*
X267776Y304999D01*
X267789Y305131D01*
X267807Y305263D01*
X267828Y305393D01*
X267853Y305524D01*
X267882Y305653D01*
X267915Y305781D01*
X267951Y305909D01*
X267991Y306035D01*
X268035Y306160D01*
X268083Y306284D01*
X268134Y306406D01*
X268189Y306527D01*
X268247Y306646D01*
X268309Y306764D01*
X268374Y306879D01*
X268443Y306993D01*
X268514Y307104D01*
X268590Y307213D01*
X268668Y307320D01*
X268749Y307425D01*
X268834Y307527D01*
X268921Y307627D01*
X269011Y307724D01*
X269104Y307819D01*
X269200Y307910D01*
X269298Y307999D01*
X269399Y308085D01*
X269503Y308168D01*
X269609Y308248D01*
X269717Y308324D01*
X269827Y308398D01*
X269940Y308468D01*
X270054Y308535D01*
X270171Y308598D01*
X270289Y308658D01*
X270409Y308715D01*
X270531Y308768D01*
X270654Y308817D01*
X270778Y308863D01*
X270904Y308905D01*
X271031Y308943D01*
X271159Y308978D01*
X271288Y309009D01*
X271417Y309036D01*
X271548Y309059D01*
X271679Y309079D01*
X271811Y309094D01*
X271943Y309106D01*
X272075Y309114D01*
X272208Y309118D01*
X272340Y309118D01*
X272473Y309114D01*
X272605Y309106D01*
X272737Y309094D01*
X272869Y309079D01*
X273000Y309059D01*
X273131Y309036D01*
X273260Y309009D01*
X273389Y308978D01*
X273517Y308943D01*
X273644Y308905D01*
X273770Y308863D01*
X273894Y308817D01*
X274017Y308768D01*
X274139Y308715D01*
X274259Y308658D01*
X274377Y308598D01*
X274494Y308535D01*
X274608Y308468D01*
X274721Y308398D01*
X274831Y308324D01*
X274939Y308248D01*
X275045Y308168D01*
X275149Y308085D01*
X275250Y307999D01*
X275348Y307910D01*
X275444Y307819D01*
X275537Y307724D01*
X275627Y307627D01*
X275714Y307527D01*
X275799Y307425D01*
X275880Y307320D01*
X275958Y307213D01*
X276034Y307104D01*
X276105Y306993D01*
X276174Y306879D01*
X276239Y306764D01*
X276301Y306646D01*
X276359Y306527D01*
X276414Y306406D01*
X276465Y306284D01*
X276513Y306160D01*
X276557Y306035D01*
X276597Y305909D01*
X276633Y305781D01*
X276666Y305653D01*
X276695Y305524D01*
X276720Y305393D01*
X276741Y305263D01*
X276759Y305131D01*
X276772Y304999D01*
X276782Y304867D01*
X276788Y304735D01*
X276790Y304602D01*
X276789Y304602D02*
X276789Y297378D01*
X276790Y297378D02*
X276788Y297245D01*
X276782Y297113D01*
X276772Y296981D01*
X276759Y296849D01*
X276741Y296717D01*
X276720Y296587D01*
X276695Y296456D01*
X276666Y296327D01*
X276633Y296199D01*
X276597Y296071D01*
X276557Y295945D01*
X276513Y295820D01*
X276465Y295696D01*
X276414Y295574D01*
X276359Y295453D01*
X276301Y295334D01*
X276239Y295216D01*
X276174Y295101D01*
X276105Y294987D01*
X276034Y294876D01*
X275958Y294767D01*
X275880Y294660D01*
X275799Y294555D01*
X275714Y294453D01*
X275627Y294353D01*
X275537Y294256D01*
X275444Y294161D01*
X275348Y294070D01*
X275250Y293981D01*
X275149Y293895D01*
X275045Y293812D01*
X274939Y293732D01*
X274831Y293656D01*
X274721Y293582D01*
X274608Y293512D01*
X274494Y293445D01*
X274377Y293382D01*
X274259Y293322D01*
X274139Y293265D01*
X274017Y293212D01*
X273894Y293163D01*
X273770Y293117D01*
X273644Y293075D01*
X273517Y293037D01*
X273389Y293002D01*
X273260Y292971D01*
X273131Y292944D01*
X273000Y292921D01*
X272869Y292901D01*
X272737Y292886D01*
X272605Y292874D01*
X272473Y292866D01*
X272340Y292862D01*
X272208Y292862D01*
X272075Y292866D01*
X271943Y292874D01*
X271811Y292886D01*
X271679Y292901D01*
X271548Y292921D01*
X271417Y292944D01*
X271288Y292971D01*
X271159Y293002D01*
X271031Y293037D01*
X270904Y293075D01*
X270778Y293117D01*
X270654Y293163D01*
X270531Y293212D01*
X270409Y293265D01*
X270289Y293322D01*
X270171Y293382D01*
X270054Y293445D01*
X269940Y293512D01*
X269827Y293582D01*
X269717Y293656D01*
X269609Y293732D01*
X269503Y293812D01*
X269399Y293895D01*
X269298Y293981D01*
X269200Y294070D01*
X269104Y294161D01*
X269011Y294256D01*
X268921Y294353D01*
X268834Y294453D01*
X268749Y294555D01*
X268668Y294660D01*
X268590Y294767D01*
X268514Y294876D01*
X268443Y294987D01*
X268374Y295101D01*
X268309Y295216D01*
X268247Y295334D01*
X268189Y295453D01*
X268134Y295574D01*
X268083Y295696D01*
X268035Y295820D01*
X267991Y295945D01*
X267951Y296071D01*
X267915Y296199D01*
X267882Y296327D01*
X267853Y296456D01*
X267828Y296587D01*
X267807Y296717D01*
X267789Y296849D01*
X267776Y296981D01*
X267766Y297113D01*
X267760Y297245D01*
X267758Y297378D01*
X282764Y309118D02*
X286377Y292862D01*
X289989Y303699D01*
X293602Y292862D01*
X297214Y309118D01*
X394462Y309118D02*
X394462Y292862D01*
X401687Y292862D01*
X407458Y297378D02*
X407458Y304602D01*
X407460Y304735D01*
X407466Y304867D01*
X407476Y304999D01*
X407489Y305131D01*
X407507Y305263D01*
X407528Y305393D01*
X407553Y305524D01*
X407582Y305653D01*
X407615Y305781D01*
X407651Y305909D01*
X407691Y306035D01*
X407735Y306160D01*
X407783Y306284D01*
X407834Y306406D01*
X407889Y306527D01*
X407947Y306646D01*
X408009Y306764D01*
X408074Y306879D01*
X408143Y306993D01*
X408214Y307104D01*
X408290Y307213D01*
X408368Y307320D01*
X408449Y307425D01*
X408534Y307527D01*
X408621Y307627D01*
X408711Y307724D01*
X408804Y307819D01*
X408900Y307910D01*
X408998Y307999D01*
X409099Y308085D01*
X409203Y308168D01*
X409309Y308248D01*
X409417Y308324D01*
X409527Y308398D01*
X409640Y308468D01*
X409754Y308535D01*
X409871Y308598D01*
X409989Y308658D01*
X410109Y308715D01*
X410231Y308768D01*
X410354Y308817D01*
X410478Y308863D01*
X410604Y308905D01*
X410731Y308943D01*
X410859Y308978D01*
X410988Y309009D01*
X411117Y309036D01*
X411248Y309059D01*
X411379Y309079D01*
X411511Y309094D01*
X411643Y309106D01*
X411775Y309114D01*
X411908Y309118D01*
X412040Y309118D01*
X412173Y309114D01*
X412305Y309106D01*
X412437Y309094D01*
X412569Y309079D01*
X412700Y309059D01*
X412831Y309036D01*
X412960Y309009D01*
X413089Y308978D01*
X413217Y308943D01*
X413344Y308905D01*
X413470Y308863D01*
X413594Y308817D01*
X413717Y308768D01*
X413839Y308715D01*
X413959Y308658D01*
X414077Y308598D01*
X414194Y308535D01*
X414308Y308468D01*
X414421Y308398D01*
X414531Y308324D01*
X414639Y308248D01*
X414745Y308168D01*
X414849Y308085D01*
X414950Y307999D01*
X415048Y307910D01*
X415144Y307819D01*
X415237Y307724D01*
X415327Y307627D01*
X415414Y307527D01*
X415499Y307425D01*
X415580Y307320D01*
X415658Y307213D01*
X415734Y307104D01*
X415805Y306993D01*
X415874Y306879D01*
X415939Y306764D01*
X416001Y306646D01*
X416059Y306527D01*
X416114Y306406D01*
X416165Y306284D01*
X416213Y306160D01*
X416257Y306035D01*
X416297Y305909D01*
X416333Y305781D01*
X416366Y305653D01*
X416395Y305524D01*
X416420Y305393D01*
X416441Y305263D01*
X416459Y305131D01*
X416472Y304999D01*
X416482Y304867D01*
X416488Y304735D01*
X416490Y304602D01*
X416489Y304602D02*
X416489Y297378D01*
X416490Y297378D02*
X416488Y297245D01*
X416482Y297113D01*
X416472Y296981D01*
X416459Y296849D01*
X416441Y296717D01*
X416420Y296587D01*
X416395Y296456D01*
X416366Y296327D01*
X416333Y296199D01*
X416297Y296071D01*
X416257Y295945D01*
X416213Y295820D01*
X416165Y295696D01*
X416114Y295574D01*
X416059Y295453D01*
X416001Y295334D01*
X415939Y295216D01*
X415874Y295101D01*
X415805Y294987D01*
X415734Y294876D01*
X415658Y294767D01*
X415580Y294660D01*
X415499Y294555D01*
X415414Y294453D01*
X415327Y294353D01*
X415237Y294256D01*
X415144Y294161D01*
X415048Y294070D01*
X414950Y293981D01*
X414849Y293895D01*
X414745Y293812D01*
X414639Y293732D01*
X414531Y293656D01*
X414421Y293582D01*
X414308Y293512D01*
X414194Y293445D01*
X414077Y293382D01*
X413959Y293322D01*
X413839Y293265D01*
X413717Y293212D01*
X413594Y293163D01*
X413470Y293117D01*
X413344Y293075D01*
X413217Y293037D01*
X413089Y293002D01*
X412960Y292971D01*
X412831Y292944D01*
X412700Y292921D01*
X412569Y292901D01*
X412437Y292886D01*
X412305Y292874D01*
X412173Y292866D01*
X412040Y292862D01*
X411908Y292862D01*
X411775Y292866D01*
X411643Y292874D01*
X411511Y292886D01*
X411379Y292901D01*
X411248Y292921D01*
X411117Y292944D01*
X410988Y292971D01*
X410859Y293002D01*
X410731Y293037D01*
X410604Y293075D01*
X410478Y293117D01*
X410354Y293163D01*
X410231Y293212D01*
X410109Y293265D01*
X409989Y293322D01*
X409871Y293382D01*
X409754Y293445D01*
X409640Y293512D01*
X409527Y293582D01*
X409417Y293656D01*
X409309Y293732D01*
X409203Y293812D01*
X409099Y293895D01*
X408998Y293981D01*
X408900Y294070D01*
X408804Y294161D01*
X408711Y294256D01*
X408621Y294353D01*
X408534Y294453D01*
X408449Y294555D01*
X408368Y294660D01*
X408290Y294767D01*
X408214Y294876D01*
X408143Y294987D01*
X408074Y295101D01*
X408009Y295216D01*
X407947Y295334D01*
X407889Y295453D01*
X407834Y295574D01*
X407783Y295696D01*
X407735Y295820D01*
X407691Y295945D01*
X407651Y296071D01*
X407615Y296199D01*
X407582Y296327D01*
X407553Y296456D01*
X407528Y296587D01*
X407507Y296717D01*
X407489Y296849D01*
X407476Y296981D01*
X407466Y297113D01*
X407460Y297245D01*
X407458Y297378D01*
X422464Y309118D02*
X426077Y292862D01*
X429689Y303699D01*
X433302Y292862D01*
X436914Y309118D01*
X254762Y213868D02*
X254762Y197612D01*
X254762Y206643D02*
X263793Y206643D01*
X263793Y213868D02*
X263793Y197612D01*
X272304Y197612D02*
X272304Y213868D01*
X270497Y197612D02*
X274110Y197612D01*
X274110Y213868D02*
X270497Y213868D01*
X287136Y206643D02*
X289845Y206643D01*
X289845Y197612D01*
X284426Y197612D01*
X284308Y197614D01*
X284190Y197620D01*
X284072Y197629D01*
X283955Y197643D01*
X283838Y197660D01*
X283721Y197681D01*
X283606Y197706D01*
X283491Y197735D01*
X283377Y197768D01*
X283265Y197804D01*
X283154Y197844D01*
X283044Y197887D01*
X282935Y197934D01*
X282828Y197984D01*
X282723Y198039D01*
X282620Y198096D01*
X282519Y198157D01*
X282419Y198221D01*
X282322Y198288D01*
X282227Y198358D01*
X282135Y198432D01*
X282044Y198508D01*
X281957Y198588D01*
X281872Y198670D01*
X281790Y198755D01*
X281710Y198842D01*
X281634Y198933D01*
X281560Y199025D01*
X281490Y199120D01*
X281423Y199217D01*
X281359Y199317D01*
X281298Y199418D01*
X281241Y199521D01*
X281186Y199626D01*
X281136Y199733D01*
X281089Y199842D01*
X281046Y199952D01*
X281006Y200063D01*
X280970Y200175D01*
X280937Y200289D01*
X280908Y200404D01*
X280883Y200519D01*
X280862Y200636D01*
X280845Y200753D01*
X280831Y200870D01*
X280822Y200988D01*
X280816Y201106D01*
X280814Y201224D01*
X280814Y210256D01*
X280815Y210256D02*
X280817Y210374D01*
X280823Y210492D01*
X280832Y210610D01*
X280846Y210727D01*
X280863Y210844D01*
X280884Y210961D01*
X280909Y211076D01*
X280938Y211191D01*
X280971Y211305D01*
X281007Y211417D01*
X281047Y211528D01*
X281090Y211638D01*
X281137Y211747D01*
X281187Y211854D01*
X281241Y211959D01*
X281299Y212062D01*
X281360Y212163D01*
X281424Y212263D01*
X281491Y212360D01*
X281561Y212455D01*
X281635Y212547D01*
X281711Y212638D01*
X281791Y212725D01*
X281873Y212810D01*
X281958Y212892D01*
X282045Y212972D01*
X282136Y213048D01*
X282228Y213122D01*
X282323Y213192D01*
X282420Y213259D01*
X282520Y213323D01*
X282621Y213384D01*
X282724Y213441D01*
X282829Y213495D01*
X282936Y213546D01*
X283045Y213593D01*
X283155Y213636D01*
X283266Y213676D01*
X283378Y213712D01*
X283492Y213745D01*
X283607Y213774D01*
X283722Y213799D01*
X283839Y213820D01*
X283956Y213837D01*
X284073Y213851D01*
X284191Y213860D01*
X284309Y213866D01*
X284427Y213868D01*
X284426Y213868D02*
X289845Y213868D01*
X297487Y213868D02*
X297487Y197612D01*
X297487Y206643D02*
X306518Y206643D01*
X306518Y213868D02*
X306518Y197612D01*
X394462Y197612D02*
X394462Y213868D01*
X394462Y206643D02*
X403493Y206643D01*
X403493Y213868D02*
X403493Y197612D01*
X412004Y197612D02*
X412004Y213868D01*
X410197Y197612D02*
X413810Y197612D01*
X413810Y213868D02*
X410197Y213868D01*
X426836Y206643D02*
X429545Y206643D01*
X429545Y197612D01*
X424126Y197612D01*
X424008Y197614D01*
X423890Y197620D01*
X423772Y197629D01*
X423655Y197643D01*
X423538Y197660D01*
X423421Y197681D01*
X423306Y197706D01*
X423191Y197735D01*
X423077Y197768D01*
X422965Y197804D01*
X422854Y197844D01*
X422744Y197887D01*
X422635Y197934D01*
X422528Y197984D01*
X422423Y198039D01*
X422320Y198096D01*
X422219Y198157D01*
X422119Y198221D01*
X422022Y198288D01*
X421927Y198358D01*
X421835Y198432D01*
X421744Y198508D01*
X421657Y198588D01*
X421572Y198670D01*
X421490Y198755D01*
X421410Y198842D01*
X421334Y198933D01*
X421260Y199025D01*
X421190Y199120D01*
X421123Y199217D01*
X421059Y199317D01*
X420998Y199418D01*
X420941Y199521D01*
X420886Y199626D01*
X420836Y199733D01*
X420789Y199842D01*
X420746Y199952D01*
X420706Y200063D01*
X420670Y200175D01*
X420637Y200289D01*
X420608Y200404D01*
X420583Y200519D01*
X420562Y200636D01*
X420545Y200753D01*
X420531Y200870D01*
X420522Y200988D01*
X420516Y201106D01*
X420514Y201224D01*
X420514Y210256D01*
X420515Y210256D02*
X420517Y210374D01*
X420523Y210492D01*
X420532Y210610D01*
X420546Y210727D01*
X420563Y210844D01*
X420584Y210961D01*
X420609Y211076D01*
X420638Y211191D01*
X420671Y211305D01*
X420707Y211417D01*
X420747Y211528D01*
X420790Y211638D01*
X420837Y211747D01*
X420887Y211854D01*
X420941Y211959D01*
X420999Y212062D01*
X421060Y212163D01*
X421124Y212263D01*
X421191Y212360D01*
X421261Y212455D01*
X421335Y212547D01*
X421411Y212638D01*
X421491Y212725D01*
X421573Y212810D01*
X421658Y212892D01*
X421745Y212972D01*
X421836Y213048D01*
X421928Y213122D01*
X422023Y213192D01*
X422120Y213259D01*
X422220Y213323D01*
X422321Y213384D01*
X422424Y213441D01*
X422529Y213495D01*
X422636Y213546D01*
X422745Y213593D01*
X422855Y213636D01*
X422966Y213676D01*
X423078Y213712D01*
X423192Y213745D01*
X423307Y213774D01*
X423422Y213799D01*
X423539Y213820D01*
X423656Y213837D01*
X423773Y213851D01*
X423891Y213860D01*
X424009Y213866D01*
X424127Y213868D01*
X424126Y213868D02*
X429545Y213868D01*
X437187Y213868D02*
X437187Y197612D01*
X437187Y206643D02*
X446218Y206643D01*
X446218Y213868D02*
X446218Y197612D01*
X203200Y254000D02*
X63500Y254000D01*
X76934Y303728D02*
X72418Y305534D01*
X72330Y305571D01*
X72244Y305612D01*
X72159Y305656D01*
X72076Y305704D01*
X71996Y305755D01*
X71917Y305809D01*
X71841Y305867D01*
X71767Y305927D01*
X71695Y305991D01*
X71627Y306057D01*
X71561Y306127D01*
X71498Y306198D01*
X71437Y306273D01*
X71380Y306349D01*
X71327Y306428D01*
X71276Y306509D01*
X71229Y306592D01*
X71185Y306677D01*
X71145Y306764D01*
X71108Y306852D01*
X71075Y306942D01*
X71045Y307033D01*
X71020Y307125D01*
X70998Y307218D01*
X70980Y307312D01*
X70965Y307406D01*
X70955Y307501D01*
X70949Y307597D01*
X70946Y307692D01*
X70947Y307788D01*
X70953Y307883D01*
X70962Y307979D01*
X70975Y308073D01*
X70991Y308167D01*
X71012Y308261D01*
X71037Y308353D01*
X71065Y308444D01*
X71097Y308534D01*
X71132Y308623D01*
X71171Y308710D01*
X71214Y308796D01*
X71260Y308880D01*
X71310Y308961D01*
X71362Y309041D01*
X71418Y309119D01*
X71478Y309194D01*
X71540Y309266D01*
X71605Y309336D01*
X71673Y309404D01*
X71743Y309468D01*
X71816Y309530D01*
X71892Y309588D01*
X71970Y309644D01*
X72050Y309696D01*
X72132Y309745D01*
X72216Y309790D01*
X72302Y309832D01*
X72389Y309871D01*
X72478Y309906D01*
X72569Y309937D01*
X72660Y309964D01*
X72753Y309988D01*
X72846Y310008D01*
X72940Y310024D01*
X73035Y310036D01*
X73130Y310045D01*
X73226Y310049D01*
X73321Y310050D01*
X73568Y310043D01*
X73814Y310031D01*
X74060Y310013D01*
X74306Y309988D01*
X74550Y309958D01*
X74794Y309922D01*
X75037Y309881D01*
X75279Y309833D01*
X75520Y309779D01*
X75759Y309720D01*
X75997Y309655D01*
X76233Y309584D01*
X76468Y309508D01*
X76701Y309426D01*
X76931Y309338D01*
X77159Y309245D01*
X77386Y309147D01*
X76934Y303727D02*
X77022Y303690D01*
X77108Y303649D01*
X77193Y303605D01*
X77276Y303557D01*
X77356Y303506D01*
X77435Y303452D01*
X77511Y303394D01*
X77585Y303334D01*
X77657Y303270D01*
X77725Y303204D01*
X77791Y303134D01*
X77854Y303063D01*
X77915Y302988D01*
X77972Y302912D01*
X78025Y302833D01*
X78076Y302752D01*
X78123Y302669D01*
X78167Y302584D01*
X78207Y302497D01*
X78244Y302409D01*
X78277Y302319D01*
X78307Y302228D01*
X78332Y302136D01*
X78354Y302043D01*
X78372Y301949D01*
X78387Y301855D01*
X78397Y301760D01*
X78403Y301664D01*
X78406Y301569D01*
X78405Y301473D01*
X78399Y301378D01*
X78390Y301282D01*
X78377Y301188D01*
X78361Y301094D01*
X78340Y301000D01*
X78315Y300908D01*
X78287Y300817D01*
X78255Y300727D01*
X78220Y300638D01*
X78181Y300551D01*
X78138Y300465D01*
X78092Y300381D01*
X78042Y300300D01*
X77990Y300220D01*
X77934Y300142D01*
X77874Y300067D01*
X77812Y299995D01*
X77747Y299925D01*
X77679Y299857D01*
X77609Y299793D01*
X77536Y299731D01*
X77460Y299673D01*
X77382Y299617D01*
X77302Y299565D01*
X77220Y299516D01*
X77136Y299471D01*
X77050Y299429D01*
X76963Y299390D01*
X76874Y299355D01*
X76783Y299324D01*
X76692Y299297D01*
X76599Y299273D01*
X76506Y299253D01*
X76412Y299237D01*
X76317Y299225D01*
X76222Y299216D01*
X76126Y299212D01*
X76031Y299211D01*
X76030Y299212D02*
X75668Y299221D01*
X75306Y299239D01*
X74945Y299266D01*
X74585Y299301D01*
X74225Y299344D01*
X73866Y299396D01*
X73509Y299457D01*
X73154Y299526D01*
X72800Y299603D01*
X72448Y299689D01*
X72098Y299783D01*
X71750Y299886D01*
X71405Y299996D01*
X71063Y300115D01*
X87077Y299212D02*
X84368Y310049D01*
X89786Y306437D02*
X87077Y299212D01*
X92496Y299212D02*
X89786Y306437D01*
X95205Y310049D02*
X92496Y299212D01*
X101249Y299212D02*
X101249Y310049D01*
X100798Y314565D02*
X100798Y315468D01*
X101701Y315468D01*
X101701Y314565D01*
X100798Y314565D01*
X106239Y310049D02*
X111658Y310049D01*
X108045Y315468D02*
X108045Y301921D01*
X108046Y301921D02*
X108048Y301820D01*
X108054Y301719D01*
X108063Y301618D01*
X108076Y301517D01*
X108093Y301417D01*
X108114Y301318D01*
X108138Y301220D01*
X108166Y301123D01*
X108198Y301026D01*
X108233Y300931D01*
X108272Y300838D01*
X108314Y300746D01*
X108360Y300655D01*
X108409Y300567D01*
X108461Y300480D01*
X108517Y300395D01*
X108575Y300312D01*
X108637Y300232D01*
X108702Y300154D01*
X108769Y300078D01*
X108839Y300005D01*
X108912Y299935D01*
X108988Y299868D01*
X109066Y299803D01*
X109146Y299741D01*
X109229Y299683D01*
X109314Y299627D01*
X109401Y299575D01*
X109489Y299526D01*
X109580Y299480D01*
X109672Y299438D01*
X109765Y299399D01*
X109860Y299364D01*
X109957Y299332D01*
X110054Y299304D01*
X110152Y299280D01*
X110251Y299259D01*
X110351Y299242D01*
X110452Y299229D01*
X110553Y299220D01*
X110654Y299214D01*
X110755Y299212D01*
X111658Y299212D01*
X120163Y299212D02*
X123776Y299212D01*
X120163Y299212D02*
X120062Y299214D01*
X119961Y299220D01*
X119860Y299229D01*
X119759Y299242D01*
X119659Y299259D01*
X119560Y299280D01*
X119462Y299304D01*
X119365Y299332D01*
X119268Y299364D01*
X119173Y299399D01*
X119080Y299438D01*
X118988Y299480D01*
X118897Y299526D01*
X118809Y299575D01*
X118722Y299627D01*
X118637Y299683D01*
X118554Y299741D01*
X118474Y299803D01*
X118396Y299868D01*
X118320Y299935D01*
X118247Y300005D01*
X118177Y300078D01*
X118110Y300154D01*
X118045Y300232D01*
X117983Y300312D01*
X117925Y300395D01*
X117869Y300480D01*
X117817Y300567D01*
X117768Y300655D01*
X117722Y300746D01*
X117680Y300838D01*
X117641Y300931D01*
X117606Y301026D01*
X117574Y301123D01*
X117546Y301220D01*
X117522Y301318D01*
X117501Y301417D01*
X117484Y301517D01*
X117471Y301618D01*
X117462Y301719D01*
X117456Y301820D01*
X117454Y301921D01*
X117454Y307340D01*
X117456Y307441D01*
X117462Y307542D01*
X117471Y307643D01*
X117484Y307744D01*
X117501Y307844D01*
X117522Y307943D01*
X117546Y308041D01*
X117574Y308138D01*
X117606Y308235D01*
X117641Y308330D01*
X117680Y308423D01*
X117722Y308515D01*
X117768Y308606D01*
X117817Y308695D01*
X117869Y308781D01*
X117925Y308866D01*
X117983Y308949D01*
X118045Y309029D01*
X118110Y309107D01*
X118177Y309183D01*
X118247Y309256D01*
X118320Y309326D01*
X118396Y309393D01*
X118474Y309458D01*
X118554Y309520D01*
X118637Y309578D01*
X118722Y309634D01*
X118809Y309686D01*
X118897Y309735D01*
X118988Y309781D01*
X119080Y309823D01*
X119173Y309862D01*
X119268Y309897D01*
X119365Y309929D01*
X119462Y309957D01*
X119560Y309981D01*
X119659Y310002D01*
X119759Y310019D01*
X119860Y310032D01*
X119961Y310041D01*
X120062Y310047D01*
X120163Y310049D01*
X123776Y310049D01*
X129941Y315468D02*
X129941Y299212D01*
X129941Y310049D02*
X134457Y310049D01*
X134561Y310047D01*
X134664Y310041D01*
X134768Y310031D01*
X134871Y310017D01*
X134973Y309999D01*
X135074Y309978D01*
X135175Y309952D01*
X135274Y309923D01*
X135373Y309890D01*
X135470Y309853D01*
X135565Y309812D01*
X135659Y309768D01*
X135751Y309720D01*
X135841Y309669D01*
X135930Y309614D01*
X136016Y309556D01*
X136099Y309494D01*
X136181Y309430D01*
X136259Y309362D01*
X136335Y309292D01*
X136409Y309219D01*
X136479Y309142D01*
X136547Y309064D01*
X136611Y308982D01*
X136673Y308899D01*
X136731Y308813D01*
X136786Y308724D01*
X136837Y308634D01*
X136885Y308542D01*
X136929Y308448D01*
X136970Y308353D01*
X137007Y308256D01*
X137040Y308157D01*
X137069Y308058D01*
X137095Y307957D01*
X137116Y307856D01*
X137134Y307754D01*
X137148Y307651D01*
X137158Y307547D01*
X137164Y307444D01*
X137166Y307340D01*
X137166Y299212D01*
X152940Y293793D02*
X152940Y310049D01*
X157456Y310049D01*
X157560Y310047D01*
X157663Y310041D01*
X157767Y310031D01*
X157870Y310017D01*
X157972Y309999D01*
X158073Y309978D01*
X158174Y309952D01*
X158273Y309923D01*
X158372Y309890D01*
X158469Y309853D01*
X158564Y309812D01*
X158658Y309768D01*
X158750Y309720D01*
X158840Y309669D01*
X158929Y309614D01*
X159015Y309556D01*
X159098Y309494D01*
X159180Y309430D01*
X159258Y309362D01*
X159334Y309292D01*
X159408Y309219D01*
X159478Y309142D01*
X159546Y309064D01*
X159610Y308982D01*
X159672Y308899D01*
X159730Y308813D01*
X159785Y308724D01*
X159836Y308634D01*
X159884Y308542D01*
X159928Y308448D01*
X159969Y308353D01*
X160006Y308256D01*
X160039Y308157D01*
X160068Y308058D01*
X160094Y307957D01*
X160115Y307856D01*
X160133Y307754D01*
X160147Y307651D01*
X160157Y307547D01*
X160163Y307444D01*
X160165Y307340D01*
X160165Y301921D01*
X160163Y301820D01*
X160157Y301719D01*
X160148Y301618D01*
X160135Y301517D01*
X160118Y301417D01*
X160097Y301318D01*
X160073Y301220D01*
X160045Y301123D01*
X160013Y301026D01*
X159978Y300931D01*
X159939Y300838D01*
X159897Y300746D01*
X159851Y300655D01*
X159802Y300567D01*
X159750Y300480D01*
X159694Y300395D01*
X159636Y300312D01*
X159574Y300232D01*
X159509Y300154D01*
X159442Y300078D01*
X159372Y300005D01*
X159299Y299935D01*
X159223Y299868D01*
X159145Y299803D01*
X159065Y299741D01*
X158982Y299683D01*
X158897Y299627D01*
X158811Y299575D01*
X158722Y299526D01*
X158631Y299480D01*
X158539Y299438D01*
X158446Y299399D01*
X158351Y299364D01*
X158254Y299332D01*
X158157Y299304D01*
X158059Y299280D01*
X157960Y299259D01*
X157860Y299242D01*
X157759Y299229D01*
X157658Y299220D01*
X157557Y299214D01*
X157456Y299212D01*
X152940Y299212D01*
X166414Y302824D02*
X166414Y306437D01*
X166416Y306556D01*
X166422Y306676D01*
X166432Y306795D01*
X166446Y306913D01*
X166463Y307032D01*
X166485Y307149D01*
X166510Y307266D01*
X166540Y307381D01*
X166573Y307496D01*
X166610Y307610D01*
X166650Y307722D01*
X166695Y307833D01*
X166743Y307942D01*
X166794Y308050D01*
X166849Y308156D01*
X166908Y308260D01*
X166970Y308362D01*
X167035Y308462D01*
X167104Y308560D01*
X167176Y308656D01*
X167251Y308749D01*
X167328Y308839D01*
X167409Y308927D01*
X167493Y309012D01*
X167580Y309094D01*
X167669Y309174D01*
X167761Y309250D01*
X167855Y309324D01*
X167952Y309394D01*
X168050Y309461D01*
X168151Y309525D01*
X168255Y309585D01*
X168360Y309642D01*
X168467Y309695D01*
X168575Y309745D01*
X168685Y309791D01*
X168797Y309833D01*
X168910Y309872D01*
X169024Y309907D01*
X169139Y309938D01*
X169256Y309966D01*
X169373Y309989D01*
X169490Y310009D01*
X169609Y310025D01*
X169728Y310037D01*
X169847Y310045D01*
X169966Y310049D01*
X170086Y310049D01*
X170205Y310045D01*
X170324Y310037D01*
X170443Y310025D01*
X170562Y310009D01*
X170679Y309989D01*
X170796Y309966D01*
X170913Y309938D01*
X171028Y309907D01*
X171142Y309872D01*
X171255Y309833D01*
X171367Y309791D01*
X171477Y309745D01*
X171585Y309695D01*
X171692Y309642D01*
X171797Y309585D01*
X171901Y309525D01*
X172002Y309461D01*
X172100Y309394D01*
X172197Y309324D01*
X172291Y309250D01*
X172383Y309174D01*
X172472Y309094D01*
X172559Y309012D01*
X172643Y308927D01*
X172724Y308839D01*
X172801Y308749D01*
X172876Y308656D01*
X172948Y308560D01*
X173017Y308462D01*
X173082Y308362D01*
X173144Y308260D01*
X173203Y308156D01*
X173258Y308050D01*
X173309Y307942D01*
X173357Y307833D01*
X173402Y307722D01*
X173442Y307610D01*
X173479Y307496D01*
X173512Y307381D01*
X173542Y307266D01*
X173567Y307149D01*
X173589Y307032D01*
X173606Y306913D01*
X173620Y306795D01*
X173630Y306676D01*
X173636Y306556D01*
X173638Y306437D01*
X173639Y306437D02*
X173639Y302824D01*
X173638Y302824D02*
X173636Y302705D01*
X173630Y302585D01*
X173620Y302466D01*
X173606Y302348D01*
X173589Y302229D01*
X173567Y302112D01*
X173542Y301995D01*
X173512Y301880D01*
X173479Y301765D01*
X173442Y301651D01*
X173402Y301539D01*
X173357Y301428D01*
X173309Y301319D01*
X173258Y301211D01*
X173203Y301105D01*
X173144Y301001D01*
X173082Y300899D01*
X173017Y300799D01*
X172948Y300701D01*
X172876Y300605D01*
X172801Y300512D01*
X172724Y300422D01*
X172643Y300334D01*
X172559Y300249D01*
X172472Y300167D01*
X172383Y300087D01*
X172291Y300011D01*
X172197Y299937D01*
X172100Y299867D01*
X172002Y299800D01*
X171901Y299736D01*
X171797Y299676D01*
X171692Y299619D01*
X171585Y299566D01*
X171477Y299516D01*
X171367Y299470D01*
X171255Y299428D01*
X171142Y299389D01*
X171028Y299354D01*
X170913Y299323D01*
X170796Y299295D01*
X170679Y299272D01*
X170562Y299252D01*
X170443Y299236D01*
X170324Y299224D01*
X170205Y299216D01*
X170086Y299212D01*
X169966Y299212D01*
X169847Y299216D01*
X169728Y299224D01*
X169609Y299236D01*
X169490Y299252D01*
X169373Y299272D01*
X169256Y299295D01*
X169139Y299323D01*
X169024Y299354D01*
X168910Y299389D01*
X168797Y299428D01*
X168685Y299470D01*
X168575Y299516D01*
X168467Y299566D01*
X168360Y299619D01*
X168255Y299676D01*
X168151Y299736D01*
X168050Y299800D01*
X167952Y299867D01*
X167855Y299937D01*
X167761Y300011D01*
X167669Y300087D01*
X167580Y300167D01*
X167493Y300249D01*
X167409Y300334D01*
X167328Y300422D01*
X167251Y300512D01*
X167176Y300605D01*
X167104Y300701D01*
X167035Y300799D01*
X166970Y300899D01*
X166908Y301001D01*
X166849Y301105D01*
X166794Y301211D01*
X166743Y301319D01*
X166695Y301428D01*
X166650Y301539D01*
X166610Y301651D01*
X166573Y301765D01*
X166540Y301880D01*
X166510Y301995D01*
X166485Y302112D01*
X166463Y302229D01*
X166446Y302348D01*
X166432Y302466D01*
X166422Y302585D01*
X166416Y302705D01*
X166414Y302824D01*
X181316Y305534D02*
X185831Y303728D01*
X181315Y305534D02*
X181227Y305571D01*
X181141Y305612D01*
X181056Y305656D01*
X180973Y305704D01*
X180893Y305755D01*
X180814Y305809D01*
X180738Y305867D01*
X180664Y305927D01*
X180592Y305991D01*
X180524Y306057D01*
X180458Y306127D01*
X180395Y306198D01*
X180334Y306273D01*
X180277Y306349D01*
X180224Y306428D01*
X180173Y306509D01*
X180126Y306592D01*
X180082Y306677D01*
X180042Y306764D01*
X180005Y306852D01*
X179972Y306942D01*
X179942Y307033D01*
X179917Y307125D01*
X179895Y307218D01*
X179877Y307312D01*
X179862Y307406D01*
X179852Y307501D01*
X179846Y307597D01*
X179843Y307692D01*
X179844Y307788D01*
X179850Y307883D01*
X179859Y307979D01*
X179872Y308073D01*
X179888Y308167D01*
X179909Y308261D01*
X179934Y308353D01*
X179962Y308444D01*
X179994Y308534D01*
X180029Y308623D01*
X180068Y308710D01*
X180111Y308796D01*
X180157Y308880D01*
X180207Y308961D01*
X180259Y309041D01*
X180315Y309119D01*
X180375Y309194D01*
X180437Y309266D01*
X180502Y309336D01*
X180570Y309404D01*
X180640Y309468D01*
X180713Y309530D01*
X180789Y309588D01*
X180867Y309644D01*
X180947Y309696D01*
X181029Y309745D01*
X181113Y309790D01*
X181199Y309832D01*
X181286Y309871D01*
X181375Y309906D01*
X181466Y309937D01*
X181557Y309964D01*
X181650Y309988D01*
X181743Y310008D01*
X181837Y310024D01*
X181932Y310036D01*
X182027Y310045D01*
X182123Y310049D01*
X182218Y310050D01*
X182465Y310043D01*
X182711Y310031D01*
X182957Y310013D01*
X183203Y309988D01*
X183447Y309958D01*
X183691Y309922D01*
X183934Y309881D01*
X184176Y309833D01*
X184417Y309779D01*
X184656Y309720D01*
X184894Y309655D01*
X185130Y309584D01*
X185365Y309508D01*
X185598Y309426D01*
X185828Y309338D01*
X186056Y309245D01*
X186283Y309147D01*
X185832Y303727D02*
X185920Y303690D01*
X186006Y303649D01*
X186091Y303605D01*
X186174Y303557D01*
X186254Y303506D01*
X186333Y303452D01*
X186409Y303394D01*
X186483Y303334D01*
X186555Y303270D01*
X186623Y303204D01*
X186689Y303134D01*
X186752Y303063D01*
X186813Y302988D01*
X186870Y302912D01*
X186923Y302833D01*
X186974Y302752D01*
X187021Y302669D01*
X187065Y302584D01*
X187105Y302497D01*
X187142Y302409D01*
X187175Y302319D01*
X187205Y302228D01*
X187230Y302136D01*
X187252Y302043D01*
X187270Y301949D01*
X187285Y301855D01*
X187295Y301760D01*
X187301Y301664D01*
X187304Y301569D01*
X187303Y301473D01*
X187297Y301378D01*
X187288Y301282D01*
X187275Y301188D01*
X187259Y301094D01*
X187238Y301000D01*
X187213Y300908D01*
X187185Y300817D01*
X187153Y300727D01*
X187118Y300638D01*
X187079Y300551D01*
X187036Y300465D01*
X186990Y300381D01*
X186940Y300300D01*
X186888Y300220D01*
X186832Y300142D01*
X186772Y300067D01*
X186710Y299995D01*
X186645Y299925D01*
X186577Y299857D01*
X186507Y299793D01*
X186434Y299731D01*
X186358Y299673D01*
X186280Y299617D01*
X186200Y299565D01*
X186118Y299516D01*
X186034Y299471D01*
X185948Y299429D01*
X185861Y299390D01*
X185772Y299355D01*
X185681Y299324D01*
X185590Y299297D01*
X185497Y299273D01*
X185404Y299253D01*
X185310Y299237D01*
X185215Y299225D01*
X185120Y299216D01*
X185024Y299212D01*
X184929Y299211D01*
X184928Y299212D02*
X184566Y299221D01*
X184204Y299239D01*
X183843Y299266D01*
X183483Y299301D01*
X183123Y299344D01*
X182764Y299396D01*
X182407Y299457D01*
X182052Y299526D01*
X181698Y299603D01*
X181346Y299689D01*
X180996Y299783D01*
X180648Y299886D01*
X180303Y299996D01*
X179961Y300115D01*
X203200Y292100D02*
X63500Y292100D01*
X203200Y292100D02*
X203200Y215900D01*
X63500Y215900D01*
X63500Y292100D01*
D11*
X76708Y280416D02*
X76708Y267208D01*
X80377Y267208D01*
X80470Y267210D01*
X80564Y267216D01*
X80657Y267226D01*
X80749Y267240D01*
X80841Y267257D01*
X80932Y267279D01*
X81021Y267304D01*
X81110Y267334D01*
X81198Y267367D01*
X81284Y267403D01*
X81368Y267444D01*
X81450Y267487D01*
X81531Y267535D01*
X81609Y267585D01*
X81686Y267639D01*
X81760Y267697D01*
X81831Y267757D01*
X81900Y267820D01*
X81966Y267886D01*
X82029Y267955D01*
X82089Y268026D01*
X82147Y268100D01*
X82201Y268176D01*
X82251Y268255D01*
X82298Y268336D01*
X82342Y268418D01*
X82383Y268502D01*
X82419Y268588D01*
X82452Y268676D01*
X82482Y268764D01*
X82507Y268854D01*
X82529Y268945D01*
X82546Y269037D01*
X82560Y269129D01*
X82570Y269222D01*
X82576Y269316D01*
X82578Y269409D01*
X82578Y273812D01*
X82576Y273903D01*
X82570Y273994D01*
X82561Y274084D01*
X82548Y274174D01*
X82531Y274264D01*
X82511Y274352D01*
X82486Y274440D01*
X82459Y274527D01*
X82427Y274612D01*
X82393Y274696D01*
X82354Y274779D01*
X82313Y274860D01*
X82268Y274939D01*
X82220Y275016D01*
X82168Y275091D01*
X82114Y275164D01*
X82057Y275235D01*
X81996Y275303D01*
X81933Y275368D01*
X81868Y275431D01*
X81800Y275492D01*
X81729Y275549D01*
X81656Y275603D01*
X81581Y275655D01*
X81504Y275703D01*
X81425Y275748D01*
X81344Y275789D01*
X81261Y275828D01*
X81177Y275862D01*
X81092Y275894D01*
X81005Y275921D01*
X80917Y275946D01*
X80829Y275966D01*
X80739Y275983D01*
X80649Y275996D01*
X80559Y276005D01*
X80468Y276011D01*
X80377Y276013D01*
X76708Y276013D01*
X87688Y276013D02*
X87688Y267208D01*
X87321Y279682D02*
X87321Y280416D01*
X88055Y280416D01*
X88055Y279682D01*
X87321Y279682D01*
X91790Y276013D02*
X96193Y276013D01*
X93257Y280416D02*
X93257Y269409D01*
X93258Y269409D02*
X93260Y269318D01*
X93266Y269227D01*
X93275Y269137D01*
X93288Y269047D01*
X93305Y268957D01*
X93325Y268869D01*
X93350Y268781D01*
X93377Y268694D01*
X93409Y268609D01*
X93443Y268525D01*
X93482Y268442D01*
X93523Y268361D01*
X93568Y268282D01*
X93616Y268205D01*
X93668Y268130D01*
X93722Y268057D01*
X93779Y267986D01*
X93840Y267918D01*
X93903Y267853D01*
X93968Y267790D01*
X94037Y267729D01*
X94107Y267672D01*
X94180Y267618D01*
X94255Y267566D01*
X94332Y267518D01*
X94411Y267473D01*
X94492Y267432D01*
X94575Y267393D01*
X94659Y267359D01*
X94744Y267327D01*
X94831Y267299D01*
X94919Y267275D01*
X95007Y267255D01*
X95097Y267238D01*
X95187Y267225D01*
X95277Y267216D01*
X95368Y267210D01*
X95459Y267208D01*
X96193Y267208D01*
X102069Y272344D02*
X105738Y270877D01*
X102069Y272344D02*
X101990Y272378D01*
X101912Y272416D01*
X101835Y272457D01*
X101761Y272501D01*
X101689Y272549D01*
X101619Y272600D01*
X101552Y272654D01*
X101487Y272711D01*
X101424Y272772D01*
X101365Y272834D01*
X101308Y272900D01*
X101255Y272968D01*
X101204Y273038D01*
X101157Y273111D01*
X101113Y273186D01*
X101073Y273262D01*
X101036Y273341D01*
X101003Y273420D01*
X100973Y273502D01*
X100947Y273584D01*
X100925Y273668D01*
X100907Y273753D01*
X100893Y273838D01*
X100882Y273924D01*
X100876Y274010D01*
X100873Y274097D01*
X100874Y274184D01*
X100880Y274270D01*
X100889Y274356D01*
X100902Y274442D01*
X100919Y274527D01*
X100940Y274611D01*
X100964Y274694D01*
X100993Y274775D01*
X101025Y274856D01*
X101060Y274935D01*
X101100Y275012D01*
X101142Y275087D01*
X101189Y275160D01*
X101238Y275232D01*
X101290Y275300D01*
X101346Y275367D01*
X101405Y275430D01*
X101466Y275491D01*
X101530Y275550D01*
X101597Y275605D01*
X101666Y275657D01*
X101738Y275706D01*
X101811Y275751D01*
X101887Y275793D01*
X101964Y275832D01*
X102043Y275867D01*
X102124Y275899D01*
X102206Y275927D01*
X102289Y275951D01*
X102373Y275971D01*
X102458Y275987D01*
X102544Y276000D01*
X102630Y276008D01*
X102717Y276013D01*
X102803Y276014D01*
X102803Y276013D02*
X103003Y276008D01*
X103203Y275998D01*
X103403Y275983D01*
X103603Y275963D01*
X103802Y275939D01*
X104000Y275909D01*
X104197Y275875D01*
X104394Y275837D01*
X104589Y275793D01*
X104784Y275745D01*
X104977Y275692D01*
X105169Y275635D01*
X105360Y275573D01*
X105549Y275506D01*
X105736Y275435D01*
X105921Y275359D01*
X106105Y275279D01*
X105738Y270877D02*
X105817Y270843D01*
X105895Y270805D01*
X105972Y270764D01*
X106046Y270720D01*
X106118Y270672D01*
X106188Y270621D01*
X106255Y270567D01*
X106320Y270510D01*
X106383Y270449D01*
X106442Y270387D01*
X106499Y270321D01*
X106552Y270253D01*
X106603Y270183D01*
X106650Y270110D01*
X106694Y270035D01*
X106734Y269959D01*
X106771Y269880D01*
X106804Y269801D01*
X106834Y269719D01*
X106860Y269637D01*
X106882Y269553D01*
X106900Y269468D01*
X106914Y269383D01*
X106925Y269297D01*
X106931Y269211D01*
X106934Y269124D01*
X106933Y269037D01*
X106927Y268951D01*
X106918Y268865D01*
X106905Y268779D01*
X106888Y268694D01*
X106867Y268610D01*
X106843Y268527D01*
X106814Y268446D01*
X106782Y268365D01*
X106747Y268286D01*
X106707Y268209D01*
X106665Y268134D01*
X106618Y268061D01*
X106569Y267989D01*
X106517Y267921D01*
X106461Y267854D01*
X106402Y267791D01*
X106341Y267730D01*
X106277Y267671D01*
X106210Y267616D01*
X106141Y267564D01*
X106069Y267515D01*
X105996Y267470D01*
X105920Y267428D01*
X105843Y267389D01*
X105764Y267354D01*
X105683Y267322D01*
X105601Y267294D01*
X105518Y267270D01*
X105434Y267250D01*
X105349Y267234D01*
X105263Y267221D01*
X105177Y267213D01*
X105090Y267208D01*
X105004Y267207D01*
X105004Y267208D02*
X104710Y267216D01*
X104416Y267231D01*
X104122Y267252D01*
X103829Y267281D01*
X103537Y267316D01*
X103246Y267359D01*
X102956Y267408D01*
X102667Y267464D01*
X102379Y267527D01*
X102093Y267596D01*
X101809Y267673D01*
X101527Y267756D01*
X101247Y267846D01*
X100968Y267942D01*
X117820Y276013D02*
X122222Y276013D01*
X119287Y280416D02*
X119287Y269409D01*
X119288Y269409D02*
X119290Y269318D01*
X119296Y269227D01*
X119305Y269137D01*
X119318Y269047D01*
X119335Y268957D01*
X119355Y268869D01*
X119380Y268781D01*
X119407Y268694D01*
X119439Y268609D01*
X119473Y268525D01*
X119512Y268442D01*
X119553Y268361D01*
X119598Y268282D01*
X119646Y268205D01*
X119698Y268130D01*
X119752Y268057D01*
X119809Y267986D01*
X119870Y267918D01*
X119933Y267853D01*
X119998Y267790D01*
X120067Y267729D01*
X120137Y267672D01*
X120210Y267618D01*
X120285Y267566D01*
X120362Y267518D01*
X120441Y267473D01*
X120522Y267432D01*
X120605Y267393D01*
X120689Y267359D01*
X120774Y267327D01*
X120861Y267299D01*
X120949Y267275D01*
X121037Y267255D01*
X121127Y267238D01*
X121217Y267225D01*
X121307Y267216D01*
X121398Y267210D01*
X121489Y267208D01*
X122222Y267208D01*
X126998Y270143D02*
X126998Y273078D01*
X127000Y273185D01*
X127006Y273292D01*
X127016Y273399D01*
X127029Y273505D01*
X127047Y273611D01*
X127068Y273716D01*
X127093Y273820D01*
X127122Y273924D01*
X127155Y274026D01*
X127192Y274126D01*
X127232Y274226D01*
X127276Y274324D01*
X127323Y274420D01*
X127374Y274514D01*
X127428Y274607D01*
X127485Y274697D01*
X127546Y274786D01*
X127610Y274872D01*
X127677Y274955D01*
X127747Y275037D01*
X127820Y275115D01*
X127896Y275191D01*
X127974Y275264D01*
X128056Y275334D01*
X128139Y275401D01*
X128225Y275465D01*
X128314Y275526D01*
X128404Y275583D01*
X128497Y275637D01*
X128591Y275688D01*
X128687Y275735D01*
X128785Y275779D01*
X128885Y275819D01*
X128985Y275856D01*
X129087Y275889D01*
X129191Y275918D01*
X129295Y275943D01*
X129400Y275964D01*
X129506Y275982D01*
X129612Y275995D01*
X129719Y276005D01*
X129826Y276011D01*
X129933Y276013D01*
X130040Y276011D01*
X130147Y276005D01*
X130254Y275995D01*
X130360Y275982D01*
X130466Y275964D01*
X130571Y275943D01*
X130675Y275918D01*
X130779Y275889D01*
X130881Y275856D01*
X130981Y275819D01*
X131081Y275779D01*
X131179Y275735D01*
X131275Y275688D01*
X131369Y275637D01*
X131462Y275583D01*
X131552Y275526D01*
X131641Y275465D01*
X131727Y275401D01*
X131810Y275334D01*
X131892Y275264D01*
X131970Y275191D01*
X132046Y275115D01*
X132119Y275037D01*
X132189Y274955D01*
X132256Y274872D01*
X132320Y274786D01*
X132381Y274697D01*
X132438Y274607D01*
X132492Y274514D01*
X132543Y274420D01*
X132590Y274324D01*
X132634Y274226D01*
X132674Y274126D01*
X132711Y274026D01*
X132744Y273924D01*
X132773Y273820D01*
X132798Y273716D01*
X132819Y273611D01*
X132837Y273505D01*
X132850Y273399D01*
X132860Y273292D01*
X132866Y273185D01*
X132868Y273078D01*
X132869Y273078D02*
X132869Y270143D01*
X132868Y270143D02*
X132866Y270036D01*
X132860Y269929D01*
X132850Y269822D01*
X132837Y269716D01*
X132819Y269610D01*
X132798Y269505D01*
X132773Y269401D01*
X132744Y269297D01*
X132711Y269195D01*
X132674Y269095D01*
X132634Y268995D01*
X132590Y268897D01*
X132543Y268801D01*
X132492Y268707D01*
X132438Y268614D01*
X132381Y268524D01*
X132320Y268435D01*
X132256Y268349D01*
X132189Y268266D01*
X132119Y268184D01*
X132046Y268106D01*
X131970Y268030D01*
X131892Y267957D01*
X131810Y267887D01*
X131727Y267820D01*
X131641Y267756D01*
X131552Y267695D01*
X131462Y267638D01*
X131369Y267584D01*
X131275Y267533D01*
X131179Y267486D01*
X131081Y267442D01*
X130981Y267402D01*
X130881Y267365D01*
X130779Y267332D01*
X130675Y267303D01*
X130571Y267278D01*
X130466Y267257D01*
X130360Y267239D01*
X130254Y267226D01*
X130147Y267216D01*
X130040Y267210D01*
X129933Y267208D01*
X129826Y267210D01*
X129719Y267216D01*
X129612Y267226D01*
X129506Y267239D01*
X129400Y267257D01*
X129295Y267278D01*
X129191Y267303D01*
X129087Y267332D01*
X128985Y267365D01*
X128885Y267402D01*
X128785Y267442D01*
X128687Y267486D01*
X128591Y267533D01*
X128497Y267584D01*
X128404Y267638D01*
X128314Y267695D01*
X128225Y267756D01*
X128139Y267820D01*
X128056Y267887D01*
X127974Y267957D01*
X127896Y268030D01*
X127820Y268106D01*
X127747Y268184D01*
X127677Y268266D01*
X127610Y268349D01*
X127546Y268435D01*
X127485Y268524D01*
X127428Y268614D01*
X127374Y268707D01*
X127323Y268801D01*
X127276Y268897D01*
X127232Y268995D01*
X127192Y269095D01*
X127155Y269195D01*
X127122Y269297D01*
X127093Y269401D01*
X127068Y269505D01*
X127047Y269610D01*
X127029Y269716D01*
X127016Y269822D01*
X127006Y269929D01*
X127000Y270036D01*
X126998Y270143D01*
X144494Y276013D02*
X147429Y267208D01*
X150364Y276013D01*
X157363Y267208D02*
X161032Y267208D01*
X157363Y267208D02*
X157272Y267210D01*
X157181Y267216D01*
X157091Y267225D01*
X157001Y267238D01*
X156911Y267255D01*
X156823Y267275D01*
X156735Y267300D01*
X156648Y267327D01*
X156563Y267359D01*
X156479Y267393D01*
X156396Y267432D01*
X156315Y267473D01*
X156236Y267518D01*
X156159Y267566D01*
X156084Y267618D01*
X156011Y267672D01*
X155940Y267729D01*
X155872Y267790D01*
X155807Y267853D01*
X155744Y267918D01*
X155683Y267986D01*
X155626Y268057D01*
X155572Y268130D01*
X155520Y268205D01*
X155472Y268282D01*
X155427Y268361D01*
X155386Y268442D01*
X155347Y268525D01*
X155313Y268609D01*
X155281Y268694D01*
X155254Y268781D01*
X155229Y268869D01*
X155209Y268957D01*
X155192Y269047D01*
X155179Y269137D01*
X155170Y269227D01*
X155164Y269318D01*
X155162Y269409D01*
X155162Y273078D01*
X155164Y273185D01*
X155170Y273292D01*
X155180Y273399D01*
X155193Y273505D01*
X155211Y273611D01*
X155232Y273716D01*
X155257Y273820D01*
X155286Y273924D01*
X155319Y274026D01*
X155356Y274126D01*
X155396Y274226D01*
X155440Y274324D01*
X155487Y274420D01*
X155538Y274514D01*
X155592Y274607D01*
X155649Y274697D01*
X155710Y274786D01*
X155774Y274872D01*
X155841Y274955D01*
X155911Y275037D01*
X155984Y275115D01*
X156060Y275191D01*
X156138Y275264D01*
X156220Y275334D01*
X156303Y275401D01*
X156389Y275465D01*
X156478Y275526D01*
X156568Y275583D01*
X156661Y275637D01*
X156755Y275688D01*
X156851Y275735D01*
X156949Y275779D01*
X157049Y275819D01*
X157149Y275856D01*
X157251Y275889D01*
X157355Y275918D01*
X157459Y275943D01*
X157564Y275964D01*
X157670Y275982D01*
X157776Y275995D01*
X157883Y276005D01*
X157990Y276011D01*
X158097Y276013D01*
X158204Y276011D01*
X158311Y276005D01*
X158418Y275995D01*
X158524Y275982D01*
X158630Y275964D01*
X158735Y275943D01*
X158839Y275918D01*
X158943Y275889D01*
X159045Y275856D01*
X159145Y275819D01*
X159245Y275779D01*
X159343Y275735D01*
X159439Y275688D01*
X159533Y275637D01*
X159626Y275583D01*
X159716Y275526D01*
X159805Y275465D01*
X159891Y275401D01*
X159974Y275334D01*
X160056Y275264D01*
X160134Y275191D01*
X160210Y275115D01*
X160283Y275037D01*
X160353Y274955D01*
X160420Y274872D01*
X160484Y274786D01*
X160545Y274697D01*
X160602Y274607D01*
X160656Y274514D01*
X160707Y274420D01*
X160754Y274324D01*
X160798Y274226D01*
X160838Y274126D01*
X160875Y274026D01*
X160908Y273924D01*
X160937Y273820D01*
X160962Y273716D01*
X160983Y273611D01*
X161001Y273505D01*
X161014Y273399D01*
X161024Y273292D01*
X161030Y273185D01*
X161032Y273078D01*
X161032Y271611D01*
X155162Y271611D01*
X168472Y267208D02*
X171407Y267208D01*
X168472Y267208D02*
X168381Y267210D01*
X168290Y267216D01*
X168200Y267225D01*
X168110Y267238D01*
X168020Y267255D01*
X167932Y267275D01*
X167844Y267300D01*
X167757Y267327D01*
X167672Y267359D01*
X167588Y267393D01*
X167505Y267432D01*
X167424Y267473D01*
X167345Y267518D01*
X167268Y267566D01*
X167193Y267618D01*
X167120Y267672D01*
X167049Y267729D01*
X166981Y267790D01*
X166916Y267853D01*
X166853Y267918D01*
X166792Y267986D01*
X166735Y268057D01*
X166681Y268130D01*
X166629Y268205D01*
X166581Y268282D01*
X166536Y268361D01*
X166495Y268442D01*
X166456Y268525D01*
X166422Y268609D01*
X166390Y268694D01*
X166363Y268781D01*
X166338Y268869D01*
X166318Y268957D01*
X166301Y269047D01*
X166288Y269137D01*
X166279Y269227D01*
X166273Y269318D01*
X166271Y269409D01*
X166271Y273812D01*
X166273Y273903D01*
X166279Y273994D01*
X166288Y274084D01*
X166301Y274174D01*
X166318Y274264D01*
X166338Y274352D01*
X166363Y274440D01*
X166390Y274527D01*
X166422Y274612D01*
X166456Y274696D01*
X166495Y274779D01*
X166536Y274860D01*
X166581Y274939D01*
X166629Y275016D01*
X166681Y275091D01*
X166735Y275164D01*
X166792Y275235D01*
X166853Y275303D01*
X166916Y275368D01*
X166981Y275431D01*
X167049Y275492D01*
X167120Y275549D01*
X167193Y275603D01*
X167268Y275655D01*
X167345Y275703D01*
X167424Y275748D01*
X167505Y275789D01*
X167588Y275828D01*
X167672Y275862D01*
X167757Y275894D01*
X167844Y275921D01*
X167932Y275946D01*
X168020Y275966D01*
X168110Y275983D01*
X168200Y275996D01*
X168290Y276005D01*
X168381Y276011D01*
X168472Y276013D01*
X171407Y276013D01*
X175000Y276013D02*
X179403Y276013D01*
X176468Y280416D02*
X176468Y269409D01*
X176470Y269318D01*
X176476Y269227D01*
X176485Y269137D01*
X176498Y269047D01*
X176515Y268957D01*
X176535Y268869D01*
X176560Y268781D01*
X176587Y268694D01*
X176619Y268609D01*
X176653Y268525D01*
X176692Y268442D01*
X176733Y268361D01*
X176778Y268282D01*
X176826Y268205D01*
X176878Y268130D01*
X176932Y268057D01*
X176989Y267986D01*
X177050Y267918D01*
X177113Y267853D01*
X177178Y267790D01*
X177247Y267729D01*
X177317Y267672D01*
X177390Y267618D01*
X177465Y267566D01*
X177542Y267518D01*
X177621Y267473D01*
X177702Y267432D01*
X177785Y267393D01*
X177869Y267359D01*
X177954Y267327D01*
X178041Y267299D01*
X178129Y267275D01*
X178217Y267255D01*
X178307Y267238D01*
X178397Y267225D01*
X178487Y267216D01*
X178578Y267210D01*
X178669Y267208D01*
X179403Y267208D01*
X184676Y267208D02*
X184676Y276013D01*
X189079Y276013D01*
X189079Y274546D01*
X195341Y267208D02*
X199010Y267208D01*
X195341Y267208D02*
X195250Y267210D01*
X195159Y267216D01*
X195069Y267225D01*
X194979Y267238D01*
X194889Y267255D01*
X194801Y267275D01*
X194713Y267300D01*
X194626Y267327D01*
X194541Y267359D01*
X194457Y267393D01*
X194374Y267432D01*
X194293Y267473D01*
X194214Y267518D01*
X194137Y267566D01*
X194062Y267618D01*
X193989Y267672D01*
X193918Y267729D01*
X193850Y267790D01*
X193785Y267853D01*
X193722Y267918D01*
X193661Y267986D01*
X193604Y268057D01*
X193550Y268130D01*
X193498Y268205D01*
X193450Y268282D01*
X193405Y268361D01*
X193364Y268442D01*
X193325Y268525D01*
X193291Y268609D01*
X193259Y268694D01*
X193232Y268781D01*
X193207Y268869D01*
X193187Y268957D01*
X193170Y269047D01*
X193157Y269137D01*
X193148Y269227D01*
X193142Y269318D01*
X193140Y269409D01*
X193140Y273078D01*
X193142Y273185D01*
X193148Y273292D01*
X193158Y273399D01*
X193171Y273505D01*
X193189Y273611D01*
X193210Y273716D01*
X193235Y273820D01*
X193264Y273924D01*
X193297Y274026D01*
X193334Y274126D01*
X193374Y274226D01*
X193418Y274324D01*
X193465Y274420D01*
X193516Y274514D01*
X193570Y274607D01*
X193627Y274697D01*
X193688Y274786D01*
X193752Y274872D01*
X193819Y274955D01*
X193889Y275037D01*
X193962Y275115D01*
X194038Y275191D01*
X194116Y275264D01*
X194198Y275334D01*
X194281Y275401D01*
X194367Y275465D01*
X194456Y275526D01*
X194546Y275583D01*
X194639Y275637D01*
X194733Y275688D01*
X194829Y275735D01*
X194927Y275779D01*
X195027Y275819D01*
X195127Y275856D01*
X195229Y275889D01*
X195333Y275918D01*
X195437Y275943D01*
X195542Y275964D01*
X195648Y275982D01*
X195754Y275995D01*
X195861Y276005D01*
X195968Y276011D01*
X196075Y276013D01*
X196182Y276011D01*
X196289Y276005D01*
X196396Y275995D01*
X196502Y275982D01*
X196608Y275964D01*
X196713Y275943D01*
X196817Y275918D01*
X196921Y275889D01*
X197023Y275856D01*
X197123Y275819D01*
X197223Y275779D01*
X197321Y275735D01*
X197417Y275688D01*
X197511Y275637D01*
X197604Y275583D01*
X197694Y275526D01*
X197783Y275465D01*
X197869Y275401D01*
X197952Y275334D01*
X198034Y275264D01*
X198112Y275191D01*
X198188Y275115D01*
X198261Y275037D01*
X198331Y274955D01*
X198398Y274872D01*
X198462Y274786D01*
X198523Y274697D01*
X198580Y274607D01*
X198634Y274514D01*
X198685Y274420D01*
X198732Y274324D01*
X198776Y274226D01*
X198816Y274126D01*
X198853Y274026D01*
X198886Y273924D01*
X198915Y273820D01*
X198940Y273716D01*
X198961Y273611D01*
X198979Y273505D01*
X198992Y273399D01*
X199002Y273292D01*
X199008Y273185D01*
X199010Y273078D01*
X199010Y271611D01*
X193140Y271611D01*
X203808Y267208D02*
X209678Y276013D01*
X203808Y276013D02*
X209678Y267208D01*
X76228Y242316D02*
X76228Y229108D01*
X72559Y229108D01*
X72468Y229110D01*
X72377Y229116D01*
X72287Y229125D01*
X72197Y229138D01*
X72107Y229155D01*
X72019Y229175D01*
X71931Y229200D01*
X71844Y229227D01*
X71759Y229259D01*
X71675Y229293D01*
X71592Y229332D01*
X71511Y229373D01*
X71432Y229418D01*
X71355Y229466D01*
X71280Y229518D01*
X71207Y229572D01*
X71136Y229629D01*
X71068Y229690D01*
X71003Y229753D01*
X70940Y229818D01*
X70879Y229886D01*
X70822Y229957D01*
X70768Y230030D01*
X70716Y230105D01*
X70668Y230182D01*
X70623Y230261D01*
X70582Y230342D01*
X70543Y230425D01*
X70509Y230509D01*
X70477Y230594D01*
X70450Y230681D01*
X70425Y230769D01*
X70405Y230857D01*
X70388Y230947D01*
X70375Y231037D01*
X70366Y231127D01*
X70360Y231218D01*
X70358Y231309D01*
X70358Y235712D01*
X70360Y235803D01*
X70366Y235894D01*
X70375Y235984D01*
X70388Y236074D01*
X70405Y236164D01*
X70425Y236252D01*
X70450Y236340D01*
X70477Y236427D01*
X70509Y236512D01*
X70543Y236596D01*
X70582Y236679D01*
X70623Y236760D01*
X70668Y236839D01*
X70716Y236916D01*
X70768Y236991D01*
X70822Y237064D01*
X70879Y237135D01*
X70940Y237203D01*
X71003Y237268D01*
X71068Y237331D01*
X71136Y237392D01*
X71207Y237449D01*
X71280Y237503D01*
X71355Y237555D01*
X71432Y237603D01*
X71511Y237648D01*
X71592Y237689D01*
X71675Y237728D01*
X71759Y237762D01*
X71844Y237794D01*
X71931Y237821D01*
X72019Y237846D01*
X72107Y237866D01*
X72197Y237883D01*
X72287Y237896D01*
X72377Y237905D01*
X72468Y237911D01*
X72559Y237913D01*
X76228Y237913D01*
X81890Y237913D02*
X81890Y229108D01*
X81523Y241582D02*
X81523Y242316D01*
X82257Y242316D01*
X82257Y241582D01*
X81523Y241582D01*
X87552Y237913D02*
X87552Y224705D01*
X87552Y237913D02*
X91221Y237913D01*
X91314Y237911D01*
X91408Y237905D01*
X91501Y237895D01*
X91593Y237881D01*
X91685Y237864D01*
X91776Y237842D01*
X91865Y237817D01*
X91954Y237787D01*
X92042Y237754D01*
X92128Y237718D01*
X92212Y237677D01*
X92294Y237634D01*
X92375Y237586D01*
X92453Y237536D01*
X92530Y237482D01*
X92604Y237424D01*
X92675Y237364D01*
X92744Y237301D01*
X92810Y237235D01*
X92873Y237166D01*
X92933Y237095D01*
X92991Y237021D01*
X93045Y236945D01*
X93095Y236866D01*
X93142Y236785D01*
X93186Y236703D01*
X93227Y236619D01*
X93263Y236533D01*
X93296Y236445D01*
X93326Y236357D01*
X93351Y236267D01*
X93373Y236176D01*
X93390Y236084D01*
X93404Y235992D01*
X93414Y235899D01*
X93420Y235805D01*
X93422Y235712D01*
X93422Y231309D01*
X93420Y231218D01*
X93414Y231127D01*
X93405Y231037D01*
X93392Y230947D01*
X93375Y230857D01*
X93355Y230769D01*
X93330Y230681D01*
X93303Y230594D01*
X93271Y230509D01*
X93237Y230425D01*
X93198Y230342D01*
X93157Y230261D01*
X93112Y230182D01*
X93064Y230105D01*
X93012Y230030D01*
X92958Y229957D01*
X92901Y229886D01*
X92840Y229818D01*
X92777Y229753D01*
X92712Y229690D01*
X92644Y229629D01*
X92573Y229572D01*
X92500Y229518D01*
X92425Y229466D01*
X92348Y229418D01*
X92269Y229373D01*
X92188Y229332D01*
X92105Y229293D01*
X92021Y229259D01*
X91936Y229227D01*
X91849Y229200D01*
X91761Y229175D01*
X91673Y229155D01*
X91583Y229138D01*
X91493Y229125D01*
X91403Y229116D01*
X91312Y229110D01*
X91221Y229108D01*
X87552Y229108D01*
X99685Y234244D02*
X103353Y232777D01*
X99684Y234244D02*
X99605Y234278D01*
X99527Y234316D01*
X99450Y234357D01*
X99376Y234401D01*
X99304Y234449D01*
X99234Y234500D01*
X99167Y234554D01*
X99102Y234611D01*
X99039Y234672D01*
X98980Y234734D01*
X98923Y234800D01*
X98870Y234868D01*
X98819Y234938D01*
X98772Y235011D01*
X98728Y235086D01*
X98688Y235162D01*
X98651Y235241D01*
X98618Y235320D01*
X98588Y235402D01*
X98562Y235484D01*
X98540Y235568D01*
X98522Y235653D01*
X98508Y235738D01*
X98497Y235824D01*
X98491Y235910D01*
X98488Y235997D01*
X98489Y236084D01*
X98495Y236170D01*
X98504Y236256D01*
X98517Y236342D01*
X98534Y236427D01*
X98555Y236511D01*
X98579Y236594D01*
X98608Y236675D01*
X98640Y236756D01*
X98675Y236835D01*
X98715Y236912D01*
X98757Y236987D01*
X98804Y237060D01*
X98853Y237132D01*
X98905Y237200D01*
X98961Y237267D01*
X99020Y237330D01*
X99081Y237391D01*
X99145Y237450D01*
X99212Y237505D01*
X99281Y237557D01*
X99353Y237606D01*
X99426Y237651D01*
X99502Y237693D01*
X99579Y237732D01*
X99658Y237767D01*
X99739Y237799D01*
X99821Y237827D01*
X99904Y237851D01*
X99988Y237871D01*
X100073Y237887D01*
X100159Y237900D01*
X100245Y237908D01*
X100332Y237913D01*
X100418Y237914D01*
X100418Y237913D02*
X100618Y237908D01*
X100818Y237898D01*
X101018Y237883D01*
X101218Y237863D01*
X101417Y237839D01*
X101615Y237809D01*
X101812Y237775D01*
X102009Y237737D01*
X102204Y237693D01*
X102399Y237645D01*
X102592Y237592D01*
X102784Y237535D01*
X102975Y237473D01*
X103164Y237406D01*
X103351Y237335D01*
X103536Y237259D01*
X103720Y237179D01*
X103354Y232777D02*
X103433Y232743D01*
X103511Y232705D01*
X103588Y232664D01*
X103662Y232620D01*
X103734Y232572D01*
X103804Y232521D01*
X103871Y232467D01*
X103936Y232410D01*
X103999Y232349D01*
X104058Y232287D01*
X104115Y232221D01*
X104168Y232153D01*
X104219Y232083D01*
X104266Y232010D01*
X104310Y231935D01*
X104350Y231859D01*
X104387Y231780D01*
X104420Y231701D01*
X104450Y231619D01*
X104476Y231537D01*
X104498Y231453D01*
X104516Y231368D01*
X104530Y231283D01*
X104541Y231197D01*
X104547Y231111D01*
X104550Y231024D01*
X104549Y230937D01*
X104543Y230851D01*
X104534Y230765D01*
X104521Y230679D01*
X104504Y230594D01*
X104483Y230510D01*
X104459Y230427D01*
X104430Y230346D01*
X104398Y230265D01*
X104363Y230186D01*
X104323Y230109D01*
X104281Y230034D01*
X104234Y229961D01*
X104185Y229889D01*
X104133Y229821D01*
X104077Y229754D01*
X104018Y229691D01*
X103957Y229630D01*
X103893Y229571D01*
X103826Y229516D01*
X103757Y229464D01*
X103685Y229415D01*
X103612Y229370D01*
X103536Y229328D01*
X103459Y229289D01*
X103380Y229254D01*
X103299Y229222D01*
X103217Y229194D01*
X103134Y229170D01*
X103050Y229150D01*
X102965Y229134D01*
X102879Y229121D01*
X102793Y229113D01*
X102706Y229108D01*
X102620Y229107D01*
X102620Y229108D02*
X102326Y229116D01*
X102032Y229131D01*
X101738Y229152D01*
X101445Y229181D01*
X101153Y229216D01*
X100862Y229259D01*
X100572Y229308D01*
X100283Y229364D01*
X99995Y229427D01*
X99709Y229496D01*
X99425Y229573D01*
X99143Y229656D01*
X98863Y229746D01*
X98584Y229842D01*
X111693Y229108D02*
X109491Y237913D01*
X113894Y234978D02*
X111693Y229108D01*
X116095Y229108D02*
X113894Y234978D01*
X118297Y237913D02*
X116095Y229108D01*
X129090Y237913D02*
X133493Y237913D01*
X130558Y242316D02*
X130558Y231309D01*
X130560Y231218D01*
X130566Y231127D01*
X130575Y231037D01*
X130588Y230947D01*
X130605Y230857D01*
X130625Y230769D01*
X130650Y230681D01*
X130677Y230594D01*
X130709Y230509D01*
X130743Y230425D01*
X130782Y230342D01*
X130823Y230261D01*
X130868Y230182D01*
X130916Y230105D01*
X130968Y230030D01*
X131022Y229957D01*
X131079Y229886D01*
X131140Y229818D01*
X131203Y229753D01*
X131268Y229690D01*
X131337Y229629D01*
X131407Y229572D01*
X131480Y229518D01*
X131555Y229466D01*
X131632Y229418D01*
X131711Y229373D01*
X131792Y229332D01*
X131875Y229293D01*
X131959Y229259D01*
X132044Y229227D01*
X132131Y229199D01*
X132219Y229175D01*
X132307Y229155D01*
X132397Y229138D01*
X132487Y229125D01*
X132577Y229116D01*
X132668Y229110D01*
X132759Y229108D01*
X133493Y229108D01*
X138269Y232043D02*
X138269Y234978D01*
X138271Y235085D01*
X138277Y235192D01*
X138287Y235299D01*
X138300Y235405D01*
X138318Y235511D01*
X138339Y235616D01*
X138364Y235720D01*
X138393Y235824D01*
X138426Y235926D01*
X138463Y236026D01*
X138503Y236126D01*
X138547Y236224D01*
X138594Y236320D01*
X138645Y236414D01*
X138699Y236507D01*
X138756Y236597D01*
X138817Y236686D01*
X138881Y236772D01*
X138948Y236855D01*
X139018Y236937D01*
X139091Y237015D01*
X139167Y237091D01*
X139245Y237164D01*
X139327Y237234D01*
X139410Y237301D01*
X139496Y237365D01*
X139585Y237426D01*
X139675Y237483D01*
X139768Y237537D01*
X139862Y237588D01*
X139958Y237635D01*
X140056Y237679D01*
X140156Y237719D01*
X140256Y237756D01*
X140358Y237789D01*
X140462Y237818D01*
X140566Y237843D01*
X140671Y237864D01*
X140777Y237882D01*
X140883Y237895D01*
X140990Y237905D01*
X141097Y237911D01*
X141204Y237913D01*
X141311Y237911D01*
X141418Y237905D01*
X141525Y237895D01*
X141631Y237882D01*
X141737Y237864D01*
X141842Y237843D01*
X141946Y237818D01*
X142050Y237789D01*
X142152Y237756D01*
X142252Y237719D01*
X142352Y237679D01*
X142450Y237635D01*
X142546Y237588D01*
X142640Y237537D01*
X142733Y237483D01*
X142823Y237426D01*
X142912Y237365D01*
X142998Y237301D01*
X143081Y237234D01*
X143163Y237164D01*
X143241Y237091D01*
X143317Y237015D01*
X143390Y236937D01*
X143460Y236855D01*
X143527Y236772D01*
X143591Y236686D01*
X143652Y236597D01*
X143709Y236507D01*
X143763Y236414D01*
X143814Y236320D01*
X143861Y236224D01*
X143905Y236126D01*
X143945Y236026D01*
X143982Y235926D01*
X144015Y235824D01*
X144044Y235720D01*
X144069Y235616D01*
X144090Y235511D01*
X144108Y235405D01*
X144121Y235299D01*
X144131Y235192D01*
X144137Y235085D01*
X144139Y234978D01*
X144139Y232043D01*
X144137Y231936D01*
X144131Y231829D01*
X144121Y231722D01*
X144108Y231616D01*
X144090Y231510D01*
X144069Y231405D01*
X144044Y231301D01*
X144015Y231197D01*
X143982Y231095D01*
X143945Y230995D01*
X143905Y230895D01*
X143861Y230797D01*
X143814Y230701D01*
X143763Y230607D01*
X143709Y230514D01*
X143652Y230424D01*
X143591Y230335D01*
X143527Y230249D01*
X143460Y230166D01*
X143390Y230084D01*
X143317Y230006D01*
X143241Y229930D01*
X143163Y229857D01*
X143081Y229787D01*
X142998Y229720D01*
X142912Y229656D01*
X142823Y229595D01*
X142733Y229538D01*
X142640Y229484D01*
X142546Y229433D01*
X142450Y229386D01*
X142352Y229342D01*
X142252Y229302D01*
X142152Y229265D01*
X142050Y229232D01*
X141946Y229203D01*
X141842Y229178D01*
X141737Y229157D01*
X141631Y229139D01*
X141525Y229126D01*
X141418Y229116D01*
X141311Y229110D01*
X141204Y229108D01*
X141097Y229110D01*
X140990Y229116D01*
X140883Y229126D01*
X140777Y229139D01*
X140671Y229157D01*
X140566Y229178D01*
X140462Y229203D01*
X140358Y229232D01*
X140256Y229265D01*
X140156Y229302D01*
X140056Y229342D01*
X139958Y229386D01*
X139862Y229433D01*
X139768Y229484D01*
X139675Y229538D01*
X139585Y229595D01*
X139496Y229656D01*
X139410Y229720D01*
X139327Y229787D01*
X139245Y229857D01*
X139167Y229930D01*
X139091Y230006D01*
X139018Y230084D01*
X138948Y230166D01*
X138881Y230249D01*
X138817Y230335D01*
X138756Y230424D01*
X138699Y230514D01*
X138645Y230607D01*
X138594Y230701D01*
X138547Y230797D01*
X138503Y230895D01*
X138463Y230995D01*
X138426Y231095D01*
X138393Y231197D01*
X138364Y231301D01*
X138339Y231405D01*
X138318Y231510D01*
X138300Y231616D01*
X138287Y231722D01*
X138277Y231829D01*
X138271Y231936D01*
X138269Y232043D01*
X158392Y229108D02*
X162061Y229108D01*
X158392Y229108D02*
X158301Y229110D01*
X158210Y229116D01*
X158120Y229125D01*
X158030Y229138D01*
X157940Y229155D01*
X157852Y229175D01*
X157764Y229200D01*
X157677Y229227D01*
X157592Y229259D01*
X157508Y229293D01*
X157425Y229332D01*
X157344Y229373D01*
X157265Y229418D01*
X157188Y229466D01*
X157113Y229518D01*
X157040Y229572D01*
X156969Y229629D01*
X156901Y229690D01*
X156836Y229753D01*
X156773Y229818D01*
X156712Y229886D01*
X156655Y229957D01*
X156601Y230030D01*
X156549Y230105D01*
X156501Y230182D01*
X156456Y230261D01*
X156415Y230342D01*
X156376Y230425D01*
X156342Y230509D01*
X156310Y230594D01*
X156283Y230681D01*
X156258Y230769D01*
X156238Y230857D01*
X156221Y230947D01*
X156208Y231037D01*
X156199Y231127D01*
X156193Y231218D01*
X156191Y231309D01*
X156191Y234978D01*
X156193Y235085D01*
X156199Y235192D01*
X156209Y235299D01*
X156222Y235405D01*
X156240Y235511D01*
X156261Y235616D01*
X156286Y235720D01*
X156315Y235824D01*
X156348Y235926D01*
X156385Y236026D01*
X156425Y236126D01*
X156469Y236224D01*
X156516Y236320D01*
X156567Y236414D01*
X156621Y236507D01*
X156678Y236597D01*
X156739Y236686D01*
X156803Y236772D01*
X156870Y236855D01*
X156940Y236937D01*
X157013Y237015D01*
X157089Y237091D01*
X157167Y237164D01*
X157249Y237234D01*
X157332Y237301D01*
X157418Y237365D01*
X157507Y237426D01*
X157597Y237483D01*
X157690Y237537D01*
X157784Y237588D01*
X157880Y237635D01*
X157978Y237679D01*
X158078Y237719D01*
X158178Y237756D01*
X158280Y237789D01*
X158384Y237818D01*
X158488Y237843D01*
X158593Y237864D01*
X158699Y237882D01*
X158805Y237895D01*
X158912Y237905D01*
X159019Y237911D01*
X159126Y237913D01*
X159233Y237911D01*
X159340Y237905D01*
X159447Y237895D01*
X159553Y237882D01*
X159659Y237864D01*
X159764Y237843D01*
X159868Y237818D01*
X159972Y237789D01*
X160074Y237756D01*
X160174Y237719D01*
X160274Y237679D01*
X160372Y237635D01*
X160468Y237588D01*
X160562Y237537D01*
X160655Y237483D01*
X160745Y237426D01*
X160834Y237365D01*
X160920Y237301D01*
X161003Y237234D01*
X161085Y237164D01*
X161163Y237091D01*
X161239Y237015D01*
X161312Y236937D01*
X161382Y236855D01*
X161449Y236772D01*
X161513Y236686D01*
X161574Y236597D01*
X161631Y236507D01*
X161685Y236414D01*
X161736Y236320D01*
X161783Y236224D01*
X161827Y236126D01*
X161867Y236026D01*
X161904Y235926D01*
X161937Y235824D01*
X161966Y235720D01*
X161991Y235616D01*
X162012Y235511D01*
X162030Y235405D01*
X162043Y235299D01*
X162053Y235192D01*
X162059Y235085D01*
X162061Y234978D01*
X162061Y233511D01*
X156191Y233511D01*
X167775Y237913D02*
X167775Y224705D01*
X167775Y237913D02*
X171444Y237913D01*
X171537Y237911D01*
X171631Y237905D01*
X171724Y237895D01*
X171816Y237881D01*
X171908Y237864D01*
X171999Y237842D01*
X172088Y237817D01*
X172177Y237787D01*
X172265Y237754D01*
X172351Y237718D01*
X172435Y237677D01*
X172517Y237634D01*
X172598Y237586D01*
X172676Y237536D01*
X172753Y237482D01*
X172827Y237424D01*
X172898Y237364D01*
X172967Y237301D01*
X173033Y237235D01*
X173096Y237166D01*
X173156Y237095D01*
X173214Y237021D01*
X173268Y236945D01*
X173318Y236866D01*
X173365Y236785D01*
X173409Y236703D01*
X173450Y236619D01*
X173486Y236533D01*
X173519Y236445D01*
X173549Y236357D01*
X173574Y236267D01*
X173596Y236176D01*
X173613Y236084D01*
X173627Y235992D01*
X173637Y235899D01*
X173643Y235805D01*
X173645Y235712D01*
X173645Y231309D01*
X173643Y231218D01*
X173637Y231127D01*
X173628Y231037D01*
X173615Y230947D01*
X173598Y230857D01*
X173578Y230769D01*
X173553Y230681D01*
X173526Y230594D01*
X173494Y230509D01*
X173460Y230425D01*
X173421Y230342D01*
X173380Y230261D01*
X173335Y230182D01*
X173287Y230105D01*
X173235Y230030D01*
X173181Y229957D01*
X173124Y229886D01*
X173063Y229818D01*
X173000Y229753D01*
X172935Y229690D01*
X172867Y229629D01*
X172796Y229572D01*
X172723Y229518D01*
X172648Y229466D01*
X172571Y229418D01*
X172492Y229373D01*
X172411Y229332D01*
X172328Y229293D01*
X172244Y229259D01*
X172159Y229227D01*
X172072Y229200D01*
X171984Y229175D01*
X171896Y229155D01*
X171806Y229138D01*
X171716Y229125D01*
X171626Y229116D01*
X171535Y229110D01*
X171444Y229108D01*
X167775Y229108D01*
X179304Y229108D02*
X179304Y237913D01*
X183707Y237913D01*
X183707Y236446D01*
X187768Y234978D02*
X187768Y232043D01*
X187768Y234978D02*
X187770Y235085D01*
X187776Y235192D01*
X187786Y235299D01*
X187799Y235405D01*
X187817Y235511D01*
X187838Y235616D01*
X187863Y235720D01*
X187892Y235824D01*
X187925Y235926D01*
X187962Y236026D01*
X188002Y236126D01*
X188046Y236224D01*
X188093Y236320D01*
X188144Y236414D01*
X188198Y236507D01*
X188255Y236597D01*
X188316Y236686D01*
X188380Y236772D01*
X188447Y236855D01*
X188517Y236937D01*
X188590Y237015D01*
X188666Y237091D01*
X188744Y237164D01*
X188826Y237234D01*
X188909Y237301D01*
X188995Y237365D01*
X189084Y237426D01*
X189174Y237483D01*
X189267Y237537D01*
X189361Y237588D01*
X189457Y237635D01*
X189555Y237679D01*
X189655Y237719D01*
X189755Y237756D01*
X189857Y237789D01*
X189961Y237818D01*
X190065Y237843D01*
X190170Y237864D01*
X190276Y237882D01*
X190382Y237895D01*
X190489Y237905D01*
X190596Y237911D01*
X190703Y237913D01*
X190810Y237911D01*
X190917Y237905D01*
X191024Y237895D01*
X191130Y237882D01*
X191236Y237864D01*
X191341Y237843D01*
X191445Y237818D01*
X191549Y237789D01*
X191651Y237756D01*
X191751Y237719D01*
X191851Y237679D01*
X191949Y237635D01*
X192045Y237588D01*
X192139Y237537D01*
X192232Y237483D01*
X192322Y237426D01*
X192411Y237365D01*
X192497Y237301D01*
X192580Y237234D01*
X192662Y237164D01*
X192740Y237091D01*
X192816Y237015D01*
X192889Y236937D01*
X192959Y236855D01*
X193026Y236772D01*
X193090Y236686D01*
X193151Y236597D01*
X193208Y236507D01*
X193262Y236414D01*
X193313Y236320D01*
X193360Y236224D01*
X193404Y236126D01*
X193444Y236026D01*
X193481Y235926D01*
X193514Y235824D01*
X193543Y235720D01*
X193568Y235616D01*
X193589Y235511D01*
X193607Y235405D01*
X193620Y235299D01*
X193630Y235192D01*
X193636Y235085D01*
X193638Y234978D01*
X193639Y234978D02*
X193639Y232043D01*
X193638Y232043D02*
X193636Y231936D01*
X193630Y231829D01*
X193620Y231722D01*
X193607Y231616D01*
X193589Y231510D01*
X193568Y231405D01*
X193543Y231301D01*
X193514Y231197D01*
X193481Y231095D01*
X193444Y230995D01*
X193404Y230895D01*
X193360Y230797D01*
X193313Y230701D01*
X193262Y230607D01*
X193208Y230514D01*
X193151Y230424D01*
X193090Y230335D01*
X193026Y230249D01*
X192959Y230166D01*
X192889Y230084D01*
X192816Y230006D01*
X192740Y229930D01*
X192662Y229857D01*
X192580Y229787D01*
X192497Y229720D01*
X192411Y229656D01*
X192322Y229595D01*
X192232Y229538D01*
X192139Y229484D01*
X192045Y229433D01*
X191949Y229386D01*
X191851Y229342D01*
X191751Y229302D01*
X191651Y229265D01*
X191549Y229232D01*
X191445Y229203D01*
X191341Y229178D01*
X191236Y229157D01*
X191130Y229139D01*
X191024Y229126D01*
X190917Y229116D01*
X190810Y229110D01*
X190703Y229108D01*
X190596Y229110D01*
X190489Y229116D01*
X190382Y229126D01*
X190276Y229139D01*
X190170Y229157D01*
X190065Y229178D01*
X189961Y229203D01*
X189857Y229232D01*
X189755Y229265D01*
X189655Y229302D01*
X189555Y229342D01*
X189457Y229386D01*
X189361Y229433D01*
X189267Y229484D01*
X189174Y229538D01*
X189084Y229595D01*
X188995Y229656D01*
X188909Y229720D01*
X188826Y229787D01*
X188744Y229857D01*
X188666Y229930D01*
X188590Y230006D01*
X188517Y230084D01*
X188447Y230166D01*
X188380Y230249D01*
X188316Y230335D01*
X188255Y230424D01*
X188198Y230514D01*
X188144Y230607D01*
X188093Y230701D01*
X188046Y230797D01*
X188002Y230895D01*
X187962Y230995D01*
X187925Y231095D01*
X187892Y231197D01*
X187863Y231301D01*
X187838Y231405D01*
X187817Y231510D01*
X187799Y231616D01*
X187786Y231722D01*
X187776Y231829D01*
X187770Y231936D01*
X187768Y232043D01*
X199529Y229108D02*
X199529Y237913D01*
X206133Y237913D01*
X206224Y237911D01*
X206315Y237905D01*
X206405Y237896D01*
X206495Y237883D01*
X206585Y237866D01*
X206673Y237846D01*
X206761Y237821D01*
X206848Y237794D01*
X206933Y237762D01*
X207017Y237728D01*
X207100Y237689D01*
X207181Y237648D01*
X207260Y237603D01*
X207337Y237555D01*
X207412Y237503D01*
X207485Y237449D01*
X207556Y237392D01*
X207624Y237331D01*
X207689Y237268D01*
X207752Y237203D01*
X207813Y237135D01*
X207870Y237064D01*
X207924Y236991D01*
X207976Y236916D01*
X208024Y236839D01*
X208069Y236760D01*
X208110Y236679D01*
X208149Y236596D01*
X208183Y236512D01*
X208215Y236427D01*
X208242Y236340D01*
X208267Y236252D01*
X208287Y236164D01*
X208304Y236074D01*
X208317Y235984D01*
X208326Y235894D01*
X208332Y235803D01*
X208334Y235712D01*
X208334Y229108D01*
X203932Y229108D02*
X203932Y237913D01*
X248158Y591245D02*
X259842Y591245D01*
X248158Y591245D02*
X248158Y594490D01*
X248160Y594603D01*
X248166Y594716D01*
X248176Y594829D01*
X248190Y594942D01*
X248207Y595054D01*
X248229Y595165D01*
X248254Y595275D01*
X248284Y595385D01*
X248317Y595493D01*
X248354Y595600D01*
X248394Y595706D01*
X248439Y595810D01*
X248487Y595913D01*
X248538Y596014D01*
X248593Y596113D01*
X248651Y596210D01*
X248713Y596305D01*
X248778Y596398D01*
X248846Y596488D01*
X248917Y596576D01*
X248992Y596662D01*
X249069Y596745D01*
X249149Y596825D01*
X249232Y596902D01*
X249318Y596977D01*
X249406Y597048D01*
X249496Y597116D01*
X249589Y597181D01*
X249684Y597243D01*
X249781Y597301D01*
X249880Y597356D01*
X249981Y597407D01*
X250084Y597455D01*
X250188Y597500D01*
X250294Y597540D01*
X250401Y597577D01*
X250509Y597610D01*
X250619Y597640D01*
X250729Y597665D01*
X250840Y597687D01*
X250952Y597704D01*
X251065Y597718D01*
X251178Y597728D01*
X251291Y597734D01*
X251404Y597736D01*
X251517Y597734D01*
X251630Y597728D01*
X251743Y597718D01*
X251856Y597704D01*
X251968Y597687D01*
X252079Y597665D01*
X252189Y597640D01*
X252299Y597610D01*
X252407Y597577D01*
X252514Y597540D01*
X252620Y597500D01*
X252724Y597455D01*
X252827Y597407D01*
X252928Y597356D01*
X253027Y597301D01*
X253124Y597243D01*
X253219Y597181D01*
X253312Y597116D01*
X253402Y597048D01*
X253490Y596977D01*
X253576Y596902D01*
X253659Y596825D01*
X253739Y596745D01*
X253816Y596662D01*
X253891Y596576D01*
X253962Y596488D01*
X254030Y596398D01*
X254095Y596305D01*
X254157Y596210D01*
X254215Y596113D01*
X254270Y596014D01*
X254321Y595913D01*
X254369Y595810D01*
X254414Y595706D01*
X254454Y595600D01*
X254491Y595493D01*
X254524Y595385D01*
X254554Y595275D01*
X254579Y595165D01*
X254601Y595054D01*
X254618Y594942D01*
X254632Y594829D01*
X254642Y594716D01*
X254648Y594603D01*
X254650Y594490D01*
X254649Y594490D02*
X254649Y591245D01*
X254649Y595139D02*
X259842Y597736D01*
X250754Y602601D02*
X248158Y605846D01*
X259842Y605846D01*
X259842Y602601D02*
X259842Y609092D01*
X273558Y591245D02*
X285242Y591245D01*
X273558Y591245D02*
X273558Y594490D01*
X273560Y594603D01*
X273566Y594716D01*
X273576Y594829D01*
X273590Y594942D01*
X273607Y595054D01*
X273629Y595165D01*
X273654Y595275D01*
X273684Y595385D01*
X273717Y595493D01*
X273754Y595600D01*
X273794Y595706D01*
X273839Y595810D01*
X273887Y595913D01*
X273938Y596014D01*
X273993Y596113D01*
X274051Y596210D01*
X274113Y596305D01*
X274178Y596398D01*
X274246Y596488D01*
X274317Y596576D01*
X274392Y596662D01*
X274469Y596745D01*
X274549Y596825D01*
X274632Y596902D01*
X274718Y596977D01*
X274806Y597048D01*
X274896Y597116D01*
X274989Y597181D01*
X275084Y597243D01*
X275181Y597301D01*
X275280Y597356D01*
X275381Y597407D01*
X275484Y597455D01*
X275588Y597500D01*
X275694Y597540D01*
X275801Y597577D01*
X275909Y597610D01*
X276019Y597640D01*
X276129Y597665D01*
X276240Y597687D01*
X276352Y597704D01*
X276465Y597718D01*
X276578Y597728D01*
X276691Y597734D01*
X276804Y597736D01*
X276917Y597734D01*
X277030Y597728D01*
X277143Y597718D01*
X277256Y597704D01*
X277368Y597687D01*
X277479Y597665D01*
X277589Y597640D01*
X277699Y597610D01*
X277807Y597577D01*
X277914Y597540D01*
X278020Y597500D01*
X278124Y597455D01*
X278227Y597407D01*
X278328Y597356D01*
X278427Y597301D01*
X278524Y597243D01*
X278619Y597181D01*
X278712Y597116D01*
X278802Y597048D01*
X278890Y596977D01*
X278976Y596902D01*
X279059Y596825D01*
X279139Y596745D01*
X279216Y596662D01*
X279291Y596576D01*
X279362Y596488D01*
X279430Y596398D01*
X279495Y596305D01*
X279557Y596210D01*
X279615Y596113D01*
X279670Y596014D01*
X279721Y595913D01*
X279769Y595810D01*
X279814Y595706D01*
X279854Y595600D01*
X279891Y595493D01*
X279924Y595385D01*
X279954Y595275D01*
X279979Y595165D01*
X280001Y595054D01*
X280018Y594942D01*
X280032Y594829D01*
X280042Y594716D01*
X280048Y594603D01*
X280050Y594490D01*
X280049Y594490D02*
X280049Y591245D01*
X280049Y595139D02*
X285242Y597736D01*
X276479Y609092D02*
X276372Y609090D01*
X276266Y609084D01*
X276160Y609074D01*
X276054Y609061D01*
X275948Y609043D01*
X275844Y609022D01*
X275740Y608997D01*
X275637Y608968D01*
X275536Y608936D01*
X275436Y608899D01*
X275337Y608859D01*
X275239Y608816D01*
X275143Y608769D01*
X275049Y608718D01*
X274957Y608664D01*
X274867Y608607D01*
X274779Y608547D01*
X274694Y608483D01*
X274611Y608416D01*
X274530Y608346D01*
X274452Y608274D01*
X274376Y608198D01*
X274304Y608120D01*
X274234Y608039D01*
X274167Y607956D01*
X274103Y607871D01*
X274043Y607783D01*
X273986Y607693D01*
X273932Y607601D01*
X273881Y607507D01*
X273834Y607411D01*
X273791Y607313D01*
X273751Y607214D01*
X273714Y607114D01*
X273682Y607013D01*
X273653Y606910D01*
X273628Y606806D01*
X273607Y606702D01*
X273589Y606596D01*
X273576Y606490D01*
X273566Y606384D01*
X273560Y606278D01*
X273558Y606171D01*
X273560Y606050D01*
X273566Y605929D01*
X273576Y605809D01*
X273589Y605688D01*
X273607Y605569D01*
X273628Y605449D01*
X273653Y605331D01*
X273682Y605214D01*
X273715Y605097D01*
X273751Y604982D01*
X273792Y604868D01*
X273835Y604755D01*
X273883Y604643D01*
X273934Y604534D01*
X273989Y604426D01*
X274047Y604319D01*
X274108Y604215D01*
X274173Y604113D01*
X274241Y604013D01*
X274312Y603915D01*
X274386Y603819D01*
X274463Y603726D01*
X274544Y603636D01*
X274627Y603548D01*
X274713Y603463D01*
X274802Y603380D01*
X274893Y603301D01*
X274987Y603224D01*
X275083Y603151D01*
X275181Y603081D01*
X275282Y603014D01*
X275385Y602950D01*
X275490Y602890D01*
X275597Y602832D01*
X275705Y602779D01*
X275815Y602729D01*
X275927Y602683D01*
X276040Y602640D01*
X276155Y602601D01*
X278751Y608118D02*
X278673Y608197D01*
X278593Y608273D01*
X278510Y608346D01*
X278424Y608416D01*
X278337Y608483D01*
X278246Y608547D01*
X278154Y608607D01*
X278060Y608665D01*
X277963Y608719D01*
X277865Y608769D01*
X277765Y608816D01*
X277664Y608860D01*
X277561Y608900D01*
X277456Y608936D01*
X277351Y608968D01*
X277244Y608997D01*
X277137Y609022D01*
X277028Y609044D01*
X276919Y609061D01*
X276810Y609075D01*
X276700Y609084D01*
X276589Y609090D01*
X276479Y609092D01*
X278751Y608118D02*
X285242Y602601D01*
X285242Y609092D01*
D10*
X457200Y377190D02*
X50800Y377190D01*
X50800Y511810D02*
X457200Y511810D01*
X50800Y511810D02*
X50800Y377190D01*
X457200Y377190D02*
X457200Y434340D01*
X457200Y454660D02*
X457200Y511810D01*
X457200Y454660D02*
X456953Y454657D01*
X456705Y454648D01*
X456458Y454633D01*
X456212Y454612D01*
X455966Y454585D01*
X455721Y454552D01*
X455476Y454513D01*
X455233Y454468D01*
X454991Y454417D01*
X454750Y454360D01*
X454511Y454298D01*
X454273Y454229D01*
X454037Y454155D01*
X453803Y454075D01*
X453571Y453990D01*
X453341Y453898D01*
X453113Y453802D01*
X452888Y453699D01*
X452665Y453592D01*
X452445Y453478D01*
X452228Y453360D01*
X452013Y453236D01*
X451802Y453107D01*
X451594Y452973D01*
X451389Y452834D01*
X451188Y452690D01*
X450990Y452542D01*
X450796Y452388D01*
X450606Y452230D01*
X450420Y452067D01*
X450238Y451900D01*
X450060Y451728D01*
X449886Y451552D01*
X449716Y451372D01*
X449551Y451187D01*
X449391Y450999D01*
X449235Y450807D01*
X449083Y450611D01*
X448937Y450412D01*
X448795Y450209D01*
X448659Y450002D01*
X448527Y449793D01*
X448401Y449580D01*
X448280Y449364D01*
X448164Y449146D01*
X448054Y448924D01*
X447949Y448700D01*
X447849Y448474D01*
X447755Y448245D01*
X447667Y448014D01*
X447584Y447780D01*
X447507Y447545D01*
X447436Y447308D01*
X447370Y447070D01*
X447311Y446830D01*
X447257Y446588D01*
X447209Y446345D01*
X447167Y446102D01*
X447131Y445857D01*
X447101Y445611D01*
X447077Y445365D01*
X447059Y445118D01*
X447047Y444871D01*
X447041Y444624D01*
X447041Y444376D01*
X447047Y444129D01*
X447059Y443882D01*
X447077Y443635D01*
X447101Y443389D01*
X447131Y443143D01*
X447167Y442898D01*
X447209Y442655D01*
X447257Y442412D01*
X447311Y442170D01*
X447370Y441930D01*
X447436Y441692D01*
X447507Y441455D01*
X447584Y441220D01*
X447667Y440986D01*
X447755Y440755D01*
X447849Y440526D01*
X447949Y440300D01*
X448054Y440076D01*
X448164Y439854D01*
X448280Y439636D01*
X448401Y439420D01*
X448527Y439207D01*
X448659Y438998D01*
X448795Y438791D01*
X448937Y438588D01*
X449083Y438389D01*
X449235Y438193D01*
X449391Y438001D01*
X449551Y437813D01*
X449716Y437628D01*
X449886Y437448D01*
X450060Y437272D01*
X450238Y437100D01*
X450420Y436933D01*
X450606Y436770D01*
X450796Y436612D01*
X450990Y436458D01*
X451188Y436310D01*
X451389Y436166D01*
X451594Y436027D01*
X451802Y435893D01*
X452013Y435764D01*
X452228Y435640D01*
X452445Y435522D01*
X452665Y435408D01*
X452888Y435301D01*
X453113Y435198D01*
X453341Y435102D01*
X453571Y435010D01*
X453803Y434925D01*
X454037Y434845D01*
X454273Y434771D01*
X454511Y434702D01*
X454750Y434640D01*
X454991Y434583D01*
X455233Y434532D01*
X455476Y434487D01*
X455721Y434448D01*
X455966Y434415D01*
X456212Y434388D01*
X456458Y434367D01*
X456705Y434352D01*
X456953Y434343D01*
X457200Y434340D01*
X461772Y435282D02*
X478028Y435282D01*
X478028Y437088D02*
X478028Y433475D01*
X461772Y433475D02*
X461772Y437088D01*
X478028Y446844D02*
X478028Y450456D01*
X478028Y446844D02*
X478026Y446726D01*
X478020Y446608D01*
X478011Y446490D01*
X477997Y446373D01*
X477980Y446256D01*
X477959Y446139D01*
X477934Y446024D01*
X477905Y445909D01*
X477872Y445795D01*
X477836Y445683D01*
X477796Y445572D01*
X477753Y445462D01*
X477706Y445353D01*
X477656Y445246D01*
X477601Y445141D01*
X477544Y445038D01*
X477483Y444937D01*
X477419Y444837D01*
X477352Y444740D01*
X477282Y444645D01*
X477208Y444553D01*
X477132Y444462D01*
X477052Y444375D01*
X476970Y444290D01*
X476885Y444208D01*
X476798Y444128D01*
X476707Y444052D01*
X476615Y443978D01*
X476520Y443908D01*
X476423Y443841D01*
X476323Y443777D01*
X476222Y443716D01*
X476119Y443659D01*
X476014Y443604D01*
X475907Y443554D01*
X475798Y443507D01*
X475688Y443464D01*
X475577Y443424D01*
X475465Y443388D01*
X475351Y443355D01*
X475236Y443326D01*
X475121Y443301D01*
X475004Y443280D01*
X474887Y443263D01*
X474770Y443249D01*
X474652Y443240D01*
X474534Y443234D01*
X474416Y443232D01*
X474416Y443231D02*
X465384Y443231D01*
X465266Y443233D01*
X465148Y443239D01*
X465030Y443248D01*
X464912Y443262D01*
X464795Y443279D01*
X464679Y443300D01*
X464564Y443325D01*
X464449Y443354D01*
X464335Y443387D01*
X464223Y443423D01*
X464111Y443463D01*
X464001Y443506D01*
X463893Y443553D01*
X463786Y443604D01*
X463681Y443658D01*
X463578Y443715D01*
X463476Y443776D01*
X463377Y443840D01*
X463280Y443907D01*
X463185Y443978D01*
X463092Y444051D01*
X463002Y444128D01*
X462914Y444207D01*
X462829Y444289D01*
X462747Y444374D01*
X462668Y444462D01*
X462591Y444552D01*
X462518Y444645D01*
X462447Y444739D01*
X462380Y444837D01*
X462316Y444936D01*
X462255Y445037D01*
X462198Y445141D01*
X462144Y445246D01*
X462093Y445353D01*
X462046Y445461D01*
X462003Y445571D01*
X461963Y445683D01*
X461927Y445795D01*
X461894Y445909D01*
X461865Y446024D01*
X461840Y446139D01*
X461819Y446255D01*
X461802Y446372D01*
X461788Y446490D01*
X461779Y446608D01*
X461773Y446726D01*
X461771Y446844D01*
X461772Y446844D02*
X461772Y450456D01*
X461772Y461264D02*
X461774Y461389D01*
X461780Y461514D01*
X461789Y461639D01*
X461803Y461763D01*
X461820Y461887D01*
X461841Y462011D01*
X461866Y462133D01*
X461895Y462255D01*
X461927Y462376D01*
X461963Y462496D01*
X462003Y462615D01*
X462046Y462732D01*
X462093Y462848D01*
X462144Y462963D01*
X462198Y463075D01*
X462256Y463187D01*
X462316Y463296D01*
X462381Y463403D01*
X462448Y463509D01*
X462519Y463612D01*
X462593Y463713D01*
X462670Y463812D01*
X462750Y463908D01*
X462833Y464002D01*
X462918Y464093D01*
X463007Y464182D01*
X463098Y464267D01*
X463192Y464350D01*
X463288Y464430D01*
X463387Y464507D01*
X463488Y464581D01*
X463591Y464652D01*
X463697Y464719D01*
X463804Y464784D01*
X463913Y464844D01*
X464025Y464902D01*
X464137Y464956D01*
X464252Y465007D01*
X464368Y465054D01*
X464485Y465097D01*
X464604Y465137D01*
X464724Y465173D01*
X464845Y465205D01*
X464967Y465234D01*
X465089Y465259D01*
X465213Y465280D01*
X465337Y465297D01*
X465461Y465311D01*
X465586Y465320D01*
X465711Y465326D01*
X465836Y465328D01*
X461772Y461264D02*
X461774Y461121D01*
X461780Y460979D01*
X461790Y460836D01*
X461803Y460694D01*
X461821Y460553D01*
X461842Y460411D01*
X461867Y460271D01*
X461896Y460131D01*
X461929Y459992D01*
X461966Y459854D01*
X462006Y459717D01*
X462050Y459582D01*
X462098Y459447D01*
X462150Y459314D01*
X462205Y459182D01*
X462264Y459052D01*
X462326Y458924D01*
X462392Y458797D01*
X462461Y458672D01*
X462533Y458549D01*
X462609Y458428D01*
X462688Y458310D01*
X462771Y458193D01*
X462856Y458079D01*
X462945Y457967D01*
X463036Y457858D01*
X463131Y457751D01*
X463228Y457646D01*
X463329Y457545D01*
X463432Y457446D01*
X463537Y457350D01*
X463646Y457257D01*
X463757Y457167D01*
X463870Y457080D01*
X463985Y456996D01*
X464103Y456916D01*
X464223Y456838D01*
X464345Y456764D01*
X464469Y456694D01*
X464595Y456626D01*
X464723Y456563D01*
X464852Y456502D01*
X464983Y456445D01*
X465115Y456392D01*
X465249Y456343D01*
X465384Y456297D01*
X468997Y463973D02*
X468905Y464067D01*
X468811Y464157D01*
X468714Y464245D01*
X468614Y464330D01*
X468512Y464412D01*
X468407Y464490D01*
X468300Y464566D01*
X468191Y464638D01*
X468080Y464707D01*
X467966Y464773D01*
X467851Y464835D01*
X467734Y464894D01*
X467615Y464949D01*
X467495Y465000D01*
X467373Y465048D01*
X467250Y465093D01*
X467126Y465133D01*
X467000Y465170D01*
X466873Y465203D01*
X466746Y465232D01*
X466617Y465258D01*
X466488Y465279D01*
X466358Y465297D01*
X466228Y465310D01*
X466098Y465320D01*
X465967Y465326D01*
X465836Y465328D01*
X468997Y463973D02*
X478028Y456297D01*
X478028Y465328D01*
D11*
X310642Y591245D02*
X298958Y591245D01*
X298958Y594490D01*
X298960Y594603D01*
X298966Y594716D01*
X298976Y594829D01*
X298990Y594942D01*
X299007Y595054D01*
X299029Y595165D01*
X299054Y595275D01*
X299084Y595385D01*
X299117Y595493D01*
X299154Y595600D01*
X299194Y595706D01*
X299239Y595810D01*
X299287Y595913D01*
X299338Y596014D01*
X299393Y596113D01*
X299451Y596210D01*
X299513Y596305D01*
X299578Y596398D01*
X299646Y596488D01*
X299717Y596576D01*
X299792Y596662D01*
X299869Y596745D01*
X299949Y596825D01*
X300032Y596902D01*
X300118Y596977D01*
X300206Y597048D01*
X300296Y597116D01*
X300389Y597181D01*
X300484Y597243D01*
X300581Y597301D01*
X300680Y597356D01*
X300781Y597407D01*
X300884Y597455D01*
X300988Y597500D01*
X301094Y597540D01*
X301201Y597577D01*
X301309Y597610D01*
X301419Y597640D01*
X301529Y597665D01*
X301640Y597687D01*
X301752Y597704D01*
X301865Y597718D01*
X301978Y597728D01*
X302091Y597734D01*
X302204Y597736D01*
X302317Y597734D01*
X302430Y597728D01*
X302543Y597718D01*
X302656Y597704D01*
X302768Y597687D01*
X302879Y597665D01*
X302989Y597640D01*
X303099Y597610D01*
X303207Y597577D01*
X303314Y597540D01*
X303420Y597500D01*
X303524Y597455D01*
X303627Y597407D01*
X303728Y597356D01*
X303827Y597301D01*
X303924Y597243D01*
X304019Y597181D01*
X304112Y597116D01*
X304202Y597048D01*
X304290Y596977D01*
X304376Y596902D01*
X304459Y596825D01*
X304539Y596745D01*
X304616Y596662D01*
X304691Y596576D01*
X304762Y596488D01*
X304830Y596398D01*
X304895Y596305D01*
X304957Y596210D01*
X305015Y596113D01*
X305070Y596014D01*
X305121Y595913D01*
X305169Y595810D01*
X305214Y595706D01*
X305254Y595600D01*
X305291Y595493D01*
X305324Y595385D01*
X305354Y595275D01*
X305379Y595165D01*
X305401Y595054D01*
X305418Y594942D01*
X305432Y594829D01*
X305442Y594716D01*
X305448Y594603D01*
X305450Y594490D01*
X305449Y594490D02*
X305449Y591245D01*
X305449Y595139D02*
X310642Y597736D01*
X310642Y602601D02*
X310642Y605846D01*
X310640Y605959D01*
X310634Y606072D01*
X310624Y606185D01*
X310610Y606298D01*
X310593Y606410D01*
X310571Y606521D01*
X310546Y606631D01*
X310516Y606741D01*
X310483Y606849D01*
X310446Y606956D01*
X310406Y607062D01*
X310361Y607166D01*
X310313Y607269D01*
X310262Y607370D01*
X310207Y607469D01*
X310149Y607566D01*
X310087Y607661D01*
X310022Y607754D01*
X309954Y607844D01*
X309883Y607932D01*
X309808Y608018D01*
X309731Y608101D01*
X309651Y608181D01*
X309568Y608258D01*
X309482Y608333D01*
X309394Y608404D01*
X309304Y608472D01*
X309211Y608537D01*
X309116Y608599D01*
X309019Y608657D01*
X308920Y608712D01*
X308819Y608763D01*
X308716Y608811D01*
X308612Y608856D01*
X308506Y608896D01*
X308399Y608933D01*
X308291Y608966D01*
X308181Y608996D01*
X308071Y609021D01*
X307960Y609043D01*
X307848Y609060D01*
X307735Y609074D01*
X307622Y609084D01*
X307509Y609090D01*
X307396Y609092D01*
X307283Y609090D01*
X307170Y609084D01*
X307057Y609074D01*
X306944Y609060D01*
X306832Y609043D01*
X306721Y609021D01*
X306611Y608996D01*
X306501Y608966D01*
X306393Y608933D01*
X306286Y608896D01*
X306180Y608856D01*
X306076Y608811D01*
X305973Y608763D01*
X305872Y608712D01*
X305773Y608657D01*
X305676Y608599D01*
X305581Y608537D01*
X305488Y608472D01*
X305398Y608404D01*
X305310Y608333D01*
X305224Y608258D01*
X305141Y608181D01*
X305061Y608101D01*
X304984Y608018D01*
X304909Y607932D01*
X304838Y607844D01*
X304770Y607754D01*
X304705Y607661D01*
X304643Y607566D01*
X304585Y607469D01*
X304530Y607370D01*
X304479Y607269D01*
X304431Y607166D01*
X304386Y607062D01*
X304346Y606956D01*
X304309Y606849D01*
X304276Y606741D01*
X304246Y606631D01*
X304221Y606521D01*
X304199Y606410D01*
X304182Y606298D01*
X304168Y606185D01*
X304158Y606072D01*
X304152Y605959D01*
X304150Y605846D01*
X298958Y606496D02*
X298958Y602601D01*
X298958Y606496D02*
X298960Y606597D01*
X298966Y606697D01*
X298976Y606797D01*
X298989Y606897D01*
X299007Y606996D01*
X299028Y607095D01*
X299053Y607192D01*
X299082Y607289D01*
X299115Y607384D01*
X299151Y607478D01*
X299191Y607570D01*
X299234Y607661D01*
X299281Y607750D01*
X299331Y607837D01*
X299385Y607923D01*
X299442Y608006D01*
X299502Y608086D01*
X299565Y608165D01*
X299632Y608241D01*
X299701Y608314D01*
X299773Y608384D01*
X299847Y608452D01*
X299924Y608517D01*
X300004Y608578D01*
X300086Y608637D01*
X300170Y608692D01*
X300256Y608744D01*
X300344Y608793D01*
X300434Y608838D01*
X300526Y608880D01*
X300619Y608918D01*
X300714Y608952D01*
X300809Y608983D01*
X300906Y609010D01*
X301004Y609033D01*
X301103Y609053D01*
X301203Y609068D01*
X301303Y609080D01*
X301403Y609088D01*
X301504Y609092D01*
X301604Y609092D01*
X301705Y609088D01*
X301805Y609080D01*
X301905Y609068D01*
X302005Y609053D01*
X302104Y609033D01*
X302202Y609010D01*
X302299Y608983D01*
X302394Y608952D01*
X302489Y608918D01*
X302582Y608880D01*
X302674Y608838D01*
X302764Y608793D01*
X302852Y608744D01*
X302938Y608692D01*
X303022Y608637D01*
X303104Y608578D01*
X303184Y608517D01*
X303261Y608452D01*
X303335Y608384D01*
X303407Y608314D01*
X303476Y608241D01*
X303543Y608165D01*
X303606Y608086D01*
X303666Y608006D01*
X303723Y607923D01*
X303777Y607837D01*
X303827Y607750D01*
X303874Y607661D01*
X303917Y607570D01*
X303957Y607478D01*
X303993Y607384D01*
X304026Y607289D01*
X304055Y607192D01*
X304080Y607095D01*
X304101Y606996D01*
X304119Y606897D01*
X304132Y606797D01*
X304142Y606697D01*
X304148Y606597D01*
X304150Y606496D01*
X304151Y606496D02*
X304151Y603899D01*
D10*
X337820Y709930D02*
X220980Y709930D01*
X220980Y610870D02*
X337820Y610870D01*
X337820Y643890D01*
X337820Y676910D02*
X332740Y676910D01*
X332740Y643890D01*
X337820Y643890D01*
X337820Y676910D02*
X337820Y709930D01*
X337820Y676910D02*
X337820Y643890D01*
X220980Y676910D02*
X220980Y709930D01*
X220980Y643890D02*
X226060Y643890D01*
X226060Y676910D01*
X220980Y676910D01*
X220980Y643890D02*
X220980Y610870D01*
X220980Y643890D02*
X220980Y676910D01*
X248920Y679450D02*
X248920Y641350D01*
X233680Y641350D01*
X233680Y679450D01*
X248920Y679450D01*
X274320Y679450D02*
X274320Y641350D01*
X259080Y641350D01*
X259080Y679450D01*
X274320Y679450D01*
X299720Y679450D02*
X299720Y641350D01*
X284480Y641350D01*
X284480Y679450D01*
X299720Y679450D01*
X325120Y679450D02*
X325120Y641350D01*
X309880Y641350D01*
X309880Y679450D01*
X325120Y679450D01*
D12*
X241300Y662305D03*
X241300Y668655D03*
X241300Y675005D03*
X266700Y662305D03*
X266700Y668655D03*
X266700Y675005D03*
X292100Y662305D03*
X292100Y668655D03*
X292100Y675005D03*
X317500Y662305D03*
X317500Y668655D03*
X317500Y675005D03*
D13*
X267208Y718185D02*
X267206Y718085D01*
X267200Y717986D01*
X267190Y717886D01*
X267177Y717788D01*
X267159Y717689D01*
X267138Y717592D01*
X267113Y717496D01*
X267084Y717400D01*
X267051Y717306D01*
X267015Y717213D01*
X266975Y717122D01*
X266931Y717032D01*
X266884Y716944D01*
X266834Y716858D01*
X266780Y716774D01*
X266723Y716692D01*
X266663Y716613D01*
X266599Y716535D01*
X266533Y716461D01*
X266464Y716389D01*
X266392Y716320D01*
X266318Y716254D01*
X266240Y716190D01*
X266161Y716130D01*
X266079Y716073D01*
X265995Y716019D01*
X265909Y715969D01*
X265821Y715922D01*
X265731Y715878D01*
X265640Y715838D01*
X265547Y715802D01*
X265453Y715769D01*
X265357Y715740D01*
X265261Y715715D01*
X265164Y715694D01*
X265065Y715676D01*
X264967Y715663D01*
X264867Y715653D01*
X264768Y715647D01*
X264668Y715645D01*
X264527Y715647D01*
X264386Y715652D01*
X264245Y715662D01*
X264104Y715675D01*
X263964Y715691D01*
X263824Y715712D01*
X263685Y715736D01*
X263546Y715764D01*
X263409Y715795D01*
X263272Y715830D01*
X263136Y715868D01*
X263001Y715910D01*
X262868Y715956D01*
X262735Y716005D01*
X262604Y716058D01*
X262475Y716114D01*
X262346Y716173D01*
X262220Y716236D01*
X262095Y716302D01*
X261972Y716371D01*
X261851Y716444D01*
X261732Y716520D01*
X261614Y716599D01*
X261499Y716680D01*
X261387Y716765D01*
X261276Y716853D01*
X261168Y716944D01*
X261062Y717037D01*
X260959Y717134D01*
X260858Y717233D01*
X261176Y724535D02*
X261178Y724635D01*
X261184Y724734D01*
X261194Y724834D01*
X261207Y724932D01*
X261225Y725031D01*
X261246Y725128D01*
X261271Y725224D01*
X261300Y725320D01*
X261333Y725414D01*
X261369Y725507D01*
X261409Y725598D01*
X261453Y725688D01*
X261500Y725776D01*
X261550Y725862D01*
X261604Y725946D01*
X261661Y726028D01*
X261721Y726107D01*
X261785Y726185D01*
X261851Y726259D01*
X261920Y726331D01*
X261992Y726400D01*
X262066Y726466D01*
X262144Y726530D01*
X262223Y726590D01*
X262305Y726647D01*
X262389Y726701D01*
X262475Y726751D01*
X262563Y726798D01*
X262653Y726842D01*
X262744Y726882D01*
X262837Y726918D01*
X262931Y726951D01*
X263027Y726980D01*
X263123Y727005D01*
X263220Y727026D01*
X263319Y727044D01*
X263417Y727057D01*
X263517Y727067D01*
X263616Y727073D01*
X263716Y727075D01*
X263716Y727076D02*
X263849Y727074D01*
X263982Y727069D01*
X264115Y727059D01*
X264248Y727046D01*
X264380Y727029D01*
X264512Y727009D01*
X264643Y726985D01*
X264773Y726957D01*
X264903Y726926D01*
X265031Y726891D01*
X265159Y726852D01*
X265285Y726810D01*
X265410Y726764D01*
X265534Y726715D01*
X265657Y726663D01*
X265778Y726607D01*
X265897Y726547D01*
X266015Y726485D01*
X266130Y726419D01*
X266244Y726350D01*
X266356Y726277D01*
X266466Y726202D01*
X266574Y726123D01*
X262445Y722312D02*
X262361Y722364D01*
X262278Y722419D01*
X262198Y722478D01*
X262120Y722539D01*
X262045Y722603D01*
X261972Y722671D01*
X261901Y722741D01*
X261834Y722813D01*
X261769Y722888D01*
X261707Y722966D01*
X261648Y723046D01*
X261592Y723128D01*
X261540Y723212D01*
X261491Y723298D01*
X261445Y723386D01*
X261402Y723476D01*
X261363Y723567D01*
X261328Y723660D01*
X261296Y723754D01*
X261268Y723849D01*
X261243Y723945D01*
X261223Y724042D01*
X261205Y724140D01*
X261192Y724238D01*
X261183Y724337D01*
X261177Y724436D01*
X261175Y724535D01*
X265938Y720408D02*
X266022Y720356D01*
X266105Y720301D01*
X266185Y720242D01*
X266263Y720181D01*
X266338Y720117D01*
X266411Y720049D01*
X266482Y719979D01*
X266549Y719907D01*
X266614Y719832D01*
X266676Y719754D01*
X266735Y719674D01*
X266791Y719592D01*
X266843Y719508D01*
X266892Y719422D01*
X266938Y719334D01*
X266981Y719244D01*
X267020Y719153D01*
X267055Y719060D01*
X267087Y718966D01*
X267115Y718871D01*
X267140Y718775D01*
X267160Y718678D01*
X267178Y718580D01*
X267191Y718482D01*
X267200Y718383D01*
X267206Y718284D01*
X267208Y718185D01*
X265938Y720408D02*
X262446Y722313D01*
X271526Y727075D02*
X274066Y715645D01*
X276606Y723265D01*
X279146Y715645D01*
X281686Y727075D01*
X289878Y727076D02*
X289982Y727074D01*
X290087Y727068D01*
X290191Y727059D01*
X290294Y727046D01*
X290397Y727028D01*
X290499Y727008D01*
X290601Y726983D01*
X290701Y726955D01*
X290801Y726923D01*
X290899Y726887D01*
X290996Y726848D01*
X291091Y726806D01*
X291185Y726760D01*
X291277Y726710D01*
X291367Y726658D01*
X291455Y726602D01*
X291541Y726542D01*
X291625Y726480D01*
X291706Y726415D01*
X291785Y726347D01*
X291862Y726275D01*
X291935Y726202D01*
X292007Y726125D01*
X292075Y726046D01*
X292140Y725965D01*
X292202Y725881D01*
X292262Y725795D01*
X292318Y725707D01*
X292370Y725617D01*
X292420Y725525D01*
X292466Y725431D01*
X292508Y725336D01*
X292547Y725239D01*
X292583Y725141D01*
X292615Y725041D01*
X292643Y724941D01*
X292668Y724839D01*
X292688Y724737D01*
X292706Y724634D01*
X292719Y724531D01*
X292728Y724427D01*
X292734Y724322D01*
X292736Y724218D01*
X289878Y727075D02*
X289760Y727073D01*
X289641Y727067D01*
X289523Y727058D01*
X289406Y727045D01*
X289289Y727027D01*
X289172Y727007D01*
X289056Y726982D01*
X288941Y726954D01*
X288828Y726921D01*
X288715Y726886D01*
X288603Y726846D01*
X288493Y726804D01*
X288384Y726757D01*
X288276Y726707D01*
X288171Y726654D01*
X288067Y726597D01*
X287965Y726537D01*
X287865Y726474D01*
X287767Y726407D01*
X287671Y726338D01*
X287578Y726265D01*
X287487Y726189D01*
X287398Y726111D01*
X287312Y726029D01*
X287229Y725945D01*
X287148Y725859D01*
X287071Y725769D01*
X286996Y725678D01*
X286924Y725584D01*
X286855Y725487D01*
X286790Y725389D01*
X286727Y725288D01*
X286668Y725185D01*
X286612Y725081D01*
X286560Y724975D01*
X286511Y724867D01*
X286466Y724758D01*
X286424Y724647D01*
X286386Y724535D01*
X291783Y721996D02*
X291859Y722071D01*
X291934Y722150D01*
X292005Y722231D01*
X292074Y722315D01*
X292139Y722401D01*
X292201Y722489D01*
X292261Y722579D01*
X292317Y722671D01*
X292370Y722766D01*
X292419Y722862D01*
X292465Y722960D01*
X292508Y723059D01*
X292547Y723160D01*
X292582Y723262D01*
X292614Y723365D01*
X292642Y723469D01*
X292667Y723574D01*
X292688Y723681D01*
X292705Y723787D01*
X292718Y723894D01*
X292727Y724002D01*
X292733Y724110D01*
X292735Y724218D01*
X291783Y721995D02*
X286385Y715645D01*
X292735Y715645D01*
D11*
X438658Y591245D02*
X450342Y591245D01*
X438658Y591245D02*
X438658Y594490D01*
X438660Y594603D01*
X438666Y594716D01*
X438676Y594829D01*
X438690Y594942D01*
X438707Y595054D01*
X438729Y595165D01*
X438754Y595275D01*
X438784Y595385D01*
X438817Y595493D01*
X438854Y595600D01*
X438894Y595706D01*
X438939Y595810D01*
X438987Y595913D01*
X439038Y596014D01*
X439093Y596113D01*
X439151Y596210D01*
X439213Y596305D01*
X439278Y596398D01*
X439346Y596488D01*
X439417Y596576D01*
X439492Y596662D01*
X439569Y596745D01*
X439649Y596825D01*
X439732Y596902D01*
X439818Y596977D01*
X439906Y597048D01*
X439996Y597116D01*
X440089Y597181D01*
X440184Y597243D01*
X440281Y597301D01*
X440380Y597356D01*
X440481Y597407D01*
X440584Y597455D01*
X440688Y597500D01*
X440794Y597540D01*
X440901Y597577D01*
X441009Y597610D01*
X441119Y597640D01*
X441229Y597665D01*
X441340Y597687D01*
X441452Y597704D01*
X441565Y597718D01*
X441678Y597728D01*
X441791Y597734D01*
X441904Y597736D01*
X442017Y597734D01*
X442130Y597728D01*
X442243Y597718D01*
X442356Y597704D01*
X442468Y597687D01*
X442579Y597665D01*
X442689Y597640D01*
X442799Y597610D01*
X442907Y597577D01*
X443014Y597540D01*
X443120Y597500D01*
X443224Y597455D01*
X443327Y597407D01*
X443428Y597356D01*
X443527Y597301D01*
X443624Y597243D01*
X443719Y597181D01*
X443812Y597116D01*
X443902Y597048D01*
X443990Y596977D01*
X444076Y596902D01*
X444159Y596825D01*
X444239Y596745D01*
X444316Y596662D01*
X444391Y596576D01*
X444462Y596488D01*
X444530Y596398D01*
X444595Y596305D01*
X444657Y596210D01*
X444715Y596113D01*
X444770Y596014D01*
X444821Y595913D01*
X444869Y595810D01*
X444914Y595706D01*
X444954Y595600D01*
X444991Y595493D01*
X445024Y595385D01*
X445054Y595275D01*
X445079Y595165D01*
X445101Y595054D01*
X445118Y594942D01*
X445132Y594829D01*
X445142Y594716D01*
X445148Y594603D01*
X445150Y594490D01*
X445149Y594490D02*
X445149Y591245D01*
X445149Y595139D02*
X450342Y597736D01*
X450342Y602601D02*
X450342Y606496D01*
X450340Y606595D01*
X450334Y606695D01*
X450325Y606794D01*
X450312Y606892D01*
X450295Y606990D01*
X450274Y607088D01*
X450249Y607184D01*
X450221Y607279D01*
X450189Y607373D01*
X450154Y607466D01*
X450115Y607558D01*
X450072Y607648D01*
X450027Y607736D01*
X449977Y607823D01*
X449925Y607907D01*
X449869Y607990D01*
X449811Y608070D01*
X449749Y608148D01*
X449684Y608223D01*
X449616Y608296D01*
X449546Y608366D01*
X449473Y608434D01*
X449398Y608499D01*
X449320Y608561D01*
X449240Y608619D01*
X449157Y608675D01*
X449073Y608727D01*
X448986Y608777D01*
X448898Y608822D01*
X448808Y608865D01*
X448716Y608904D01*
X448623Y608939D01*
X448529Y608971D01*
X448434Y608999D01*
X448338Y609024D01*
X448240Y609045D01*
X448142Y609062D01*
X448044Y609075D01*
X447945Y609084D01*
X447845Y609090D01*
X447746Y609092D01*
X446447Y609092D01*
X446348Y609090D01*
X446248Y609084D01*
X446149Y609075D01*
X446051Y609062D01*
X445953Y609045D01*
X445855Y609024D01*
X445759Y608999D01*
X445664Y608971D01*
X445570Y608939D01*
X445477Y608904D01*
X445385Y608865D01*
X445295Y608822D01*
X445207Y608777D01*
X445120Y608727D01*
X445036Y608675D01*
X444953Y608619D01*
X444873Y608561D01*
X444795Y608499D01*
X444720Y608434D01*
X444647Y608366D01*
X444577Y608296D01*
X444509Y608223D01*
X444444Y608148D01*
X444382Y608070D01*
X444324Y607990D01*
X444268Y607907D01*
X444216Y607823D01*
X444166Y607736D01*
X444121Y607648D01*
X444078Y607558D01*
X444039Y607466D01*
X444004Y607373D01*
X443972Y607279D01*
X443944Y607184D01*
X443919Y607088D01*
X443898Y606990D01*
X443881Y606892D01*
X443868Y606794D01*
X443859Y606695D01*
X443853Y606595D01*
X443851Y606496D01*
X443851Y602601D01*
X438658Y602601D01*
X438658Y609092D01*
X425958Y342392D02*
X425958Y330708D01*
X425958Y342392D02*
X429204Y342392D01*
X429317Y342390D01*
X429430Y342384D01*
X429543Y342374D01*
X429656Y342360D01*
X429768Y342343D01*
X429879Y342321D01*
X429989Y342296D01*
X430099Y342266D01*
X430207Y342233D01*
X430314Y342196D01*
X430420Y342156D01*
X430524Y342111D01*
X430627Y342063D01*
X430728Y342012D01*
X430827Y341957D01*
X430924Y341899D01*
X431019Y341837D01*
X431112Y341772D01*
X431202Y341704D01*
X431290Y341633D01*
X431376Y341558D01*
X431459Y341481D01*
X431539Y341401D01*
X431616Y341318D01*
X431691Y341232D01*
X431762Y341144D01*
X431830Y341054D01*
X431895Y340961D01*
X431957Y340866D01*
X432015Y340769D01*
X432070Y340670D01*
X432121Y340569D01*
X432169Y340466D01*
X432214Y340362D01*
X432254Y340256D01*
X432291Y340149D01*
X432324Y340041D01*
X432354Y339931D01*
X432379Y339821D01*
X432401Y339710D01*
X432418Y339598D01*
X432432Y339485D01*
X432442Y339372D01*
X432448Y339259D01*
X432450Y339146D01*
X432448Y339033D01*
X432442Y338920D01*
X432432Y338807D01*
X432418Y338694D01*
X432401Y338582D01*
X432379Y338471D01*
X432354Y338361D01*
X432324Y338251D01*
X432291Y338143D01*
X432254Y338036D01*
X432214Y337930D01*
X432169Y337826D01*
X432121Y337723D01*
X432070Y337622D01*
X432015Y337523D01*
X431957Y337426D01*
X431895Y337331D01*
X431830Y337238D01*
X431762Y337148D01*
X431691Y337060D01*
X431616Y336974D01*
X431539Y336891D01*
X431459Y336811D01*
X431376Y336734D01*
X431290Y336659D01*
X431202Y336588D01*
X431112Y336520D01*
X431019Y336455D01*
X430924Y336393D01*
X430827Y336335D01*
X430728Y336280D01*
X430627Y336229D01*
X430524Y336181D01*
X430420Y336136D01*
X430314Y336096D01*
X430207Y336059D01*
X430099Y336026D01*
X429989Y335996D01*
X429879Y335971D01*
X429768Y335949D01*
X429656Y335932D01*
X429543Y335918D01*
X429430Y335908D01*
X429317Y335902D01*
X429204Y335900D01*
X429204Y335901D02*
X425958Y335901D01*
X429853Y335901D02*
X432449Y330708D01*
X437314Y337199D02*
X441209Y337199D01*
X441308Y337197D01*
X441408Y337191D01*
X441507Y337182D01*
X441605Y337169D01*
X441703Y337152D01*
X441801Y337131D01*
X441897Y337106D01*
X441992Y337078D01*
X442086Y337046D01*
X442179Y337011D01*
X442271Y336972D01*
X442361Y336929D01*
X442449Y336884D01*
X442536Y336834D01*
X442620Y336782D01*
X442703Y336726D01*
X442783Y336668D01*
X442861Y336606D01*
X442936Y336541D01*
X443009Y336473D01*
X443079Y336403D01*
X443147Y336330D01*
X443212Y336255D01*
X443274Y336177D01*
X443332Y336097D01*
X443388Y336014D01*
X443440Y335930D01*
X443490Y335843D01*
X443535Y335755D01*
X443578Y335665D01*
X443617Y335573D01*
X443652Y335480D01*
X443684Y335386D01*
X443712Y335291D01*
X443737Y335195D01*
X443758Y335097D01*
X443775Y334999D01*
X443788Y334901D01*
X443797Y334802D01*
X443803Y334702D01*
X443805Y334603D01*
X443805Y333954D01*
X443806Y333954D02*
X443804Y333841D01*
X443798Y333728D01*
X443788Y333615D01*
X443774Y333502D01*
X443757Y333390D01*
X443735Y333279D01*
X443710Y333169D01*
X443680Y333059D01*
X443647Y332951D01*
X443610Y332844D01*
X443570Y332738D01*
X443525Y332634D01*
X443477Y332531D01*
X443426Y332430D01*
X443371Y332331D01*
X443313Y332234D01*
X443251Y332139D01*
X443186Y332046D01*
X443118Y331956D01*
X443047Y331868D01*
X442972Y331782D01*
X442895Y331699D01*
X442815Y331619D01*
X442732Y331542D01*
X442646Y331467D01*
X442558Y331396D01*
X442468Y331328D01*
X442375Y331263D01*
X442280Y331201D01*
X442183Y331143D01*
X442084Y331088D01*
X441983Y331037D01*
X441880Y330989D01*
X441776Y330944D01*
X441670Y330904D01*
X441563Y330867D01*
X441455Y330834D01*
X441345Y330804D01*
X441235Y330779D01*
X441124Y330757D01*
X441012Y330740D01*
X440899Y330726D01*
X440786Y330716D01*
X440673Y330710D01*
X440560Y330708D01*
X440447Y330710D01*
X440334Y330716D01*
X440221Y330726D01*
X440108Y330740D01*
X439996Y330757D01*
X439885Y330779D01*
X439775Y330804D01*
X439665Y330834D01*
X439557Y330867D01*
X439450Y330904D01*
X439344Y330944D01*
X439240Y330989D01*
X439137Y331037D01*
X439036Y331088D01*
X438937Y331143D01*
X438840Y331201D01*
X438745Y331263D01*
X438652Y331328D01*
X438562Y331396D01*
X438474Y331467D01*
X438388Y331542D01*
X438305Y331619D01*
X438225Y331699D01*
X438148Y331782D01*
X438073Y331868D01*
X438002Y331956D01*
X437934Y332046D01*
X437869Y332139D01*
X437807Y332234D01*
X437749Y332331D01*
X437694Y332430D01*
X437643Y332531D01*
X437595Y332634D01*
X437550Y332738D01*
X437510Y332844D01*
X437473Y332951D01*
X437440Y333059D01*
X437410Y333169D01*
X437385Y333279D01*
X437363Y333390D01*
X437346Y333502D01*
X437332Y333615D01*
X437322Y333728D01*
X437316Y333841D01*
X437314Y333954D01*
X437314Y337199D01*
X437316Y337342D01*
X437322Y337485D01*
X437332Y337628D01*
X437346Y337770D01*
X437363Y337912D01*
X437385Y338054D01*
X437410Y338195D01*
X437440Y338335D01*
X437473Y338474D01*
X437510Y338612D01*
X437551Y338749D01*
X437595Y338885D01*
X437644Y339020D01*
X437696Y339153D01*
X437751Y339285D01*
X437811Y339415D01*
X437874Y339544D01*
X437940Y339671D01*
X438010Y339795D01*
X438083Y339918D01*
X438160Y340039D01*
X438240Y340158D01*
X438323Y340274D01*
X438409Y340389D01*
X438498Y340500D01*
X438591Y340610D01*
X438686Y340716D01*
X438785Y340820D01*
X438886Y340921D01*
X438990Y341020D01*
X439096Y341115D01*
X439206Y341208D01*
X439317Y341297D01*
X439432Y341383D01*
X439548Y341466D01*
X439667Y341546D01*
X439788Y341623D01*
X439910Y341696D01*
X440035Y341766D01*
X440162Y341832D01*
X440291Y341895D01*
X440421Y341955D01*
X440553Y342010D01*
X440686Y342062D01*
X440821Y342111D01*
X440957Y342155D01*
X441094Y342196D01*
X441232Y342233D01*
X441371Y342266D01*
X441511Y342296D01*
X441652Y342321D01*
X441794Y342343D01*
X441936Y342360D01*
X442078Y342374D01*
X442221Y342384D01*
X442364Y342390D01*
X442507Y342392D01*
D10*
X477520Y709930D02*
X360680Y709930D01*
X360680Y610870D02*
X477520Y610870D01*
X477520Y643890D01*
X477520Y676910D02*
X472440Y676910D01*
X472440Y643890D01*
X477520Y643890D01*
X477520Y676910D02*
X477520Y709930D01*
X477520Y676910D02*
X477520Y643890D01*
X360680Y676910D02*
X360680Y709930D01*
X360680Y643890D02*
X365760Y643890D01*
X365760Y676910D01*
X360680Y676910D01*
X360680Y643890D02*
X360680Y610870D01*
X360680Y643890D02*
X360680Y676910D01*
X388620Y679450D02*
X388620Y641350D01*
X373380Y641350D01*
X373380Y679450D01*
X388620Y679450D01*
X414020Y679450D02*
X414020Y641350D01*
X398780Y641350D01*
X398780Y679450D01*
X414020Y679450D01*
X439420Y679450D02*
X439420Y641350D01*
X424180Y641350D01*
X424180Y679450D01*
X439420Y679450D01*
X464820Y679450D02*
X464820Y641350D01*
X449580Y641350D01*
X449580Y679450D01*
X464820Y679450D01*
D12*
X381000Y662305D03*
X381000Y668655D03*
X381000Y675005D03*
X406400Y662305D03*
X406400Y668655D03*
X406400Y675005D03*
X431800Y662305D03*
X431800Y668655D03*
X431800Y675005D03*
X457200Y662305D03*
X457200Y668655D03*
X457200Y675005D03*
D13*
X406908Y718185D02*
X406906Y718085D01*
X406900Y717986D01*
X406890Y717886D01*
X406877Y717788D01*
X406859Y717689D01*
X406838Y717592D01*
X406813Y717496D01*
X406784Y717400D01*
X406751Y717306D01*
X406715Y717213D01*
X406675Y717122D01*
X406631Y717032D01*
X406584Y716944D01*
X406534Y716858D01*
X406480Y716774D01*
X406423Y716692D01*
X406363Y716613D01*
X406299Y716535D01*
X406233Y716461D01*
X406164Y716389D01*
X406092Y716320D01*
X406018Y716254D01*
X405940Y716190D01*
X405861Y716130D01*
X405779Y716073D01*
X405695Y716019D01*
X405609Y715969D01*
X405521Y715922D01*
X405431Y715878D01*
X405340Y715838D01*
X405247Y715802D01*
X405153Y715769D01*
X405057Y715740D01*
X404961Y715715D01*
X404864Y715694D01*
X404765Y715676D01*
X404667Y715663D01*
X404567Y715653D01*
X404468Y715647D01*
X404368Y715645D01*
X404227Y715647D01*
X404086Y715652D01*
X403945Y715662D01*
X403804Y715675D01*
X403664Y715691D01*
X403524Y715712D01*
X403385Y715736D01*
X403246Y715764D01*
X403109Y715795D01*
X402972Y715830D01*
X402836Y715868D01*
X402701Y715910D01*
X402568Y715956D01*
X402435Y716005D01*
X402304Y716058D01*
X402175Y716114D01*
X402046Y716173D01*
X401920Y716236D01*
X401795Y716302D01*
X401672Y716371D01*
X401551Y716444D01*
X401432Y716520D01*
X401314Y716599D01*
X401199Y716680D01*
X401087Y716765D01*
X400976Y716853D01*
X400868Y716944D01*
X400762Y717037D01*
X400659Y717134D01*
X400558Y717233D01*
X400876Y724535D02*
X400878Y724635D01*
X400884Y724734D01*
X400894Y724834D01*
X400907Y724932D01*
X400925Y725031D01*
X400946Y725128D01*
X400971Y725224D01*
X401000Y725320D01*
X401033Y725414D01*
X401069Y725507D01*
X401109Y725598D01*
X401153Y725688D01*
X401200Y725776D01*
X401250Y725862D01*
X401304Y725946D01*
X401361Y726028D01*
X401421Y726107D01*
X401485Y726185D01*
X401551Y726259D01*
X401620Y726331D01*
X401692Y726400D01*
X401766Y726466D01*
X401844Y726530D01*
X401923Y726590D01*
X402005Y726647D01*
X402089Y726701D01*
X402175Y726751D01*
X402263Y726798D01*
X402353Y726842D01*
X402444Y726882D01*
X402537Y726918D01*
X402631Y726951D01*
X402727Y726980D01*
X402823Y727005D01*
X402920Y727026D01*
X403019Y727044D01*
X403117Y727057D01*
X403217Y727067D01*
X403316Y727073D01*
X403416Y727075D01*
X403416Y727076D02*
X403549Y727074D01*
X403682Y727069D01*
X403815Y727059D01*
X403948Y727046D01*
X404080Y727029D01*
X404212Y727009D01*
X404343Y726985D01*
X404473Y726957D01*
X404603Y726926D01*
X404731Y726891D01*
X404859Y726852D01*
X404985Y726810D01*
X405110Y726764D01*
X405234Y726715D01*
X405357Y726663D01*
X405478Y726607D01*
X405597Y726547D01*
X405715Y726485D01*
X405830Y726419D01*
X405944Y726350D01*
X406056Y726277D01*
X406166Y726202D01*
X406274Y726123D01*
X402145Y722312D02*
X402061Y722364D01*
X401978Y722419D01*
X401898Y722478D01*
X401820Y722539D01*
X401745Y722603D01*
X401672Y722671D01*
X401601Y722741D01*
X401534Y722813D01*
X401469Y722888D01*
X401407Y722966D01*
X401348Y723046D01*
X401292Y723128D01*
X401240Y723212D01*
X401191Y723298D01*
X401145Y723386D01*
X401102Y723476D01*
X401063Y723567D01*
X401028Y723660D01*
X400996Y723754D01*
X400968Y723849D01*
X400943Y723945D01*
X400923Y724042D01*
X400905Y724140D01*
X400892Y724238D01*
X400883Y724337D01*
X400877Y724436D01*
X400875Y724535D01*
X405638Y720408D02*
X405722Y720356D01*
X405805Y720301D01*
X405885Y720242D01*
X405963Y720181D01*
X406038Y720117D01*
X406111Y720049D01*
X406182Y719979D01*
X406249Y719907D01*
X406314Y719832D01*
X406376Y719754D01*
X406435Y719674D01*
X406491Y719592D01*
X406543Y719508D01*
X406592Y719422D01*
X406638Y719334D01*
X406681Y719244D01*
X406720Y719153D01*
X406755Y719060D01*
X406787Y718966D01*
X406815Y718871D01*
X406840Y718775D01*
X406860Y718678D01*
X406878Y718580D01*
X406891Y718482D01*
X406900Y718383D01*
X406906Y718284D01*
X406908Y718185D01*
X405638Y720408D02*
X402146Y722313D01*
X411226Y727075D02*
X413766Y715645D01*
X416306Y723265D01*
X418846Y715645D01*
X421386Y727075D01*
X426085Y724535D02*
X429260Y727075D01*
X429260Y715645D01*
X426085Y715645D02*
X432435Y715645D01*
D11*
X399542Y591245D02*
X387858Y591245D01*
X387858Y594490D01*
X387860Y594603D01*
X387866Y594716D01*
X387876Y594829D01*
X387890Y594942D01*
X387907Y595054D01*
X387929Y595165D01*
X387954Y595275D01*
X387984Y595385D01*
X388017Y595493D01*
X388054Y595600D01*
X388094Y595706D01*
X388139Y595810D01*
X388187Y595913D01*
X388238Y596014D01*
X388293Y596113D01*
X388351Y596210D01*
X388413Y596305D01*
X388478Y596398D01*
X388546Y596488D01*
X388617Y596576D01*
X388692Y596662D01*
X388769Y596745D01*
X388849Y596825D01*
X388932Y596902D01*
X389018Y596977D01*
X389106Y597048D01*
X389196Y597116D01*
X389289Y597181D01*
X389384Y597243D01*
X389481Y597301D01*
X389580Y597356D01*
X389681Y597407D01*
X389784Y597455D01*
X389888Y597500D01*
X389994Y597540D01*
X390101Y597577D01*
X390209Y597610D01*
X390319Y597640D01*
X390429Y597665D01*
X390540Y597687D01*
X390652Y597704D01*
X390765Y597718D01*
X390878Y597728D01*
X390991Y597734D01*
X391104Y597736D01*
X391217Y597734D01*
X391330Y597728D01*
X391443Y597718D01*
X391556Y597704D01*
X391668Y597687D01*
X391779Y597665D01*
X391889Y597640D01*
X391999Y597610D01*
X392107Y597577D01*
X392214Y597540D01*
X392320Y597500D01*
X392424Y597455D01*
X392527Y597407D01*
X392628Y597356D01*
X392727Y597301D01*
X392824Y597243D01*
X392919Y597181D01*
X393012Y597116D01*
X393102Y597048D01*
X393190Y596977D01*
X393276Y596902D01*
X393359Y596825D01*
X393439Y596745D01*
X393516Y596662D01*
X393591Y596576D01*
X393662Y596488D01*
X393730Y596398D01*
X393795Y596305D01*
X393857Y596210D01*
X393915Y596113D01*
X393970Y596014D01*
X394021Y595913D01*
X394069Y595810D01*
X394114Y595706D01*
X394154Y595600D01*
X394191Y595493D01*
X394224Y595385D01*
X394254Y595275D01*
X394279Y595165D01*
X394301Y595054D01*
X394318Y594942D01*
X394332Y594829D01*
X394342Y594716D01*
X394348Y594603D01*
X394350Y594490D01*
X394349Y594490D02*
X394349Y591245D01*
X394349Y595139D02*
X399542Y597736D01*
X389156Y602601D02*
X387858Y602601D01*
X387858Y609092D01*
X399542Y605846D01*
X413258Y591245D02*
X424942Y591245D01*
X413258Y591245D02*
X413258Y594490D01*
X413260Y594603D01*
X413266Y594716D01*
X413276Y594829D01*
X413290Y594942D01*
X413307Y595054D01*
X413329Y595165D01*
X413354Y595275D01*
X413384Y595385D01*
X413417Y595493D01*
X413454Y595600D01*
X413494Y595706D01*
X413539Y595810D01*
X413587Y595913D01*
X413638Y596014D01*
X413693Y596113D01*
X413751Y596210D01*
X413813Y596305D01*
X413878Y596398D01*
X413946Y596488D01*
X414017Y596576D01*
X414092Y596662D01*
X414169Y596745D01*
X414249Y596825D01*
X414332Y596902D01*
X414418Y596977D01*
X414506Y597048D01*
X414596Y597116D01*
X414689Y597181D01*
X414784Y597243D01*
X414881Y597301D01*
X414980Y597356D01*
X415081Y597407D01*
X415184Y597455D01*
X415288Y597500D01*
X415394Y597540D01*
X415501Y597577D01*
X415609Y597610D01*
X415719Y597640D01*
X415829Y597665D01*
X415940Y597687D01*
X416052Y597704D01*
X416165Y597718D01*
X416278Y597728D01*
X416391Y597734D01*
X416504Y597736D01*
X416617Y597734D01*
X416730Y597728D01*
X416843Y597718D01*
X416956Y597704D01*
X417068Y597687D01*
X417179Y597665D01*
X417289Y597640D01*
X417399Y597610D01*
X417507Y597577D01*
X417614Y597540D01*
X417720Y597500D01*
X417824Y597455D01*
X417927Y597407D01*
X418028Y597356D01*
X418127Y597301D01*
X418224Y597243D01*
X418319Y597181D01*
X418412Y597116D01*
X418502Y597048D01*
X418590Y596977D01*
X418676Y596902D01*
X418759Y596825D01*
X418839Y596745D01*
X418916Y596662D01*
X418991Y596576D01*
X419062Y596488D01*
X419130Y596398D01*
X419195Y596305D01*
X419257Y596210D01*
X419315Y596113D01*
X419370Y596014D01*
X419421Y595913D01*
X419469Y595810D01*
X419514Y595706D01*
X419554Y595600D01*
X419591Y595493D01*
X419624Y595385D01*
X419654Y595275D01*
X419679Y595165D01*
X419701Y595054D01*
X419718Y594942D01*
X419732Y594829D01*
X419742Y594716D01*
X419748Y594603D01*
X419750Y594490D01*
X419749Y594490D02*
X419749Y591245D01*
X419749Y595139D02*
X424942Y597736D01*
X421696Y602600D02*
X421583Y602602D01*
X421470Y602608D01*
X421357Y602618D01*
X421244Y602632D01*
X421132Y602649D01*
X421021Y602671D01*
X420911Y602696D01*
X420801Y602726D01*
X420693Y602759D01*
X420586Y602796D01*
X420480Y602836D01*
X420376Y602881D01*
X420273Y602929D01*
X420172Y602980D01*
X420073Y603035D01*
X419976Y603093D01*
X419881Y603155D01*
X419788Y603220D01*
X419698Y603288D01*
X419610Y603359D01*
X419524Y603434D01*
X419441Y603511D01*
X419361Y603591D01*
X419284Y603674D01*
X419209Y603760D01*
X419138Y603848D01*
X419070Y603938D01*
X419005Y604031D01*
X418943Y604126D01*
X418885Y604223D01*
X418830Y604322D01*
X418779Y604423D01*
X418731Y604526D01*
X418686Y604630D01*
X418646Y604736D01*
X418609Y604843D01*
X418576Y604951D01*
X418546Y605061D01*
X418521Y605171D01*
X418499Y605282D01*
X418482Y605394D01*
X418468Y605507D01*
X418458Y605620D01*
X418452Y605733D01*
X418450Y605846D01*
X418452Y605959D01*
X418458Y606072D01*
X418468Y606185D01*
X418482Y606298D01*
X418499Y606410D01*
X418521Y606521D01*
X418546Y606631D01*
X418576Y606741D01*
X418609Y606849D01*
X418646Y606956D01*
X418686Y607062D01*
X418731Y607166D01*
X418779Y607269D01*
X418830Y607370D01*
X418885Y607469D01*
X418943Y607566D01*
X419005Y607661D01*
X419070Y607754D01*
X419138Y607844D01*
X419209Y607932D01*
X419284Y608018D01*
X419361Y608101D01*
X419441Y608181D01*
X419524Y608258D01*
X419610Y608333D01*
X419698Y608404D01*
X419788Y608472D01*
X419881Y608537D01*
X419976Y608599D01*
X420073Y608657D01*
X420172Y608712D01*
X420273Y608763D01*
X420376Y608811D01*
X420480Y608856D01*
X420586Y608896D01*
X420693Y608933D01*
X420801Y608966D01*
X420911Y608996D01*
X421021Y609021D01*
X421132Y609043D01*
X421244Y609060D01*
X421357Y609074D01*
X421470Y609084D01*
X421583Y609090D01*
X421696Y609092D01*
X421809Y609090D01*
X421922Y609084D01*
X422035Y609074D01*
X422148Y609060D01*
X422260Y609043D01*
X422371Y609021D01*
X422481Y608996D01*
X422591Y608966D01*
X422699Y608933D01*
X422806Y608896D01*
X422912Y608856D01*
X423016Y608811D01*
X423119Y608763D01*
X423220Y608712D01*
X423319Y608657D01*
X423416Y608599D01*
X423511Y608537D01*
X423604Y608472D01*
X423694Y608404D01*
X423782Y608333D01*
X423868Y608258D01*
X423951Y608181D01*
X424031Y608101D01*
X424108Y608018D01*
X424183Y607932D01*
X424254Y607844D01*
X424322Y607754D01*
X424387Y607661D01*
X424449Y607566D01*
X424507Y607469D01*
X424562Y607370D01*
X424613Y607269D01*
X424661Y607166D01*
X424706Y607062D01*
X424746Y606956D01*
X424783Y606849D01*
X424816Y606741D01*
X424846Y606631D01*
X424871Y606521D01*
X424893Y606410D01*
X424910Y606298D01*
X424924Y606185D01*
X424934Y606072D01*
X424940Y605959D01*
X424942Y605846D01*
X424940Y605733D01*
X424934Y605620D01*
X424924Y605507D01*
X424910Y605394D01*
X424893Y605282D01*
X424871Y605171D01*
X424846Y605061D01*
X424816Y604951D01*
X424783Y604843D01*
X424746Y604736D01*
X424706Y604630D01*
X424661Y604526D01*
X424613Y604423D01*
X424562Y604322D01*
X424507Y604223D01*
X424449Y604126D01*
X424387Y604031D01*
X424322Y603938D01*
X424254Y603848D01*
X424183Y603760D01*
X424108Y603674D01*
X424031Y603591D01*
X423951Y603511D01*
X423868Y603434D01*
X423782Y603359D01*
X423694Y603288D01*
X423604Y603220D01*
X423511Y603155D01*
X423416Y603093D01*
X423319Y603035D01*
X423220Y602980D01*
X423119Y602929D01*
X423016Y602881D01*
X422912Y602836D01*
X422806Y602796D01*
X422699Y602759D01*
X422591Y602726D01*
X422481Y602696D01*
X422371Y602671D01*
X422260Y602649D01*
X422148Y602632D01*
X422035Y602618D01*
X421922Y602608D01*
X421809Y602602D01*
X421696Y602600D01*
X415854Y603250D02*
X415753Y603252D01*
X415653Y603258D01*
X415553Y603268D01*
X415453Y603281D01*
X415354Y603299D01*
X415255Y603320D01*
X415158Y603345D01*
X415061Y603374D01*
X414966Y603407D01*
X414872Y603443D01*
X414780Y603483D01*
X414689Y603526D01*
X414600Y603573D01*
X414513Y603623D01*
X414427Y603677D01*
X414344Y603734D01*
X414264Y603794D01*
X414185Y603857D01*
X414109Y603924D01*
X414036Y603993D01*
X413966Y604065D01*
X413898Y604139D01*
X413833Y604216D01*
X413772Y604296D01*
X413713Y604378D01*
X413658Y604462D01*
X413606Y604548D01*
X413557Y604636D01*
X413512Y604726D01*
X413470Y604818D01*
X413432Y604911D01*
X413398Y605006D01*
X413367Y605101D01*
X413340Y605198D01*
X413317Y605296D01*
X413297Y605395D01*
X413282Y605495D01*
X413270Y605595D01*
X413262Y605695D01*
X413258Y605796D01*
X413258Y605896D01*
X413262Y605997D01*
X413270Y606097D01*
X413282Y606197D01*
X413297Y606297D01*
X413317Y606396D01*
X413340Y606494D01*
X413367Y606591D01*
X413398Y606686D01*
X413432Y606781D01*
X413470Y606874D01*
X413512Y606966D01*
X413557Y607056D01*
X413606Y607144D01*
X413658Y607230D01*
X413713Y607314D01*
X413772Y607396D01*
X413833Y607476D01*
X413898Y607553D01*
X413966Y607627D01*
X414036Y607699D01*
X414109Y607768D01*
X414185Y607835D01*
X414264Y607898D01*
X414344Y607958D01*
X414427Y608015D01*
X414513Y608069D01*
X414600Y608119D01*
X414689Y608166D01*
X414780Y608209D01*
X414872Y608249D01*
X414966Y608285D01*
X415061Y608318D01*
X415158Y608347D01*
X415255Y608372D01*
X415354Y608393D01*
X415453Y608411D01*
X415553Y608424D01*
X415653Y608434D01*
X415753Y608440D01*
X415854Y608442D01*
X415955Y608440D01*
X416055Y608434D01*
X416155Y608424D01*
X416255Y608411D01*
X416354Y608393D01*
X416453Y608372D01*
X416550Y608347D01*
X416647Y608318D01*
X416742Y608285D01*
X416836Y608249D01*
X416928Y608209D01*
X417019Y608166D01*
X417108Y608119D01*
X417195Y608069D01*
X417281Y608015D01*
X417364Y607958D01*
X417444Y607898D01*
X417523Y607835D01*
X417599Y607768D01*
X417672Y607699D01*
X417742Y607627D01*
X417810Y607553D01*
X417875Y607476D01*
X417936Y607396D01*
X417995Y607314D01*
X418050Y607230D01*
X418102Y607144D01*
X418151Y607056D01*
X418196Y606966D01*
X418238Y606874D01*
X418276Y606781D01*
X418310Y606686D01*
X418341Y606591D01*
X418368Y606494D01*
X418391Y606396D01*
X418411Y606297D01*
X418426Y606197D01*
X418438Y606097D01*
X418446Y605997D01*
X418450Y605896D01*
X418450Y605796D01*
X418446Y605695D01*
X418438Y605595D01*
X418426Y605495D01*
X418411Y605395D01*
X418391Y605296D01*
X418368Y605198D01*
X418341Y605101D01*
X418310Y605006D01*
X418276Y604911D01*
X418238Y604818D01*
X418196Y604726D01*
X418151Y604636D01*
X418102Y604548D01*
X418050Y604462D01*
X417995Y604378D01*
X417936Y604296D01*
X417875Y604216D01*
X417810Y604139D01*
X417742Y604065D01*
X417672Y603993D01*
X417599Y603924D01*
X417523Y603857D01*
X417444Y603794D01*
X417364Y603734D01*
X417281Y603677D01*
X417195Y603623D01*
X417108Y603573D01*
X417019Y603526D01*
X416928Y603483D01*
X416836Y603443D01*
X416742Y603407D01*
X416647Y603374D01*
X416550Y603345D01*
X416453Y603320D01*
X416354Y603299D01*
X416255Y603281D01*
X416155Y603268D01*
X416055Y603258D01*
X415955Y603252D01*
X415854Y603250D01*
D14*
X152400Y584200D02*
X152400Y685800D01*
X203200Y685800D01*
X203200Y584200D01*
X152400Y584200D01*
X88900Y584200D02*
X88900Y685800D01*
X139700Y685800D01*
X139700Y584200D01*
X88900Y584200D01*
X25400Y584200D02*
X25400Y685800D01*
X76200Y685800D01*
X76200Y584200D01*
X25400Y584200D01*
M02*
