G04 EAGLE Gerber RS-274X export*
G75*
%MOMM*%
%FSLAX34Y34*%
%LPD*%
%INSilkscreen Bottom*%
%IPPOS*%
%AMOC8*
5,1,8,0,0,1.08239X$1,22.5*%
G01*
%ADD10C,0.152400*%


D10*
X367538Y254169D02*
X363926Y243332D01*
X360313Y254169D01*
X351803Y243332D02*
X347287Y243332D01*
X351803Y243332D02*
X351904Y243334D01*
X352005Y243340D01*
X352106Y243349D01*
X352207Y243362D01*
X352307Y243379D01*
X352406Y243400D01*
X352504Y243424D01*
X352601Y243452D01*
X352698Y243484D01*
X352793Y243519D01*
X352886Y243558D01*
X352978Y243600D01*
X353069Y243646D01*
X353158Y243695D01*
X353244Y243747D01*
X353329Y243803D01*
X353412Y243861D01*
X353492Y243923D01*
X353570Y243988D01*
X353646Y244055D01*
X353719Y244125D01*
X353789Y244198D01*
X353856Y244274D01*
X353921Y244352D01*
X353983Y244432D01*
X354041Y244515D01*
X354097Y244600D01*
X354149Y244686D01*
X354198Y244775D01*
X354244Y244866D01*
X354286Y244958D01*
X354325Y245051D01*
X354360Y245146D01*
X354392Y245243D01*
X354420Y245340D01*
X354444Y245438D01*
X354465Y245537D01*
X354482Y245637D01*
X354495Y245738D01*
X354504Y245839D01*
X354510Y245940D01*
X354512Y246041D01*
X354512Y250557D01*
X354510Y250676D01*
X354504Y250796D01*
X354494Y250915D01*
X354480Y251033D01*
X354463Y251152D01*
X354441Y251269D01*
X354416Y251386D01*
X354386Y251501D01*
X354353Y251616D01*
X354316Y251730D01*
X354276Y251842D01*
X354231Y251953D01*
X354183Y252062D01*
X354132Y252170D01*
X354077Y252276D01*
X354018Y252380D01*
X353956Y252482D01*
X353891Y252582D01*
X353822Y252680D01*
X353750Y252776D01*
X353675Y252869D01*
X353598Y252959D01*
X353517Y253047D01*
X353433Y253132D01*
X353346Y253214D01*
X353257Y253294D01*
X353165Y253370D01*
X353071Y253444D01*
X352974Y253514D01*
X352876Y253581D01*
X352775Y253645D01*
X352671Y253705D01*
X352566Y253762D01*
X352459Y253815D01*
X352351Y253865D01*
X352241Y253911D01*
X352129Y253953D01*
X352016Y253992D01*
X351902Y254027D01*
X351787Y254058D01*
X351670Y254086D01*
X351553Y254109D01*
X351436Y254129D01*
X351317Y254145D01*
X351198Y254157D01*
X351079Y254165D01*
X350960Y254169D01*
X350840Y254169D01*
X350721Y254165D01*
X350602Y254157D01*
X350483Y254145D01*
X350364Y254129D01*
X350247Y254109D01*
X350130Y254086D01*
X350013Y254058D01*
X349898Y254027D01*
X349784Y253992D01*
X349671Y253953D01*
X349559Y253911D01*
X349449Y253865D01*
X349341Y253815D01*
X349234Y253762D01*
X349129Y253705D01*
X349025Y253645D01*
X348924Y253581D01*
X348826Y253514D01*
X348729Y253444D01*
X348635Y253370D01*
X348543Y253294D01*
X348454Y253214D01*
X348367Y253132D01*
X348283Y253047D01*
X348202Y252959D01*
X348125Y252869D01*
X348050Y252776D01*
X347978Y252680D01*
X347909Y252582D01*
X347844Y252482D01*
X347782Y252380D01*
X347723Y252276D01*
X347668Y252170D01*
X347617Y252062D01*
X347569Y251953D01*
X347524Y251842D01*
X347484Y251730D01*
X347447Y251616D01*
X347414Y251501D01*
X347384Y251386D01*
X347359Y251269D01*
X347337Y251152D01*
X347320Y251033D01*
X347306Y250915D01*
X347296Y250796D01*
X347290Y250676D01*
X347288Y250557D01*
X347287Y250557D02*
X347287Y248751D01*
X354512Y248751D01*
X338238Y243332D02*
X334626Y243332D01*
X338238Y243332D02*
X338339Y243334D01*
X338440Y243340D01*
X338541Y243349D01*
X338642Y243362D01*
X338742Y243379D01*
X338841Y243400D01*
X338939Y243424D01*
X339036Y243452D01*
X339133Y243484D01*
X339228Y243519D01*
X339321Y243558D01*
X339413Y243600D01*
X339504Y243646D01*
X339593Y243695D01*
X339679Y243747D01*
X339764Y243803D01*
X339847Y243861D01*
X339927Y243923D01*
X340005Y243988D01*
X340081Y244055D01*
X340154Y244125D01*
X340224Y244198D01*
X340291Y244274D01*
X340356Y244352D01*
X340418Y244432D01*
X340476Y244515D01*
X340532Y244600D01*
X340584Y244686D01*
X340633Y244775D01*
X340679Y244866D01*
X340721Y244958D01*
X340760Y245051D01*
X340795Y245146D01*
X340827Y245243D01*
X340855Y245340D01*
X340879Y245438D01*
X340900Y245537D01*
X340917Y245637D01*
X340930Y245738D01*
X340939Y245839D01*
X340945Y245940D01*
X340947Y246041D01*
X340947Y251460D01*
X340945Y251561D01*
X340939Y251662D01*
X340930Y251763D01*
X340917Y251864D01*
X340900Y251964D01*
X340879Y252063D01*
X340855Y252161D01*
X340827Y252258D01*
X340795Y252355D01*
X340760Y252450D01*
X340721Y252543D01*
X340679Y252635D01*
X340633Y252726D01*
X340584Y252815D01*
X340532Y252901D01*
X340476Y252986D01*
X340418Y253069D01*
X340356Y253149D01*
X340291Y253227D01*
X340224Y253303D01*
X340154Y253376D01*
X340081Y253446D01*
X340005Y253513D01*
X339927Y253578D01*
X339847Y253640D01*
X339764Y253698D01*
X339679Y253754D01*
X339593Y253806D01*
X339504Y253855D01*
X339413Y253901D01*
X339321Y253943D01*
X339228Y253982D01*
X339133Y254017D01*
X339036Y254049D01*
X338939Y254077D01*
X338841Y254101D01*
X338742Y254122D01*
X338642Y254139D01*
X338541Y254152D01*
X338440Y254161D01*
X338339Y254167D01*
X338238Y254169D01*
X334626Y254169D01*
X330278Y254169D02*
X324860Y254169D01*
X328472Y259588D02*
X328472Y246041D01*
X328470Y245940D01*
X328464Y245839D01*
X328455Y245738D01*
X328442Y245637D01*
X328425Y245537D01*
X328404Y245438D01*
X328380Y245340D01*
X328352Y245243D01*
X328320Y245146D01*
X328285Y245051D01*
X328246Y244958D01*
X328204Y244866D01*
X328158Y244775D01*
X328109Y244686D01*
X328057Y244600D01*
X328001Y244515D01*
X327943Y244432D01*
X327881Y244352D01*
X327816Y244274D01*
X327749Y244198D01*
X327679Y244125D01*
X327606Y244055D01*
X327530Y243988D01*
X327452Y243923D01*
X327372Y243861D01*
X327289Y243803D01*
X327204Y243747D01*
X327118Y243695D01*
X327029Y243646D01*
X326938Y243600D01*
X326846Y243558D01*
X326753Y243519D01*
X326658Y243484D01*
X326561Y243452D01*
X326464Y243424D01*
X326366Y243400D01*
X326267Y243379D01*
X326167Y243362D01*
X326066Y243349D01*
X325965Y243340D01*
X325864Y243334D01*
X325763Y243332D01*
X324860Y243332D01*
X318475Y243332D02*
X318475Y254169D01*
X313057Y254169D01*
X313057Y252363D01*
X305430Y243332D02*
X300915Y243332D01*
X305430Y243332D02*
X305531Y243334D01*
X305632Y243340D01*
X305733Y243349D01*
X305834Y243362D01*
X305934Y243379D01*
X306033Y243400D01*
X306131Y243424D01*
X306228Y243452D01*
X306325Y243484D01*
X306420Y243519D01*
X306513Y243558D01*
X306605Y243600D01*
X306696Y243646D01*
X306785Y243695D01*
X306871Y243747D01*
X306956Y243803D01*
X307039Y243861D01*
X307119Y243923D01*
X307197Y243988D01*
X307273Y244055D01*
X307346Y244125D01*
X307416Y244198D01*
X307483Y244274D01*
X307548Y244352D01*
X307610Y244432D01*
X307668Y244515D01*
X307724Y244600D01*
X307776Y244686D01*
X307825Y244775D01*
X307871Y244866D01*
X307913Y244958D01*
X307952Y245051D01*
X307987Y245146D01*
X308019Y245243D01*
X308047Y245340D01*
X308071Y245438D01*
X308092Y245537D01*
X308109Y245637D01*
X308122Y245738D01*
X308131Y245839D01*
X308137Y245940D01*
X308139Y246041D01*
X308139Y250557D01*
X308137Y250676D01*
X308131Y250796D01*
X308121Y250915D01*
X308107Y251033D01*
X308090Y251152D01*
X308068Y251269D01*
X308043Y251386D01*
X308013Y251501D01*
X307980Y251616D01*
X307943Y251730D01*
X307903Y251842D01*
X307858Y251953D01*
X307810Y252062D01*
X307759Y252170D01*
X307704Y252276D01*
X307645Y252380D01*
X307583Y252482D01*
X307518Y252582D01*
X307449Y252680D01*
X307377Y252776D01*
X307302Y252869D01*
X307225Y252959D01*
X307144Y253047D01*
X307060Y253132D01*
X306973Y253214D01*
X306884Y253294D01*
X306792Y253370D01*
X306698Y253444D01*
X306601Y253514D01*
X306503Y253581D01*
X306402Y253645D01*
X306298Y253705D01*
X306193Y253762D01*
X306086Y253815D01*
X305978Y253865D01*
X305868Y253911D01*
X305756Y253953D01*
X305643Y253992D01*
X305529Y254027D01*
X305414Y254058D01*
X305297Y254086D01*
X305180Y254109D01*
X305063Y254129D01*
X304944Y254145D01*
X304825Y254157D01*
X304706Y254165D01*
X304587Y254169D01*
X304467Y254169D01*
X304348Y254165D01*
X304229Y254157D01*
X304110Y254145D01*
X303991Y254129D01*
X303874Y254109D01*
X303757Y254086D01*
X303640Y254058D01*
X303525Y254027D01*
X303411Y253992D01*
X303298Y253953D01*
X303186Y253911D01*
X303076Y253865D01*
X302968Y253815D01*
X302861Y253762D01*
X302756Y253705D01*
X302652Y253645D01*
X302551Y253581D01*
X302453Y253514D01*
X302356Y253444D01*
X302262Y253370D01*
X302170Y253294D01*
X302081Y253214D01*
X301994Y253132D01*
X301910Y253047D01*
X301829Y252959D01*
X301752Y252869D01*
X301677Y252776D01*
X301605Y252680D01*
X301536Y252582D01*
X301471Y252482D01*
X301409Y252380D01*
X301350Y252276D01*
X301295Y252170D01*
X301244Y252062D01*
X301196Y251953D01*
X301151Y251842D01*
X301111Y251730D01*
X301074Y251616D01*
X301041Y251501D01*
X301011Y251386D01*
X300986Y251269D01*
X300964Y251152D01*
X300947Y251033D01*
X300933Y250915D01*
X300923Y250796D01*
X300917Y250676D01*
X300915Y250557D01*
X300915Y248751D01*
X308139Y248751D01*
X295113Y243332D02*
X287889Y254169D01*
X295113Y254169D02*
X287889Y243332D01*
X273145Y243332D02*
X273145Y254169D01*
X267726Y254169D01*
X267726Y252363D01*
X262809Y250557D02*
X262809Y246944D01*
X262808Y250557D02*
X262806Y250676D01*
X262800Y250796D01*
X262790Y250915D01*
X262776Y251033D01*
X262759Y251152D01*
X262737Y251269D01*
X262712Y251386D01*
X262682Y251501D01*
X262649Y251616D01*
X262612Y251730D01*
X262572Y251842D01*
X262527Y251953D01*
X262479Y252062D01*
X262428Y252170D01*
X262373Y252276D01*
X262314Y252380D01*
X262252Y252482D01*
X262187Y252582D01*
X262118Y252680D01*
X262046Y252776D01*
X261971Y252869D01*
X261894Y252959D01*
X261813Y253047D01*
X261729Y253132D01*
X261642Y253214D01*
X261553Y253294D01*
X261461Y253370D01*
X261367Y253444D01*
X261270Y253514D01*
X261172Y253581D01*
X261071Y253645D01*
X260967Y253705D01*
X260862Y253762D01*
X260755Y253815D01*
X260647Y253865D01*
X260537Y253911D01*
X260425Y253953D01*
X260312Y253992D01*
X260198Y254027D01*
X260083Y254058D01*
X259966Y254086D01*
X259849Y254109D01*
X259732Y254129D01*
X259613Y254145D01*
X259494Y254157D01*
X259375Y254165D01*
X259256Y254169D01*
X259136Y254169D01*
X259017Y254165D01*
X258898Y254157D01*
X258779Y254145D01*
X258660Y254129D01*
X258543Y254109D01*
X258426Y254086D01*
X258309Y254058D01*
X258194Y254027D01*
X258080Y253992D01*
X257967Y253953D01*
X257855Y253911D01*
X257745Y253865D01*
X257637Y253815D01*
X257530Y253762D01*
X257425Y253705D01*
X257321Y253645D01*
X257220Y253581D01*
X257122Y253514D01*
X257025Y253444D01*
X256931Y253370D01*
X256839Y253294D01*
X256750Y253214D01*
X256663Y253132D01*
X256579Y253047D01*
X256498Y252959D01*
X256421Y252869D01*
X256346Y252776D01*
X256274Y252680D01*
X256205Y252582D01*
X256140Y252482D01*
X256078Y252380D01*
X256019Y252276D01*
X255964Y252170D01*
X255913Y252062D01*
X255865Y251953D01*
X255820Y251842D01*
X255780Y251730D01*
X255743Y251616D01*
X255710Y251501D01*
X255680Y251386D01*
X255655Y251269D01*
X255633Y251152D01*
X255616Y251033D01*
X255602Y250915D01*
X255592Y250796D01*
X255586Y250676D01*
X255584Y250557D01*
X255584Y246944D01*
X255586Y246825D01*
X255592Y246705D01*
X255602Y246586D01*
X255616Y246468D01*
X255633Y246349D01*
X255655Y246232D01*
X255680Y246115D01*
X255710Y246000D01*
X255743Y245885D01*
X255780Y245771D01*
X255820Y245659D01*
X255865Y245548D01*
X255913Y245439D01*
X255964Y245331D01*
X256019Y245225D01*
X256078Y245121D01*
X256140Y245019D01*
X256205Y244919D01*
X256274Y244821D01*
X256346Y244725D01*
X256421Y244632D01*
X256498Y244542D01*
X256579Y244454D01*
X256663Y244369D01*
X256750Y244287D01*
X256839Y244207D01*
X256931Y244131D01*
X257025Y244057D01*
X257122Y243987D01*
X257220Y243920D01*
X257321Y243856D01*
X257425Y243796D01*
X257530Y243739D01*
X257637Y243686D01*
X257745Y243636D01*
X257855Y243590D01*
X257967Y243548D01*
X258080Y243509D01*
X258194Y243474D01*
X258309Y243443D01*
X258426Y243415D01*
X258543Y243392D01*
X258660Y243372D01*
X258779Y243356D01*
X258898Y243344D01*
X259017Y243336D01*
X259136Y243332D01*
X259256Y243332D01*
X259375Y243336D01*
X259494Y243344D01*
X259613Y243356D01*
X259732Y243372D01*
X259849Y243392D01*
X259966Y243415D01*
X260083Y243443D01*
X260198Y243474D01*
X260312Y243509D01*
X260425Y243548D01*
X260537Y243590D01*
X260647Y243636D01*
X260755Y243686D01*
X260862Y243739D01*
X260967Y243796D01*
X261071Y243856D01*
X261172Y243920D01*
X261270Y243987D01*
X261367Y244057D01*
X261461Y244131D01*
X261553Y244207D01*
X261642Y244287D01*
X261729Y244369D01*
X261813Y244454D01*
X261894Y244542D01*
X261971Y244632D01*
X262046Y244725D01*
X262118Y244821D01*
X262187Y244919D01*
X262252Y245019D01*
X262314Y245121D01*
X262373Y245225D01*
X262428Y245331D01*
X262479Y245439D01*
X262527Y245548D01*
X262572Y245659D01*
X262612Y245771D01*
X262649Y245885D01*
X262682Y246000D01*
X262712Y246115D01*
X262737Y246232D01*
X262759Y246349D01*
X262776Y246468D01*
X262790Y246586D01*
X262800Y246705D01*
X262806Y246825D01*
X262808Y246944D01*
X248463Y243332D02*
X248463Y254169D01*
X240335Y254169D01*
X240234Y254167D01*
X240133Y254161D01*
X240032Y254152D01*
X239931Y254139D01*
X239831Y254122D01*
X239732Y254101D01*
X239634Y254077D01*
X239537Y254049D01*
X239440Y254017D01*
X239345Y253982D01*
X239252Y253943D01*
X239160Y253901D01*
X239069Y253855D01*
X238981Y253806D01*
X238894Y253754D01*
X238809Y253698D01*
X238726Y253640D01*
X238646Y253578D01*
X238568Y253513D01*
X238492Y253446D01*
X238419Y253376D01*
X238349Y253303D01*
X238282Y253227D01*
X238217Y253149D01*
X238155Y253069D01*
X238097Y252986D01*
X238041Y252901D01*
X237989Y252815D01*
X237940Y252726D01*
X237894Y252635D01*
X237852Y252543D01*
X237813Y252450D01*
X237778Y252355D01*
X237746Y252258D01*
X237718Y252161D01*
X237694Y252063D01*
X237673Y251964D01*
X237656Y251864D01*
X237643Y251763D01*
X237634Y251662D01*
X237628Y251561D01*
X237626Y251460D01*
X237626Y243332D01*
X243044Y243332D02*
X243044Y254169D01*
X221369Y254169D02*
X221369Y243332D01*
X221369Y254169D02*
X213241Y254169D01*
X213140Y254167D01*
X213039Y254161D01*
X212938Y254152D01*
X212837Y254139D01*
X212737Y254122D01*
X212638Y254101D01*
X212540Y254077D01*
X212443Y254049D01*
X212346Y254017D01*
X212251Y253982D01*
X212158Y253943D01*
X212066Y253901D01*
X211975Y253855D01*
X211887Y253806D01*
X211800Y253754D01*
X211715Y253698D01*
X211632Y253640D01*
X211552Y253578D01*
X211474Y253513D01*
X211398Y253446D01*
X211325Y253376D01*
X211255Y253303D01*
X211188Y253227D01*
X211123Y253149D01*
X211061Y253069D01*
X211003Y252986D01*
X210947Y252901D01*
X210895Y252815D01*
X210846Y252726D01*
X210800Y252635D01*
X210758Y252543D01*
X210719Y252450D01*
X210684Y252355D01*
X210652Y252258D01*
X210624Y252161D01*
X210600Y252063D01*
X210579Y251964D01*
X210562Y251864D01*
X210549Y251763D01*
X210540Y251662D01*
X210534Y251561D01*
X210532Y251460D01*
X210531Y251460D02*
X210531Y243332D01*
X215950Y243332D02*
X215950Y254169D01*
X203410Y250557D02*
X203410Y246944D01*
X203410Y250557D02*
X203408Y250676D01*
X203402Y250796D01*
X203392Y250915D01*
X203378Y251033D01*
X203361Y251152D01*
X203339Y251269D01*
X203314Y251386D01*
X203284Y251501D01*
X203251Y251616D01*
X203214Y251730D01*
X203174Y251842D01*
X203129Y251953D01*
X203081Y252062D01*
X203030Y252170D01*
X202975Y252276D01*
X202916Y252380D01*
X202854Y252482D01*
X202789Y252582D01*
X202720Y252680D01*
X202648Y252776D01*
X202573Y252869D01*
X202496Y252959D01*
X202415Y253047D01*
X202331Y253132D01*
X202244Y253214D01*
X202155Y253294D01*
X202063Y253370D01*
X201969Y253444D01*
X201872Y253514D01*
X201774Y253581D01*
X201673Y253645D01*
X201569Y253705D01*
X201464Y253762D01*
X201357Y253815D01*
X201249Y253865D01*
X201139Y253911D01*
X201027Y253953D01*
X200914Y253992D01*
X200800Y254027D01*
X200685Y254058D01*
X200568Y254086D01*
X200451Y254109D01*
X200334Y254129D01*
X200215Y254145D01*
X200096Y254157D01*
X199977Y254165D01*
X199858Y254169D01*
X199738Y254169D01*
X199619Y254165D01*
X199500Y254157D01*
X199381Y254145D01*
X199262Y254129D01*
X199145Y254109D01*
X199028Y254086D01*
X198911Y254058D01*
X198796Y254027D01*
X198682Y253992D01*
X198569Y253953D01*
X198457Y253911D01*
X198347Y253865D01*
X198239Y253815D01*
X198132Y253762D01*
X198027Y253705D01*
X197923Y253645D01*
X197822Y253581D01*
X197724Y253514D01*
X197627Y253444D01*
X197533Y253370D01*
X197441Y253294D01*
X197352Y253214D01*
X197265Y253132D01*
X197181Y253047D01*
X197100Y252959D01*
X197023Y252869D01*
X196948Y252776D01*
X196876Y252680D01*
X196807Y252582D01*
X196742Y252482D01*
X196680Y252380D01*
X196621Y252276D01*
X196566Y252170D01*
X196515Y252062D01*
X196467Y251953D01*
X196422Y251842D01*
X196382Y251730D01*
X196345Y251616D01*
X196312Y251501D01*
X196282Y251386D01*
X196257Y251269D01*
X196235Y251152D01*
X196218Y251033D01*
X196204Y250915D01*
X196194Y250796D01*
X196188Y250676D01*
X196186Y250557D01*
X196185Y250557D02*
X196185Y246944D01*
X196186Y246944D02*
X196188Y246825D01*
X196194Y246705D01*
X196204Y246586D01*
X196218Y246468D01*
X196235Y246349D01*
X196257Y246232D01*
X196282Y246115D01*
X196312Y246000D01*
X196345Y245885D01*
X196382Y245771D01*
X196422Y245659D01*
X196467Y245548D01*
X196515Y245439D01*
X196566Y245331D01*
X196621Y245225D01*
X196680Y245121D01*
X196742Y245019D01*
X196807Y244919D01*
X196876Y244821D01*
X196948Y244725D01*
X197023Y244632D01*
X197100Y244542D01*
X197181Y244454D01*
X197265Y244369D01*
X197352Y244287D01*
X197441Y244207D01*
X197533Y244131D01*
X197627Y244057D01*
X197724Y243987D01*
X197822Y243920D01*
X197923Y243856D01*
X198027Y243796D01*
X198132Y243739D01*
X198239Y243686D01*
X198347Y243636D01*
X198457Y243590D01*
X198569Y243548D01*
X198682Y243509D01*
X198796Y243474D01*
X198911Y243443D01*
X199028Y243415D01*
X199145Y243392D01*
X199262Y243372D01*
X199381Y243356D01*
X199500Y243344D01*
X199619Y243336D01*
X199738Y243332D01*
X199858Y243332D01*
X199977Y243336D01*
X200096Y243344D01*
X200215Y243356D01*
X200334Y243372D01*
X200451Y243392D01*
X200568Y243415D01*
X200685Y243443D01*
X200800Y243474D01*
X200914Y243509D01*
X201027Y243548D01*
X201139Y243590D01*
X201249Y243636D01*
X201357Y243686D01*
X201464Y243739D01*
X201569Y243796D01*
X201673Y243856D01*
X201774Y243920D01*
X201872Y243987D01*
X201969Y244057D01*
X202063Y244131D01*
X202155Y244207D01*
X202244Y244287D01*
X202331Y244369D01*
X202415Y244454D01*
X202496Y244542D01*
X202573Y244632D01*
X202648Y244725D01*
X202720Y244821D01*
X202789Y244919D01*
X202854Y245019D01*
X202916Y245121D01*
X202975Y245225D01*
X203030Y245331D01*
X203081Y245439D01*
X203129Y245548D01*
X203174Y245659D01*
X203214Y245771D01*
X203251Y245885D01*
X203284Y246000D01*
X203314Y246115D01*
X203339Y246232D01*
X203361Y246349D01*
X203378Y246468D01*
X203392Y246586D01*
X203402Y246705D01*
X203408Y246825D01*
X203410Y246944D01*
X182712Y243332D02*
X182712Y259588D01*
X182712Y243332D02*
X187227Y243332D01*
X187328Y243334D01*
X187429Y243340D01*
X187530Y243349D01*
X187631Y243362D01*
X187731Y243379D01*
X187830Y243400D01*
X187928Y243424D01*
X188025Y243452D01*
X188122Y243484D01*
X188217Y243519D01*
X188310Y243558D01*
X188402Y243600D01*
X188493Y243646D01*
X188582Y243695D01*
X188668Y243747D01*
X188753Y243803D01*
X188836Y243861D01*
X188916Y243923D01*
X188994Y243988D01*
X189070Y244055D01*
X189143Y244125D01*
X189213Y244198D01*
X189280Y244274D01*
X189345Y244352D01*
X189407Y244432D01*
X189465Y244515D01*
X189521Y244600D01*
X189573Y244686D01*
X189622Y244775D01*
X189668Y244866D01*
X189710Y244958D01*
X189749Y245051D01*
X189784Y245146D01*
X189816Y245243D01*
X189844Y245340D01*
X189868Y245438D01*
X189889Y245537D01*
X189906Y245637D01*
X189919Y245738D01*
X189928Y245839D01*
X189934Y245940D01*
X189936Y246041D01*
X189936Y251460D01*
X189934Y251561D01*
X189928Y251662D01*
X189919Y251763D01*
X189906Y251864D01*
X189889Y251964D01*
X189868Y252063D01*
X189844Y252161D01*
X189816Y252258D01*
X189784Y252355D01*
X189749Y252450D01*
X189710Y252543D01*
X189668Y252635D01*
X189622Y252726D01*
X189573Y252815D01*
X189521Y252901D01*
X189465Y252986D01*
X189407Y253069D01*
X189345Y253149D01*
X189280Y253227D01*
X189213Y253303D01*
X189143Y253376D01*
X189070Y253446D01*
X188994Y253513D01*
X188916Y253578D01*
X188836Y253640D01*
X188753Y253698D01*
X188668Y253754D01*
X188582Y253806D01*
X188493Y253855D01*
X188402Y253901D01*
X188310Y253943D01*
X188217Y253982D01*
X188122Y254017D01*
X188025Y254049D01*
X187928Y254077D01*
X187830Y254101D01*
X187731Y254122D01*
X187631Y254139D01*
X187530Y254152D01*
X187429Y254161D01*
X187328Y254167D01*
X187227Y254169D01*
X182712Y254169D01*
X175274Y254169D02*
X175274Y246041D01*
X175272Y245940D01*
X175266Y245839D01*
X175257Y245738D01*
X175244Y245637D01*
X175227Y245537D01*
X175206Y245438D01*
X175182Y245340D01*
X175154Y245243D01*
X175122Y245146D01*
X175087Y245051D01*
X175048Y244958D01*
X175006Y244866D01*
X174960Y244775D01*
X174911Y244686D01*
X174859Y244600D01*
X174803Y244515D01*
X174745Y244432D01*
X174683Y244352D01*
X174618Y244274D01*
X174551Y244198D01*
X174481Y244125D01*
X174408Y244055D01*
X174332Y243988D01*
X174254Y243923D01*
X174174Y243861D01*
X174091Y243803D01*
X174006Y243747D01*
X173920Y243695D01*
X173831Y243646D01*
X173740Y243600D01*
X173648Y243558D01*
X173555Y243519D01*
X173460Y243484D01*
X173363Y243452D01*
X173266Y243424D01*
X173168Y243400D01*
X173069Y243379D01*
X172969Y243362D01*
X172868Y243349D01*
X172767Y243340D01*
X172666Y243334D01*
X172565Y243332D01*
X168049Y243332D01*
X168049Y254169D01*
X160969Y259588D02*
X160969Y246041D01*
X160967Y245940D01*
X160961Y245839D01*
X160952Y245738D01*
X160939Y245637D01*
X160922Y245537D01*
X160901Y245438D01*
X160877Y245340D01*
X160849Y245243D01*
X160817Y245146D01*
X160782Y245051D01*
X160743Y244958D01*
X160701Y244866D01*
X160655Y244775D01*
X160606Y244686D01*
X160554Y244600D01*
X160498Y244515D01*
X160440Y244432D01*
X160378Y244352D01*
X160313Y244274D01*
X160246Y244198D01*
X160176Y244125D01*
X160103Y244055D01*
X160027Y243988D01*
X159949Y243923D01*
X159869Y243861D01*
X159786Y243803D01*
X159701Y243747D01*
X159615Y243695D01*
X159526Y243646D01*
X159435Y243600D01*
X159343Y243558D01*
X159250Y243519D01*
X159155Y243484D01*
X159058Y243452D01*
X158961Y243424D01*
X158863Y243400D01*
X158764Y243379D01*
X158664Y243362D01*
X158563Y243349D01*
X158462Y243340D01*
X158361Y243334D01*
X158260Y243332D01*
X150160Y243332D02*
X145644Y243332D01*
X150160Y243332D02*
X150261Y243334D01*
X150362Y243340D01*
X150463Y243349D01*
X150564Y243362D01*
X150664Y243379D01*
X150763Y243400D01*
X150861Y243424D01*
X150958Y243452D01*
X151055Y243484D01*
X151150Y243519D01*
X151243Y243558D01*
X151335Y243600D01*
X151426Y243646D01*
X151515Y243695D01*
X151601Y243747D01*
X151686Y243803D01*
X151769Y243861D01*
X151849Y243923D01*
X151927Y243988D01*
X152003Y244055D01*
X152076Y244125D01*
X152146Y244198D01*
X152213Y244274D01*
X152278Y244352D01*
X152340Y244432D01*
X152398Y244515D01*
X152454Y244600D01*
X152506Y244686D01*
X152555Y244775D01*
X152601Y244866D01*
X152643Y244958D01*
X152682Y245051D01*
X152717Y245146D01*
X152749Y245243D01*
X152777Y245340D01*
X152801Y245438D01*
X152822Y245537D01*
X152839Y245637D01*
X152852Y245738D01*
X152861Y245839D01*
X152867Y245940D01*
X152869Y246041D01*
X152869Y250557D01*
X152867Y250676D01*
X152861Y250796D01*
X152851Y250915D01*
X152837Y251033D01*
X152820Y251152D01*
X152798Y251269D01*
X152773Y251386D01*
X152743Y251501D01*
X152710Y251616D01*
X152673Y251730D01*
X152633Y251842D01*
X152588Y251953D01*
X152540Y252062D01*
X152489Y252170D01*
X152434Y252276D01*
X152375Y252380D01*
X152313Y252482D01*
X152248Y252582D01*
X152179Y252680D01*
X152107Y252776D01*
X152032Y252869D01*
X151955Y252959D01*
X151874Y253047D01*
X151790Y253132D01*
X151703Y253214D01*
X151614Y253294D01*
X151522Y253370D01*
X151428Y253444D01*
X151331Y253514D01*
X151233Y253581D01*
X151132Y253645D01*
X151028Y253705D01*
X150923Y253762D01*
X150816Y253815D01*
X150708Y253865D01*
X150598Y253911D01*
X150486Y253953D01*
X150373Y253992D01*
X150259Y254027D01*
X150144Y254058D01*
X150027Y254086D01*
X149910Y254109D01*
X149793Y254129D01*
X149674Y254145D01*
X149555Y254157D01*
X149436Y254165D01*
X149317Y254169D01*
X149197Y254169D01*
X149078Y254165D01*
X148959Y254157D01*
X148840Y254145D01*
X148721Y254129D01*
X148604Y254109D01*
X148487Y254086D01*
X148370Y254058D01*
X148255Y254027D01*
X148141Y253992D01*
X148028Y253953D01*
X147916Y253911D01*
X147806Y253865D01*
X147698Y253815D01*
X147591Y253762D01*
X147486Y253705D01*
X147382Y253645D01*
X147281Y253581D01*
X147183Y253514D01*
X147086Y253444D01*
X146992Y253370D01*
X146900Y253294D01*
X146811Y253214D01*
X146724Y253132D01*
X146640Y253047D01*
X146559Y252959D01*
X146482Y252869D01*
X146407Y252776D01*
X146335Y252680D01*
X146266Y252582D01*
X146201Y252482D01*
X146139Y252380D01*
X146080Y252276D01*
X146025Y252170D01*
X145974Y252062D01*
X145926Y251953D01*
X145881Y251842D01*
X145841Y251730D01*
X145804Y251616D01*
X145771Y251501D01*
X145741Y251386D01*
X145716Y251269D01*
X145694Y251152D01*
X145677Y251033D01*
X145663Y250915D01*
X145653Y250796D01*
X145647Y250676D01*
X145645Y250557D01*
X145644Y250557D02*
X145644Y248751D01*
X152869Y248751D01*
X367538Y232918D02*
X367538Y216662D01*
X363022Y216662D01*
X362918Y216664D01*
X362815Y216670D01*
X362711Y216680D01*
X362608Y216694D01*
X362506Y216712D01*
X362405Y216733D01*
X362304Y216759D01*
X362205Y216788D01*
X362106Y216821D01*
X362009Y216858D01*
X361914Y216899D01*
X361820Y216943D01*
X361728Y216991D01*
X361638Y217042D01*
X361549Y217097D01*
X361463Y217155D01*
X361380Y217217D01*
X361298Y217281D01*
X361220Y217349D01*
X361144Y217419D01*
X361070Y217492D01*
X361000Y217569D01*
X360932Y217647D01*
X360868Y217729D01*
X360806Y217812D01*
X360748Y217898D01*
X360693Y217987D01*
X360642Y218077D01*
X360594Y218169D01*
X360550Y218263D01*
X360509Y218358D01*
X360472Y218455D01*
X360439Y218554D01*
X360410Y218653D01*
X360384Y218754D01*
X360363Y218855D01*
X360345Y218957D01*
X360331Y219060D01*
X360321Y219164D01*
X360315Y219267D01*
X360313Y219371D01*
X360313Y224790D01*
X360315Y224891D01*
X360321Y224992D01*
X360330Y225093D01*
X360343Y225194D01*
X360360Y225294D01*
X360381Y225393D01*
X360405Y225491D01*
X360433Y225588D01*
X360465Y225685D01*
X360500Y225780D01*
X360539Y225873D01*
X360581Y225965D01*
X360627Y226056D01*
X360676Y226145D01*
X360728Y226231D01*
X360784Y226316D01*
X360842Y226399D01*
X360904Y226479D01*
X360969Y226557D01*
X361036Y226633D01*
X361106Y226706D01*
X361179Y226776D01*
X361255Y226843D01*
X361333Y226908D01*
X361413Y226970D01*
X361496Y227028D01*
X361581Y227084D01*
X361668Y227136D01*
X361756Y227185D01*
X361847Y227231D01*
X361939Y227273D01*
X362032Y227312D01*
X362127Y227347D01*
X362224Y227379D01*
X362321Y227407D01*
X362419Y227431D01*
X362518Y227452D01*
X362618Y227469D01*
X362719Y227482D01*
X362820Y227491D01*
X362921Y227497D01*
X363022Y227499D01*
X367538Y227499D01*
X354585Y211243D02*
X352779Y211243D01*
X347360Y227499D01*
X354585Y227499D02*
X350973Y216662D01*
X333258Y216662D02*
X333258Y227499D01*
X333709Y232015D02*
X333709Y232918D01*
X332806Y232918D01*
X332806Y232015D01*
X333709Y232015D01*
X326449Y227499D02*
X326449Y216662D01*
X326449Y227499D02*
X321934Y227499D01*
X321830Y227497D01*
X321727Y227491D01*
X321623Y227481D01*
X321520Y227467D01*
X321418Y227449D01*
X321317Y227428D01*
X321216Y227402D01*
X321117Y227373D01*
X321018Y227340D01*
X320921Y227303D01*
X320826Y227262D01*
X320732Y227218D01*
X320640Y227170D01*
X320550Y227119D01*
X320461Y227064D01*
X320375Y227006D01*
X320292Y226944D01*
X320210Y226880D01*
X320132Y226812D01*
X320056Y226742D01*
X319982Y226669D01*
X319912Y226592D01*
X319844Y226514D01*
X319780Y226432D01*
X319718Y226349D01*
X319660Y226263D01*
X319605Y226174D01*
X319554Y226084D01*
X319506Y225992D01*
X319462Y225898D01*
X319421Y225803D01*
X319384Y225706D01*
X319351Y225607D01*
X319322Y225508D01*
X319296Y225407D01*
X319275Y225306D01*
X319257Y225204D01*
X319243Y225101D01*
X319233Y224997D01*
X319227Y224894D01*
X319225Y224790D01*
X319224Y224790D02*
X319224Y216662D01*
X309745Y216662D02*
X305229Y216662D01*
X309745Y216662D02*
X309846Y216664D01*
X309947Y216670D01*
X310048Y216679D01*
X310149Y216692D01*
X310249Y216709D01*
X310348Y216730D01*
X310446Y216754D01*
X310543Y216782D01*
X310640Y216814D01*
X310735Y216849D01*
X310828Y216888D01*
X310920Y216930D01*
X311011Y216976D01*
X311100Y217025D01*
X311186Y217077D01*
X311271Y217133D01*
X311354Y217191D01*
X311434Y217253D01*
X311512Y217318D01*
X311588Y217385D01*
X311661Y217455D01*
X311731Y217528D01*
X311798Y217604D01*
X311863Y217682D01*
X311925Y217762D01*
X311983Y217845D01*
X312039Y217930D01*
X312091Y218016D01*
X312140Y218105D01*
X312186Y218196D01*
X312228Y218288D01*
X312267Y218381D01*
X312302Y218476D01*
X312334Y218573D01*
X312362Y218670D01*
X312386Y218768D01*
X312407Y218867D01*
X312424Y218967D01*
X312437Y219068D01*
X312446Y219169D01*
X312452Y219270D01*
X312454Y219371D01*
X312454Y224790D01*
X312452Y224891D01*
X312446Y224992D01*
X312437Y225093D01*
X312424Y225194D01*
X312407Y225294D01*
X312386Y225393D01*
X312362Y225491D01*
X312334Y225588D01*
X312302Y225685D01*
X312267Y225780D01*
X312228Y225873D01*
X312186Y225965D01*
X312140Y226056D01*
X312091Y226145D01*
X312039Y226231D01*
X311983Y226316D01*
X311925Y226399D01*
X311863Y226479D01*
X311798Y226557D01*
X311731Y226633D01*
X311661Y226706D01*
X311588Y226776D01*
X311512Y226843D01*
X311434Y226908D01*
X311354Y226970D01*
X311271Y227028D01*
X311186Y227084D01*
X311100Y227136D01*
X311011Y227185D01*
X310920Y227231D01*
X310828Y227273D01*
X310735Y227312D01*
X310640Y227347D01*
X310543Y227379D01*
X310446Y227407D01*
X310348Y227431D01*
X310249Y227452D01*
X310149Y227469D01*
X310048Y227482D01*
X309947Y227491D01*
X309846Y227497D01*
X309745Y227499D01*
X305229Y227499D01*
X305229Y213953D01*
X305230Y213953D02*
X305232Y213852D01*
X305238Y213751D01*
X305247Y213650D01*
X305260Y213549D01*
X305277Y213449D01*
X305298Y213350D01*
X305322Y213252D01*
X305350Y213155D01*
X305382Y213058D01*
X305417Y212963D01*
X305456Y212870D01*
X305498Y212778D01*
X305544Y212687D01*
X305593Y212599D01*
X305645Y212512D01*
X305701Y212427D01*
X305759Y212344D01*
X305821Y212264D01*
X305886Y212186D01*
X305953Y212110D01*
X306023Y212037D01*
X306096Y211967D01*
X306172Y211900D01*
X306250Y211835D01*
X306330Y211773D01*
X306413Y211715D01*
X306498Y211659D01*
X306585Y211607D01*
X306673Y211558D01*
X306764Y211512D01*
X306856Y211470D01*
X306949Y211431D01*
X307044Y211396D01*
X307141Y211364D01*
X307238Y211336D01*
X307336Y211312D01*
X307435Y211291D01*
X307535Y211274D01*
X307636Y211261D01*
X307737Y211252D01*
X307838Y211246D01*
X307939Y211244D01*
X307939Y211243D02*
X311551Y211243D01*
X297514Y216662D02*
X297514Y227499D01*
X289386Y227499D01*
X289285Y227497D01*
X289184Y227491D01*
X289083Y227482D01*
X288982Y227469D01*
X288882Y227452D01*
X288783Y227431D01*
X288685Y227407D01*
X288588Y227379D01*
X288491Y227347D01*
X288396Y227312D01*
X288303Y227273D01*
X288211Y227231D01*
X288120Y227185D01*
X288032Y227136D01*
X287945Y227084D01*
X287860Y227028D01*
X287777Y226970D01*
X287697Y226908D01*
X287619Y226843D01*
X287543Y226776D01*
X287470Y226706D01*
X287400Y226633D01*
X287333Y226557D01*
X287268Y226479D01*
X287206Y226399D01*
X287148Y226316D01*
X287092Y226231D01*
X287040Y226145D01*
X286991Y226056D01*
X286945Y225965D01*
X286903Y225873D01*
X286864Y225780D01*
X286829Y225685D01*
X286797Y225588D01*
X286769Y225491D01*
X286745Y225393D01*
X286724Y225294D01*
X286707Y225194D01*
X286694Y225093D01*
X286685Y224992D01*
X286679Y224891D01*
X286677Y224790D01*
X286677Y216662D01*
X292095Y216662D02*
X292095Y227499D01*
X276468Y222984D02*
X272404Y222984D01*
X276468Y222984D02*
X276580Y222982D01*
X276691Y222976D01*
X276802Y222966D01*
X276913Y222953D01*
X277023Y222935D01*
X277132Y222913D01*
X277241Y222888D01*
X277349Y222859D01*
X277455Y222826D01*
X277561Y222789D01*
X277665Y222749D01*
X277767Y222705D01*
X277868Y222657D01*
X277967Y222606D01*
X278065Y222551D01*
X278160Y222493D01*
X278253Y222432D01*
X278344Y222367D01*
X278433Y222299D01*
X278519Y222228D01*
X278602Y222155D01*
X278683Y222078D01*
X278762Y221998D01*
X278837Y221916D01*
X278909Y221831D01*
X278979Y221744D01*
X279045Y221654D01*
X279108Y221562D01*
X279168Y221467D01*
X279224Y221371D01*
X279277Y221273D01*
X279326Y221173D01*
X279372Y221071D01*
X279414Y220968D01*
X279453Y220863D01*
X279488Y220757D01*
X279519Y220650D01*
X279546Y220542D01*
X279570Y220433D01*
X279589Y220323D01*
X279605Y220213D01*
X279617Y220102D01*
X279625Y219990D01*
X279629Y219879D01*
X279629Y219767D01*
X279625Y219656D01*
X279617Y219544D01*
X279605Y219433D01*
X279589Y219323D01*
X279570Y219213D01*
X279546Y219104D01*
X279519Y218996D01*
X279488Y218889D01*
X279453Y218783D01*
X279414Y218678D01*
X279372Y218575D01*
X279326Y218473D01*
X279277Y218373D01*
X279224Y218275D01*
X279168Y218179D01*
X279108Y218084D01*
X279045Y217992D01*
X278979Y217902D01*
X278909Y217815D01*
X278837Y217730D01*
X278762Y217648D01*
X278683Y217568D01*
X278602Y217491D01*
X278519Y217418D01*
X278433Y217347D01*
X278344Y217279D01*
X278253Y217214D01*
X278160Y217153D01*
X278065Y217095D01*
X277967Y217040D01*
X277868Y216989D01*
X277767Y216941D01*
X277665Y216897D01*
X277561Y216857D01*
X277455Y216820D01*
X277349Y216787D01*
X277241Y216758D01*
X277132Y216733D01*
X277023Y216711D01*
X276913Y216693D01*
X276802Y216680D01*
X276691Y216670D01*
X276580Y216664D01*
X276468Y216662D01*
X272404Y216662D01*
X272404Y224790D01*
X272406Y224891D01*
X272412Y224992D01*
X272421Y225093D01*
X272434Y225194D01*
X272451Y225294D01*
X272472Y225393D01*
X272496Y225491D01*
X272524Y225588D01*
X272556Y225685D01*
X272591Y225780D01*
X272630Y225873D01*
X272672Y225965D01*
X272718Y226056D01*
X272767Y226145D01*
X272819Y226231D01*
X272875Y226316D01*
X272933Y226399D01*
X272995Y226479D01*
X273060Y226557D01*
X273127Y226633D01*
X273197Y226706D01*
X273270Y226776D01*
X273346Y226843D01*
X273424Y226908D01*
X273504Y226970D01*
X273587Y227028D01*
X273672Y227084D01*
X273759Y227136D01*
X273847Y227185D01*
X273938Y227231D01*
X274030Y227273D01*
X274123Y227312D01*
X274218Y227347D01*
X274315Y227379D01*
X274412Y227407D01*
X274510Y227431D01*
X274609Y227452D01*
X274709Y227469D01*
X274810Y227482D01*
X274911Y227491D01*
X275012Y227497D01*
X275113Y227499D01*
X278726Y227499D01*
X264881Y227499D02*
X264881Y216662D01*
X264881Y227499D02*
X259463Y227499D01*
X259463Y225693D01*
X253191Y222984D02*
X248675Y221178D01*
X253191Y222984D02*
X253279Y223021D01*
X253365Y223062D01*
X253450Y223106D01*
X253533Y223154D01*
X253613Y223205D01*
X253692Y223259D01*
X253768Y223317D01*
X253842Y223377D01*
X253914Y223441D01*
X253982Y223507D01*
X254048Y223577D01*
X254111Y223648D01*
X254172Y223723D01*
X254229Y223799D01*
X254282Y223878D01*
X254333Y223959D01*
X254380Y224042D01*
X254424Y224127D01*
X254464Y224214D01*
X254501Y224302D01*
X254534Y224392D01*
X254564Y224483D01*
X254589Y224575D01*
X254611Y224668D01*
X254629Y224762D01*
X254644Y224856D01*
X254654Y224951D01*
X254660Y225047D01*
X254663Y225142D01*
X254662Y225238D01*
X254656Y225333D01*
X254647Y225429D01*
X254634Y225523D01*
X254618Y225617D01*
X254597Y225711D01*
X254572Y225803D01*
X254544Y225894D01*
X254512Y225984D01*
X254477Y226073D01*
X254438Y226160D01*
X254395Y226246D01*
X254349Y226330D01*
X254299Y226411D01*
X254247Y226491D01*
X254191Y226569D01*
X254131Y226644D01*
X254069Y226716D01*
X254004Y226786D01*
X253936Y226854D01*
X253866Y226918D01*
X253793Y226980D01*
X253717Y227038D01*
X253639Y227094D01*
X253559Y227146D01*
X253477Y227195D01*
X253393Y227240D01*
X253307Y227282D01*
X253220Y227321D01*
X253131Y227356D01*
X253040Y227387D01*
X252949Y227414D01*
X252856Y227438D01*
X252763Y227458D01*
X252669Y227474D01*
X252574Y227486D01*
X252479Y227495D01*
X252383Y227499D01*
X252288Y227500D01*
X252041Y227493D01*
X251795Y227481D01*
X251549Y227463D01*
X251303Y227438D01*
X251059Y227408D01*
X250815Y227372D01*
X250572Y227331D01*
X250330Y227283D01*
X250089Y227229D01*
X249850Y227170D01*
X249612Y227105D01*
X249376Y227034D01*
X249141Y226958D01*
X248908Y226876D01*
X248678Y226788D01*
X248450Y226695D01*
X248223Y226597D01*
X248675Y221177D02*
X248587Y221140D01*
X248501Y221099D01*
X248416Y221055D01*
X248333Y221007D01*
X248253Y220956D01*
X248174Y220902D01*
X248098Y220844D01*
X248024Y220784D01*
X247952Y220720D01*
X247884Y220654D01*
X247818Y220584D01*
X247755Y220513D01*
X247694Y220438D01*
X247637Y220362D01*
X247584Y220283D01*
X247533Y220202D01*
X247486Y220119D01*
X247442Y220034D01*
X247402Y219947D01*
X247365Y219859D01*
X247332Y219769D01*
X247302Y219678D01*
X247277Y219586D01*
X247255Y219493D01*
X247237Y219399D01*
X247222Y219305D01*
X247212Y219210D01*
X247206Y219114D01*
X247203Y219019D01*
X247204Y218923D01*
X247210Y218828D01*
X247219Y218732D01*
X247232Y218638D01*
X247248Y218544D01*
X247269Y218450D01*
X247294Y218358D01*
X247322Y218267D01*
X247354Y218177D01*
X247389Y218088D01*
X247428Y218001D01*
X247471Y217915D01*
X247517Y217831D01*
X247567Y217750D01*
X247619Y217670D01*
X247675Y217592D01*
X247735Y217517D01*
X247797Y217445D01*
X247862Y217375D01*
X247930Y217307D01*
X248000Y217243D01*
X248073Y217181D01*
X248149Y217123D01*
X248227Y217067D01*
X248307Y217015D01*
X248389Y216966D01*
X248473Y216921D01*
X248559Y216879D01*
X248646Y216840D01*
X248735Y216805D01*
X248826Y216774D01*
X248917Y216747D01*
X249010Y216723D01*
X249103Y216703D01*
X249197Y216687D01*
X249292Y216675D01*
X249387Y216666D01*
X249483Y216662D01*
X249578Y216661D01*
X249579Y216662D02*
X249941Y216671D01*
X250303Y216689D01*
X250664Y216716D01*
X251024Y216751D01*
X251384Y216794D01*
X251743Y216846D01*
X252100Y216907D01*
X252455Y216976D01*
X252809Y217053D01*
X253161Y217139D01*
X253511Y217233D01*
X253859Y217336D01*
X254204Y217446D01*
X254546Y217565D01*
X240393Y216662D02*
X240393Y227499D01*
X234974Y227499D01*
X234974Y225693D01*
X227347Y216662D02*
X222832Y216662D01*
X227347Y216662D02*
X227448Y216664D01*
X227549Y216670D01*
X227650Y216679D01*
X227751Y216692D01*
X227851Y216709D01*
X227950Y216730D01*
X228048Y216754D01*
X228145Y216782D01*
X228242Y216814D01*
X228337Y216849D01*
X228430Y216888D01*
X228522Y216930D01*
X228613Y216976D01*
X228702Y217025D01*
X228788Y217077D01*
X228873Y217133D01*
X228956Y217191D01*
X229036Y217253D01*
X229114Y217318D01*
X229190Y217385D01*
X229263Y217455D01*
X229333Y217528D01*
X229400Y217604D01*
X229465Y217682D01*
X229527Y217762D01*
X229585Y217845D01*
X229641Y217930D01*
X229693Y218016D01*
X229742Y218105D01*
X229788Y218196D01*
X229830Y218288D01*
X229869Y218381D01*
X229904Y218476D01*
X229936Y218573D01*
X229964Y218670D01*
X229988Y218768D01*
X230009Y218867D01*
X230026Y218967D01*
X230039Y219068D01*
X230048Y219169D01*
X230054Y219270D01*
X230056Y219371D01*
X230057Y219371D02*
X230057Y223887D01*
X230056Y223887D02*
X230054Y224006D01*
X230048Y224126D01*
X230038Y224245D01*
X230024Y224363D01*
X230007Y224482D01*
X229985Y224599D01*
X229960Y224716D01*
X229930Y224831D01*
X229897Y224946D01*
X229860Y225060D01*
X229820Y225172D01*
X229775Y225283D01*
X229727Y225392D01*
X229676Y225500D01*
X229621Y225606D01*
X229562Y225710D01*
X229500Y225812D01*
X229435Y225912D01*
X229366Y226010D01*
X229294Y226106D01*
X229219Y226199D01*
X229142Y226289D01*
X229061Y226377D01*
X228977Y226462D01*
X228890Y226544D01*
X228801Y226624D01*
X228709Y226700D01*
X228615Y226774D01*
X228518Y226844D01*
X228420Y226911D01*
X228319Y226975D01*
X228215Y227035D01*
X228110Y227092D01*
X228003Y227145D01*
X227895Y227195D01*
X227785Y227241D01*
X227673Y227283D01*
X227560Y227322D01*
X227446Y227357D01*
X227331Y227388D01*
X227214Y227416D01*
X227097Y227439D01*
X226980Y227459D01*
X226861Y227475D01*
X226742Y227487D01*
X226623Y227495D01*
X226504Y227499D01*
X226384Y227499D01*
X226265Y227495D01*
X226146Y227487D01*
X226027Y227475D01*
X225908Y227459D01*
X225791Y227439D01*
X225674Y227416D01*
X225557Y227388D01*
X225442Y227357D01*
X225328Y227322D01*
X225215Y227283D01*
X225103Y227241D01*
X224993Y227195D01*
X224885Y227145D01*
X224778Y227092D01*
X224673Y227035D01*
X224569Y226975D01*
X224468Y226911D01*
X224370Y226844D01*
X224273Y226774D01*
X224179Y226700D01*
X224087Y226624D01*
X223998Y226544D01*
X223911Y226462D01*
X223827Y226377D01*
X223746Y226289D01*
X223669Y226199D01*
X223594Y226106D01*
X223522Y226010D01*
X223453Y225912D01*
X223388Y225812D01*
X223326Y225710D01*
X223267Y225606D01*
X223212Y225500D01*
X223161Y225392D01*
X223113Y225283D01*
X223068Y225172D01*
X223028Y225060D01*
X222991Y224946D01*
X222958Y224831D01*
X222928Y224716D01*
X222903Y224599D01*
X222881Y224482D01*
X222864Y224363D01*
X222850Y224245D01*
X222840Y224126D01*
X222834Y224006D01*
X222832Y223887D01*
X222832Y222081D01*
X230057Y222081D01*
X217807Y227499D02*
X212388Y227499D01*
X216001Y232918D02*
X216001Y219371D01*
X216000Y219371D02*
X215998Y219270D01*
X215992Y219169D01*
X215983Y219068D01*
X215970Y218967D01*
X215953Y218867D01*
X215932Y218768D01*
X215908Y218670D01*
X215880Y218573D01*
X215848Y218476D01*
X215813Y218381D01*
X215774Y218288D01*
X215732Y218196D01*
X215686Y218105D01*
X215637Y218016D01*
X215585Y217930D01*
X215529Y217845D01*
X215471Y217762D01*
X215409Y217682D01*
X215344Y217604D01*
X215277Y217528D01*
X215207Y217455D01*
X215134Y217385D01*
X215058Y217318D01*
X214980Y217253D01*
X214900Y217191D01*
X214817Y217133D01*
X214732Y217077D01*
X214646Y217025D01*
X214557Y216976D01*
X214466Y216930D01*
X214374Y216888D01*
X214281Y216849D01*
X214186Y216814D01*
X214089Y216782D01*
X213992Y216754D01*
X213894Y216730D01*
X213795Y216709D01*
X213695Y216692D01*
X213594Y216679D01*
X213493Y216670D01*
X213392Y216664D01*
X213291Y216662D01*
X212388Y216662D01*
X206004Y216662D02*
X206004Y227499D01*
X200585Y227499D01*
X200585Y225693D01*
X195668Y223887D02*
X195668Y220274D01*
X195668Y223887D02*
X195666Y224006D01*
X195660Y224126D01*
X195650Y224245D01*
X195636Y224363D01*
X195619Y224482D01*
X195597Y224599D01*
X195572Y224716D01*
X195542Y224831D01*
X195509Y224946D01*
X195472Y225060D01*
X195432Y225172D01*
X195387Y225283D01*
X195339Y225392D01*
X195288Y225500D01*
X195233Y225606D01*
X195174Y225710D01*
X195112Y225812D01*
X195047Y225912D01*
X194978Y226010D01*
X194906Y226106D01*
X194831Y226199D01*
X194754Y226289D01*
X194673Y226377D01*
X194589Y226462D01*
X194502Y226544D01*
X194413Y226624D01*
X194321Y226700D01*
X194227Y226774D01*
X194130Y226844D01*
X194032Y226911D01*
X193931Y226975D01*
X193827Y227035D01*
X193722Y227092D01*
X193615Y227145D01*
X193507Y227195D01*
X193397Y227241D01*
X193285Y227283D01*
X193172Y227322D01*
X193058Y227357D01*
X192943Y227388D01*
X192826Y227416D01*
X192709Y227439D01*
X192592Y227459D01*
X192473Y227475D01*
X192354Y227487D01*
X192235Y227495D01*
X192116Y227499D01*
X191996Y227499D01*
X191877Y227495D01*
X191758Y227487D01*
X191639Y227475D01*
X191520Y227459D01*
X191403Y227439D01*
X191286Y227416D01*
X191169Y227388D01*
X191054Y227357D01*
X190940Y227322D01*
X190827Y227283D01*
X190715Y227241D01*
X190605Y227195D01*
X190497Y227145D01*
X190390Y227092D01*
X190285Y227035D01*
X190181Y226975D01*
X190080Y226911D01*
X189982Y226844D01*
X189885Y226774D01*
X189791Y226700D01*
X189699Y226624D01*
X189610Y226544D01*
X189523Y226462D01*
X189439Y226377D01*
X189358Y226289D01*
X189281Y226199D01*
X189206Y226106D01*
X189134Y226010D01*
X189065Y225912D01*
X189000Y225812D01*
X188938Y225710D01*
X188879Y225606D01*
X188824Y225500D01*
X188773Y225392D01*
X188725Y225283D01*
X188680Y225172D01*
X188640Y225060D01*
X188603Y224946D01*
X188570Y224831D01*
X188540Y224716D01*
X188515Y224599D01*
X188493Y224482D01*
X188476Y224363D01*
X188462Y224245D01*
X188452Y224126D01*
X188446Y224006D01*
X188444Y223887D01*
X188443Y223887D02*
X188443Y220274D01*
X188444Y220274D02*
X188446Y220155D01*
X188452Y220035D01*
X188462Y219916D01*
X188476Y219798D01*
X188493Y219679D01*
X188515Y219562D01*
X188540Y219445D01*
X188570Y219330D01*
X188603Y219215D01*
X188640Y219101D01*
X188680Y218989D01*
X188725Y218878D01*
X188773Y218769D01*
X188824Y218661D01*
X188879Y218555D01*
X188938Y218451D01*
X189000Y218349D01*
X189065Y218249D01*
X189134Y218151D01*
X189206Y218055D01*
X189281Y217962D01*
X189358Y217872D01*
X189439Y217784D01*
X189523Y217699D01*
X189610Y217617D01*
X189699Y217537D01*
X189791Y217461D01*
X189885Y217387D01*
X189982Y217317D01*
X190080Y217250D01*
X190181Y217186D01*
X190285Y217126D01*
X190390Y217069D01*
X190497Y217016D01*
X190605Y216966D01*
X190715Y216920D01*
X190827Y216878D01*
X190940Y216839D01*
X191054Y216804D01*
X191169Y216773D01*
X191286Y216745D01*
X191403Y216722D01*
X191520Y216702D01*
X191639Y216686D01*
X191758Y216674D01*
X191877Y216666D01*
X191996Y216662D01*
X192116Y216662D01*
X192235Y216666D01*
X192354Y216674D01*
X192473Y216686D01*
X192592Y216702D01*
X192709Y216722D01*
X192826Y216745D01*
X192943Y216773D01*
X193058Y216804D01*
X193172Y216839D01*
X193285Y216878D01*
X193397Y216920D01*
X193507Y216966D01*
X193615Y217016D01*
X193722Y217069D01*
X193827Y217126D01*
X193931Y217186D01*
X194032Y217250D01*
X194130Y217317D01*
X194227Y217387D01*
X194321Y217461D01*
X194413Y217537D01*
X194502Y217617D01*
X194589Y217699D01*
X194673Y217784D01*
X194754Y217872D01*
X194831Y217962D01*
X194906Y218055D01*
X194978Y218151D01*
X195047Y218249D01*
X195112Y218349D01*
X195174Y218451D01*
X195233Y218555D01*
X195288Y218661D01*
X195339Y218769D01*
X195387Y218878D01*
X195432Y218989D01*
X195472Y219101D01*
X195509Y219215D01*
X195542Y219330D01*
X195572Y219445D01*
X195597Y219562D01*
X195619Y219679D01*
X195636Y219798D01*
X195650Y219916D01*
X195660Y220035D01*
X195666Y220155D01*
X195668Y220274D01*
X168678Y232918D02*
X168553Y232916D01*
X168428Y232910D01*
X168303Y232901D01*
X168179Y232887D01*
X168055Y232870D01*
X167931Y232849D01*
X167809Y232824D01*
X167687Y232795D01*
X167566Y232763D01*
X167446Y232727D01*
X167327Y232687D01*
X167210Y232644D01*
X167094Y232597D01*
X166979Y232546D01*
X166867Y232492D01*
X166755Y232434D01*
X166646Y232374D01*
X166539Y232309D01*
X166433Y232242D01*
X166330Y232171D01*
X166229Y232097D01*
X166130Y232020D01*
X166034Y231940D01*
X165940Y231857D01*
X165849Y231772D01*
X165760Y231683D01*
X165675Y231592D01*
X165592Y231498D01*
X165512Y231402D01*
X165435Y231303D01*
X165361Y231202D01*
X165290Y231099D01*
X165223Y230993D01*
X165158Y230886D01*
X165098Y230777D01*
X165040Y230665D01*
X164986Y230553D01*
X164935Y230438D01*
X164888Y230322D01*
X164845Y230205D01*
X164805Y230086D01*
X164769Y229966D01*
X164737Y229845D01*
X164708Y229723D01*
X164683Y229601D01*
X164662Y229477D01*
X164645Y229353D01*
X164631Y229229D01*
X164622Y229104D01*
X164616Y228979D01*
X164614Y228854D01*
X168678Y232918D02*
X168821Y232916D01*
X168963Y232910D01*
X169106Y232900D01*
X169248Y232887D01*
X169389Y232869D01*
X169531Y232848D01*
X169671Y232823D01*
X169811Y232794D01*
X169950Y232761D01*
X170088Y232724D01*
X170225Y232684D01*
X170360Y232640D01*
X170495Y232592D01*
X170628Y232540D01*
X170760Y232485D01*
X170890Y232426D01*
X171018Y232364D01*
X171145Y232298D01*
X171270Y232229D01*
X171393Y232157D01*
X171514Y232081D01*
X171632Y232002D01*
X171749Y231919D01*
X171863Y231834D01*
X171975Y231745D01*
X172084Y231654D01*
X172191Y231559D01*
X172296Y231462D01*
X172397Y231361D01*
X172496Y231258D01*
X172592Y231153D01*
X172685Y231044D01*
X172775Y230933D01*
X172862Y230820D01*
X172946Y230705D01*
X173026Y230587D01*
X173104Y230467D01*
X173178Y230345D01*
X173248Y230221D01*
X173316Y230095D01*
X173379Y229967D01*
X173440Y229838D01*
X173497Y229707D01*
X173550Y229575D01*
X173599Y229441D01*
X173645Y229306D01*
X165969Y225693D02*
X165875Y225785D01*
X165785Y225879D01*
X165697Y225976D01*
X165612Y226076D01*
X165530Y226178D01*
X165451Y226283D01*
X165376Y226390D01*
X165304Y226499D01*
X165235Y226610D01*
X165169Y226724D01*
X165107Y226839D01*
X165048Y226956D01*
X164993Y227075D01*
X164942Y227195D01*
X164894Y227317D01*
X164849Y227440D01*
X164809Y227564D01*
X164772Y227690D01*
X164739Y227817D01*
X164710Y227944D01*
X164684Y228073D01*
X164663Y228202D01*
X164645Y228332D01*
X164632Y228462D01*
X164622Y228592D01*
X164616Y228723D01*
X164614Y228854D01*
X165969Y225693D02*
X173645Y216662D01*
X164614Y216662D01*
X158014Y224790D02*
X158010Y225110D01*
X157999Y225429D01*
X157980Y225749D01*
X157953Y226067D01*
X157919Y226385D01*
X157877Y226702D01*
X157827Y227018D01*
X157770Y227333D01*
X157706Y227646D01*
X157634Y227958D01*
X157555Y228268D01*
X157468Y228575D01*
X157374Y228881D01*
X157273Y229184D01*
X157164Y229485D01*
X157049Y229783D01*
X156926Y230079D01*
X156796Y230371D01*
X156659Y230660D01*
X156660Y230661D02*
X156621Y230769D01*
X156578Y230876D01*
X156532Y230981D01*
X156481Y231085D01*
X156428Y231187D01*
X156371Y231287D01*
X156310Y231385D01*
X156246Y231480D01*
X156179Y231574D01*
X156108Y231665D01*
X156035Y231754D01*
X155958Y231840D01*
X155879Y231923D01*
X155797Y232004D01*
X155712Y232082D01*
X155624Y232156D01*
X155534Y232228D01*
X155442Y232296D01*
X155347Y232362D01*
X155250Y232424D01*
X155151Y232482D01*
X155049Y232538D01*
X154947Y232589D01*
X154842Y232637D01*
X154736Y232682D01*
X154628Y232723D01*
X154519Y232760D01*
X154409Y232793D01*
X154297Y232822D01*
X154185Y232848D01*
X154072Y232870D01*
X153958Y232887D01*
X153844Y232901D01*
X153729Y232911D01*
X153614Y232917D01*
X153499Y232919D01*
X153499Y232918D02*
X153384Y232916D01*
X153269Y232910D01*
X153154Y232900D01*
X153040Y232886D01*
X152926Y232869D01*
X152813Y232847D01*
X152701Y232821D01*
X152589Y232792D01*
X152479Y232759D01*
X152370Y232722D01*
X152262Y232681D01*
X152156Y232636D01*
X152052Y232588D01*
X151949Y232537D01*
X151848Y232481D01*
X151748Y232423D01*
X151651Y232361D01*
X151557Y232296D01*
X151464Y232227D01*
X151374Y232155D01*
X151286Y232081D01*
X151201Y232003D01*
X151119Y231922D01*
X151040Y231839D01*
X150963Y231753D01*
X150890Y231664D01*
X150819Y231573D01*
X150752Y231479D01*
X150688Y231384D01*
X150627Y231286D01*
X150570Y231186D01*
X150517Y231084D01*
X150466Y230980D01*
X150420Y230875D01*
X150377Y230768D01*
X150338Y230660D01*
X150201Y230371D01*
X150071Y230079D01*
X149948Y229783D01*
X149833Y229485D01*
X149724Y229184D01*
X149623Y228881D01*
X149529Y228575D01*
X149442Y228268D01*
X149363Y227958D01*
X149291Y227646D01*
X149227Y227333D01*
X149170Y227018D01*
X149120Y226702D01*
X149078Y226385D01*
X149044Y226067D01*
X149017Y225749D01*
X148998Y225429D01*
X148987Y225110D01*
X148983Y224790D01*
X158014Y224790D02*
X158010Y224470D01*
X157999Y224151D01*
X157980Y223831D01*
X157953Y223513D01*
X157919Y223195D01*
X157877Y222878D01*
X157827Y222562D01*
X157770Y222247D01*
X157706Y221934D01*
X157634Y221622D01*
X157555Y221312D01*
X157468Y221005D01*
X157374Y220699D01*
X157273Y220396D01*
X157164Y220095D01*
X157049Y219797D01*
X156926Y219501D01*
X156796Y219209D01*
X156659Y218920D01*
X156660Y218920D02*
X156621Y218812D01*
X156578Y218705D01*
X156532Y218600D01*
X156481Y218496D01*
X156428Y218394D01*
X156371Y218294D01*
X156310Y218196D01*
X156246Y218101D01*
X156179Y218007D01*
X156108Y217916D01*
X156035Y217827D01*
X155958Y217741D01*
X155879Y217658D01*
X155797Y217577D01*
X155712Y217499D01*
X155624Y217425D01*
X155534Y217353D01*
X155441Y217284D01*
X155347Y217219D01*
X155250Y217157D01*
X155150Y217099D01*
X155049Y217043D01*
X154947Y216992D01*
X154842Y216944D01*
X154736Y216899D01*
X154628Y216858D01*
X154519Y216821D01*
X154409Y216788D01*
X154297Y216759D01*
X154185Y216733D01*
X154072Y216711D01*
X153958Y216694D01*
X153844Y216680D01*
X153729Y216670D01*
X153614Y216664D01*
X153499Y216662D01*
X150338Y218920D02*
X150201Y219209D01*
X150071Y219501D01*
X149948Y219797D01*
X149833Y220095D01*
X149724Y220396D01*
X149623Y220699D01*
X149529Y221005D01*
X149442Y221312D01*
X149363Y221622D01*
X149291Y221934D01*
X149227Y222247D01*
X149170Y222562D01*
X149120Y222878D01*
X149078Y223195D01*
X149044Y223513D01*
X149017Y223831D01*
X148998Y224151D01*
X148987Y224470D01*
X148983Y224790D01*
X150338Y218920D02*
X150377Y218812D01*
X150420Y218705D01*
X150466Y218600D01*
X150517Y218496D01*
X150570Y218394D01*
X150628Y218294D01*
X150688Y218196D01*
X150752Y218101D01*
X150819Y218007D01*
X150890Y217916D01*
X150963Y217827D01*
X151040Y217741D01*
X151119Y217658D01*
X151201Y217577D01*
X151286Y217499D01*
X151374Y217425D01*
X151464Y217353D01*
X151557Y217284D01*
X151651Y217219D01*
X151748Y217157D01*
X151848Y217099D01*
X151949Y217043D01*
X152052Y216992D01*
X152156Y216944D01*
X152262Y216899D01*
X152370Y216858D01*
X152479Y216821D01*
X152589Y216788D01*
X152701Y216759D01*
X152813Y216733D01*
X152926Y216711D01*
X153040Y216694D01*
X153154Y216680D01*
X153269Y216670D01*
X153384Y216664D01*
X153499Y216662D01*
X157111Y220274D02*
X149886Y229306D01*
X137416Y232918D02*
X137291Y232916D01*
X137166Y232910D01*
X137041Y232901D01*
X136917Y232887D01*
X136793Y232870D01*
X136669Y232849D01*
X136547Y232824D01*
X136425Y232795D01*
X136304Y232763D01*
X136184Y232727D01*
X136065Y232687D01*
X135948Y232644D01*
X135832Y232597D01*
X135717Y232546D01*
X135605Y232492D01*
X135493Y232434D01*
X135384Y232374D01*
X135277Y232309D01*
X135171Y232242D01*
X135068Y232171D01*
X134967Y232097D01*
X134868Y232020D01*
X134772Y231940D01*
X134678Y231857D01*
X134587Y231772D01*
X134498Y231683D01*
X134413Y231592D01*
X134330Y231498D01*
X134250Y231402D01*
X134173Y231303D01*
X134099Y231202D01*
X134028Y231099D01*
X133961Y230993D01*
X133896Y230886D01*
X133836Y230777D01*
X133778Y230665D01*
X133724Y230553D01*
X133673Y230438D01*
X133626Y230322D01*
X133583Y230205D01*
X133543Y230086D01*
X133507Y229966D01*
X133475Y229845D01*
X133446Y229723D01*
X133421Y229601D01*
X133400Y229477D01*
X133383Y229353D01*
X133369Y229229D01*
X133360Y229104D01*
X133354Y228979D01*
X133352Y228854D01*
X137416Y232918D02*
X137559Y232916D01*
X137701Y232910D01*
X137844Y232900D01*
X137986Y232887D01*
X138127Y232869D01*
X138269Y232848D01*
X138409Y232823D01*
X138549Y232794D01*
X138688Y232761D01*
X138826Y232724D01*
X138963Y232684D01*
X139098Y232640D01*
X139233Y232592D01*
X139366Y232540D01*
X139498Y232485D01*
X139628Y232426D01*
X139756Y232364D01*
X139883Y232298D01*
X140008Y232229D01*
X140131Y232157D01*
X140252Y232081D01*
X140370Y232002D01*
X140487Y231919D01*
X140601Y231834D01*
X140713Y231745D01*
X140822Y231654D01*
X140929Y231559D01*
X141034Y231462D01*
X141135Y231361D01*
X141234Y231258D01*
X141330Y231153D01*
X141423Y231044D01*
X141513Y230933D01*
X141600Y230820D01*
X141684Y230705D01*
X141764Y230587D01*
X141842Y230467D01*
X141916Y230345D01*
X141986Y230221D01*
X142054Y230095D01*
X142117Y229967D01*
X142178Y229838D01*
X142235Y229707D01*
X142288Y229575D01*
X142337Y229441D01*
X142383Y229306D01*
X134707Y225693D02*
X134613Y225785D01*
X134523Y225879D01*
X134435Y225976D01*
X134350Y226076D01*
X134268Y226178D01*
X134189Y226283D01*
X134114Y226390D01*
X134042Y226499D01*
X133973Y226610D01*
X133907Y226724D01*
X133845Y226839D01*
X133786Y226956D01*
X133731Y227075D01*
X133680Y227195D01*
X133632Y227317D01*
X133587Y227440D01*
X133547Y227564D01*
X133510Y227690D01*
X133477Y227817D01*
X133448Y227944D01*
X133422Y228073D01*
X133401Y228202D01*
X133383Y228332D01*
X133370Y228462D01*
X133360Y228592D01*
X133354Y228723D01*
X133352Y228854D01*
X134706Y225693D02*
X142383Y216662D01*
X133352Y216662D01*
X126751Y224790D02*
X126747Y225110D01*
X126736Y225429D01*
X126717Y225749D01*
X126690Y226067D01*
X126656Y226385D01*
X126614Y226702D01*
X126564Y227018D01*
X126507Y227333D01*
X126443Y227646D01*
X126371Y227958D01*
X126292Y228268D01*
X126205Y228575D01*
X126111Y228881D01*
X126010Y229184D01*
X125901Y229485D01*
X125786Y229783D01*
X125663Y230079D01*
X125533Y230371D01*
X125396Y230660D01*
X125397Y230661D02*
X125358Y230769D01*
X125315Y230876D01*
X125269Y230981D01*
X125218Y231085D01*
X125165Y231187D01*
X125108Y231287D01*
X125047Y231385D01*
X124983Y231480D01*
X124916Y231574D01*
X124845Y231665D01*
X124772Y231754D01*
X124695Y231840D01*
X124616Y231923D01*
X124534Y232004D01*
X124449Y232082D01*
X124361Y232156D01*
X124271Y232228D01*
X124179Y232296D01*
X124084Y232362D01*
X123987Y232424D01*
X123888Y232482D01*
X123786Y232538D01*
X123684Y232589D01*
X123579Y232637D01*
X123473Y232682D01*
X123365Y232723D01*
X123256Y232760D01*
X123146Y232793D01*
X123034Y232822D01*
X122922Y232848D01*
X122809Y232870D01*
X122695Y232887D01*
X122581Y232901D01*
X122466Y232911D01*
X122351Y232917D01*
X122236Y232919D01*
X122236Y232918D02*
X122121Y232916D01*
X122006Y232910D01*
X121891Y232900D01*
X121777Y232886D01*
X121663Y232869D01*
X121550Y232847D01*
X121438Y232821D01*
X121326Y232792D01*
X121216Y232759D01*
X121107Y232722D01*
X120999Y232681D01*
X120893Y232636D01*
X120789Y232588D01*
X120686Y232537D01*
X120585Y232481D01*
X120485Y232423D01*
X120388Y232361D01*
X120294Y232296D01*
X120201Y232227D01*
X120111Y232155D01*
X120023Y232081D01*
X119938Y232003D01*
X119856Y231922D01*
X119777Y231839D01*
X119700Y231753D01*
X119627Y231664D01*
X119556Y231573D01*
X119489Y231479D01*
X119425Y231384D01*
X119364Y231286D01*
X119307Y231186D01*
X119254Y231084D01*
X119203Y230980D01*
X119157Y230875D01*
X119114Y230768D01*
X119075Y230660D01*
X119076Y230660D02*
X118939Y230371D01*
X118809Y230079D01*
X118686Y229783D01*
X118571Y229485D01*
X118462Y229184D01*
X118361Y228881D01*
X118267Y228575D01*
X118180Y228268D01*
X118101Y227958D01*
X118029Y227646D01*
X117965Y227333D01*
X117908Y227018D01*
X117858Y226702D01*
X117816Y226385D01*
X117782Y226067D01*
X117755Y225749D01*
X117736Y225429D01*
X117725Y225110D01*
X117721Y224790D01*
X126751Y224790D02*
X126747Y224470D01*
X126736Y224151D01*
X126717Y223831D01*
X126690Y223513D01*
X126656Y223195D01*
X126614Y222878D01*
X126564Y222562D01*
X126507Y222247D01*
X126443Y221934D01*
X126371Y221622D01*
X126292Y221312D01*
X126205Y221005D01*
X126111Y220699D01*
X126010Y220396D01*
X125901Y220095D01*
X125786Y219797D01*
X125663Y219501D01*
X125533Y219209D01*
X125396Y218920D01*
X125397Y218920D02*
X125358Y218812D01*
X125315Y218705D01*
X125269Y218600D01*
X125218Y218496D01*
X125165Y218394D01*
X125108Y218294D01*
X125047Y218196D01*
X124983Y218101D01*
X124916Y218007D01*
X124845Y217916D01*
X124772Y217827D01*
X124695Y217741D01*
X124616Y217658D01*
X124534Y217577D01*
X124449Y217499D01*
X124361Y217425D01*
X124271Y217353D01*
X124178Y217284D01*
X124084Y217219D01*
X123987Y217157D01*
X123887Y217099D01*
X123786Y217043D01*
X123684Y216992D01*
X123579Y216944D01*
X123473Y216899D01*
X123365Y216858D01*
X123256Y216821D01*
X123146Y216788D01*
X123034Y216759D01*
X122922Y216733D01*
X122809Y216711D01*
X122695Y216694D01*
X122581Y216680D01*
X122466Y216670D01*
X122351Y216664D01*
X122236Y216662D01*
X119076Y218920D02*
X118939Y219209D01*
X118809Y219501D01*
X118686Y219797D01*
X118571Y220095D01*
X118462Y220396D01*
X118361Y220699D01*
X118267Y221005D01*
X118180Y221312D01*
X118101Y221622D01*
X118029Y221934D01*
X117965Y222247D01*
X117908Y222562D01*
X117858Y222878D01*
X117816Y223195D01*
X117782Y223513D01*
X117755Y223831D01*
X117736Y224151D01*
X117725Y224470D01*
X117721Y224790D01*
X119075Y218920D02*
X119114Y218812D01*
X119157Y218705D01*
X119203Y218600D01*
X119254Y218496D01*
X119307Y218394D01*
X119365Y218294D01*
X119425Y218196D01*
X119489Y218101D01*
X119556Y218007D01*
X119627Y217916D01*
X119700Y217827D01*
X119777Y217741D01*
X119856Y217658D01*
X119938Y217577D01*
X120023Y217499D01*
X120111Y217425D01*
X120201Y217353D01*
X120294Y217284D01*
X120388Y217219D01*
X120485Y217157D01*
X120585Y217099D01*
X120686Y217043D01*
X120789Y216992D01*
X120893Y216944D01*
X120999Y216899D01*
X121107Y216858D01*
X121216Y216821D01*
X121326Y216788D01*
X121438Y216759D01*
X121550Y216733D01*
X121663Y216711D01*
X121777Y216694D01*
X121891Y216680D01*
X122006Y216670D01*
X122121Y216664D01*
X122236Y216662D01*
X125849Y220274D02*
X118624Y229306D01*
X418338Y473371D02*
X418338Y481499D01*
X418338Y473371D02*
X418336Y473270D01*
X418330Y473169D01*
X418321Y473068D01*
X418308Y472967D01*
X418291Y472867D01*
X418270Y472768D01*
X418246Y472670D01*
X418218Y472573D01*
X418186Y472476D01*
X418151Y472381D01*
X418112Y472288D01*
X418070Y472196D01*
X418024Y472105D01*
X417975Y472017D01*
X417923Y471930D01*
X417867Y471845D01*
X417809Y471762D01*
X417747Y471682D01*
X417682Y471604D01*
X417615Y471528D01*
X417545Y471455D01*
X417472Y471385D01*
X417396Y471318D01*
X417318Y471253D01*
X417238Y471191D01*
X417155Y471133D01*
X417070Y471077D01*
X416984Y471025D01*
X416895Y470976D01*
X416804Y470930D01*
X416712Y470888D01*
X416619Y470849D01*
X416524Y470814D01*
X416427Y470782D01*
X416330Y470754D01*
X416232Y470730D01*
X416133Y470709D01*
X416033Y470692D01*
X415932Y470679D01*
X415831Y470670D01*
X415730Y470664D01*
X415629Y470662D01*
X411113Y470662D01*
X411113Y481499D01*
X402915Y476984D02*
X398400Y475178D01*
X402916Y476984D02*
X403004Y477021D01*
X403090Y477062D01*
X403175Y477106D01*
X403258Y477154D01*
X403338Y477205D01*
X403417Y477259D01*
X403493Y477317D01*
X403567Y477377D01*
X403639Y477441D01*
X403707Y477507D01*
X403773Y477577D01*
X403836Y477648D01*
X403897Y477723D01*
X403954Y477799D01*
X404007Y477878D01*
X404058Y477959D01*
X404105Y478042D01*
X404149Y478127D01*
X404189Y478214D01*
X404226Y478302D01*
X404259Y478392D01*
X404289Y478483D01*
X404314Y478575D01*
X404336Y478668D01*
X404354Y478762D01*
X404369Y478856D01*
X404379Y478951D01*
X404385Y479047D01*
X404388Y479142D01*
X404387Y479238D01*
X404381Y479333D01*
X404372Y479429D01*
X404359Y479523D01*
X404343Y479617D01*
X404322Y479711D01*
X404297Y479803D01*
X404269Y479894D01*
X404237Y479984D01*
X404202Y480073D01*
X404163Y480160D01*
X404120Y480246D01*
X404074Y480330D01*
X404024Y480411D01*
X403972Y480491D01*
X403916Y480569D01*
X403856Y480644D01*
X403794Y480716D01*
X403729Y480786D01*
X403661Y480854D01*
X403591Y480918D01*
X403518Y480980D01*
X403442Y481038D01*
X403364Y481094D01*
X403284Y481146D01*
X403202Y481195D01*
X403118Y481240D01*
X403032Y481282D01*
X402945Y481321D01*
X402856Y481356D01*
X402765Y481387D01*
X402674Y481414D01*
X402581Y481438D01*
X402488Y481458D01*
X402394Y481474D01*
X402299Y481486D01*
X402204Y481495D01*
X402108Y481499D01*
X402013Y481500D01*
X401766Y481493D01*
X401520Y481481D01*
X401274Y481463D01*
X401028Y481438D01*
X400784Y481408D01*
X400540Y481372D01*
X400297Y481331D01*
X400055Y481283D01*
X399814Y481229D01*
X399575Y481170D01*
X399337Y481105D01*
X399101Y481034D01*
X398866Y480958D01*
X398633Y480876D01*
X398403Y480788D01*
X398175Y480695D01*
X397948Y480597D01*
X398399Y475177D02*
X398311Y475140D01*
X398225Y475099D01*
X398140Y475055D01*
X398057Y475007D01*
X397977Y474956D01*
X397898Y474902D01*
X397822Y474844D01*
X397748Y474784D01*
X397676Y474720D01*
X397608Y474654D01*
X397542Y474584D01*
X397479Y474513D01*
X397418Y474438D01*
X397361Y474362D01*
X397308Y474283D01*
X397257Y474202D01*
X397210Y474119D01*
X397166Y474034D01*
X397126Y473947D01*
X397089Y473859D01*
X397056Y473769D01*
X397026Y473678D01*
X397001Y473586D01*
X396979Y473493D01*
X396961Y473399D01*
X396946Y473305D01*
X396936Y473210D01*
X396930Y473114D01*
X396927Y473019D01*
X396928Y472923D01*
X396934Y472828D01*
X396943Y472732D01*
X396956Y472638D01*
X396972Y472544D01*
X396993Y472450D01*
X397018Y472358D01*
X397046Y472267D01*
X397078Y472177D01*
X397113Y472088D01*
X397152Y472001D01*
X397195Y471915D01*
X397241Y471831D01*
X397291Y471750D01*
X397343Y471670D01*
X397399Y471592D01*
X397459Y471517D01*
X397521Y471445D01*
X397586Y471375D01*
X397654Y471307D01*
X397724Y471243D01*
X397797Y471181D01*
X397873Y471123D01*
X397951Y471067D01*
X398031Y471015D01*
X398113Y470966D01*
X398197Y470921D01*
X398283Y470879D01*
X398370Y470840D01*
X398459Y470805D01*
X398550Y470774D01*
X398641Y470747D01*
X398734Y470723D01*
X398827Y470703D01*
X398921Y470687D01*
X399016Y470675D01*
X399111Y470666D01*
X399207Y470662D01*
X399302Y470661D01*
X399303Y470662D02*
X399665Y470671D01*
X400027Y470689D01*
X400388Y470716D01*
X400748Y470751D01*
X401108Y470794D01*
X401467Y470846D01*
X401824Y470907D01*
X402179Y470976D01*
X402533Y471053D01*
X402885Y471139D01*
X403235Y471233D01*
X403583Y471336D01*
X403928Y471446D01*
X404270Y471565D01*
X388014Y470662D02*
X383498Y470662D01*
X388014Y470662D02*
X388115Y470664D01*
X388216Y470670D01*
X388317Y470679D01*
X388418Y470692D01*
X388518Y470709D01*
X388617Y470730D01*
X388715Y470754D01*
X388812Y470782D01*
X388909Y470814D01*
X389004Y470849D01*
X389097Y470888D01*
X389189Y470930D01*
X389280Y470976D01*
X389369Y471025D01*
X389455Y471077D01*
X389540Y471133D01*
X389623Y471191D01*
X389703Y471253D01*
X389781Y471318D01*
X389857Y471385D01*
X389930Y471455D01*
X390000Y471528D01*
X390067Y471604D01*
X390132Y471682D01*
X390194Y471762D01*
X390252Y471845D01*
X390308Y471930D01*
X390360Y472017D01*
X390409Y472105D01*
X390455Y472196D01*
X390497Y472288D01*
X390536Y472381D01*
X390571Y472476D01*
X390603Y472573D01*
X390631Y472670D01*
X390655Y472768D01*
X390676Y472867D01*
X390693Y472967D01*
X390706Y473068D01*
X390715Y473169D01*
X390721Y473270D01*
X390723Y473371D01*
X390723Y477887D01*
X390722Y477887D02*
X390720Y478006D01*
X390714Y478126D01*
X390704Y478245D01*
X390690Y478363D01*
X390673Y478482D01*
X390651Y478599D01*
X390626Y478716D01*
X390596Y478831D01*
X390563Y478946D01*
X390526Y479060D01*
X390486Y479172D01*
X390441Y479283D01*
X390393Y479392D01*
X390342Y479500D01*
X390287Y479606D01*
X390228Y479710D01*
X390166Y479812D01*
X390101Y479912D01*
X390032Y480010D01*
X389960Y480106D01*
X389885Y480199D01*
X389808Y480289D01*
X389727Y480377D01*
X389643Y480462D01*
X389556Y480544D01*
X389467Y480624D01*
X389375Y480700D01*
X389281Y480774D01*
X389184Y480844D01*
X389086Y480911D01*
X388985Y480975D01*
X388881Y481035D01*
X388776Y481092D01*
X388669Y481145D01*
X388561Y481195D01*
X388451Y481241D01*
X388339Y481283D01*
X388226Y481322D01*
X388112Y481357D01*
X387997Y481388D01*
X387880Y481416D01*
X387763Y481439D01*
X387646Y481459D01*
X387527Y481475D01*
X387408Y481487D01*
X387289Y481495D01*
X387170Y481499D01*
X387050Y481499D01*
X386931Y481495D01*
X386812Y481487D01*
X386693Y481475D01*
X386574Y481459D01*
X386457Y481439D01*
X386340Y481416D01*
X386223Y481388D01*
X386108Y481357D01*
X385994Y481322D01*
X385881Y481283D01*
X385769Y481241D01*
X385659Y481195D01*
X385551Y481145D01*
X385444Y481092D01*
X385339Y481035D01*
X385235Y480975D01*
X385134Y480911D01*
X385036Y480844D01*
X384939Y480774D01*
X384845Y480700D01*
X384753Y480624D01*
X384664Y480544D01*
X384577Y480462D01*
X384493Y480377D01*
X384412Y480289D01*
X384335Y480199D01*
X384260Y480106D01*
X384188Y480010D01*
X384119Y479912D01*
X384054Y479812D01*
X383992Y479710D01*
X383933Y479606D01*
X383878Y479500D01*
X383827Y479392D01*
X383779Y479283D01*
X383734Y479172D01*
X383694Y479060D01*
X383657Y478946D01*
X383624Y478831D01*
X383594Y478716D01*
X383569Y478599D01*
X383547Y478482D01*
X383530Y478363D01*
X383516Y478245D01*
X383506Y478126D01*
X383500Y478006D01*
X383498Y477887D01*
X383498Y476081D01*
X390723Y476081D01*
X368700Y483306D02*
X364185Y486918D01*
X364185Y470662D01*
X368700Y470662D02*
X359669Y470662D01*
X352409Y470662D02*
X352409Y486918D01*
X346990Y477887D01*
X341572Y486918D01*
X341572Y470662D01*
X333856Y470662D02*
X333856Y486918D01*
X333856Y470662D02*
X329341Y470662D01*
X329237Y470664D01*
X329134Y470670D01*
X329030Y470680D01*
X328927Y470694D01*
X328825Y470712D01*
X328724Y470733D01*
X328623Y470759D01*
X328524Y470788D01*
X328425Y470821D01*
X328328Y470858D01*
X328233Y470899D01*
X328139Y470943D01*
X328047Y470991D01*
X327957Y471042D01*
X327868Y471097D01*
X327782Y471155D01*
X327699Y471217D01*
X327617Y471281D01*
X327539Y471349D01*
X327463Y471419D01*
X327389Y471492D01*
X327319Y471569D01*
X327251Y471647D01*
X327187Y471729D01*
X327125Y471812D01*
X327067Y471898D01*
X327012Y471987D01*
X326961Y472077D01*
X326913Y472169D01*
X326869Y472263D01*
X326828Y472358D01*
X326791Y472455D01*
X326758Y472554D01*
X326729Y472653D01*
X326703Y472754D01*
X326682Y472855D01*
X326664Y472957D01*
X326650Y473060D01*
X326640Y473164D01*
X326634Y473267D01*
X326632Y473371D01*
X326631Y473371D02*
X326631Y478790D01*
X326632Y478790D02*
X326634Y478891D01*
X326640Y478992D01*
X326649Y479093D01*
X326662Y479194D01*
X326679Y479294D01*
X326700Y479393D01*
X326724Y479491D01*
X326752Y479588D01*
X326784Y479685D01*
X326819Y479780D01*
X326858Y479873D01*
X326900Y479965D01*
X326946Y480056D01*
X326995Y480145D01*
X327047Y480231D01*
X327103Y480316D01*
X327161Y480399D01*
X327223Y480479D01*
X327288Y480557D01*
X327355Y480633D01*
X327425Y480706D01*
X327498Y480776D01*
X327574Y480843D01*
X327652Y480908D01*
X327732Y480970D01*
X327815Y481028D01*
X327900Y481084D01*
X327987Y481136D01*
X328075Y481185D01*
X328166Y481231D01*
X328258Y481273D01*
X328351Y481312D01*
X328446Y481347D01*
X328543Y481379D01*
X328640Y481407D01*
X328738Y481431D01*
X328837Y481452D01*
X328937Y481469D01*
X329038Y481482D01*
X329139Y481491D01*
X329240Y481497D01*
X329341Y481499D01*
X333856Y481499D01*
X320417Y481499D02*
X320417Y470662D01*
X320869Y486015D02*
X320869Y486918D01*
X319966Y486918D01*
X319966Y486015D01*
X320869Y486015D01*
X315427Y481499D02*
X310009Y481499D01*
X313621Y486918D02*
X313621Y473371D01*
X313619Y473270D01*
X313613Y473169D01*
X313604Y473068D01*
X313591Y472967D01*
X313574Y472867D01*
X313553Y472768D01*
X313529Y472670D01*
X313501Y472573D01*
X313469Y472476D01*
X313434Y472381D01*
X313395Y472288D01*
X313353Y472196D01*
X313307Y472105D01*
X313258Y472017D01*
X313206Y471930D01*
X313150Y471845D01*
X313092Y471762D01*
X313030Y471682D01*
X312965Y471604D01*
X312898Y471528D01*
X312828Y471455D01*
X312755Y471385D01*
X312679Y471318D01*
X312601Y471253D01*
X312521Y471191D01*
X312438Y471133D01*
X312353Y471077D01*
X312267Y471025D01*
X312178Y470976D01*
X312087Y470930D01*
X311995Y470888D01*
X311902Y470849D01*
X311807Y470814D01*
X311710Y470782D01*
X311613Y470754D01*
X311515Y470730D01*
X311416Y470709D01*
X311316Y470692D01*
X311215Y470679D01*
X311114Y470670D01*
X311013Y470664D01*
X310912Y470662D01*
X310009Y470662D01*
X295755Y483306D02*
X291239Y486918D01*
X291239Y470662D01*
X295755Y470662D02*
X286723Y470662D01*
X271092Y482854D02*
X271094Y482979D01*
X271100Y483104D01*
X271109Y483229D01*
X271123Y483353D01*
X271140Y483477D01*
X271161Y483601D01*
X271186Y483723D01*
X271215Y483845D01*
X271247Y483966D01*
X271283Y484086D01*
X271323Y484205D01*
X271366Y484322D01*
X271413Y484438D01*
X271464Y484553D01*
X271518Y484665D01*
X271576Y484777D01*
X271636Y484886D01*
X271701Y484993D01*
X271768Y485099D01*
X271839Y485202D01*
X271913Y485303D01*
X271990Y485402D01*
X272070Y485498D01*
X272153Y485592D01*
X272238Y485683D01*
X272327Y485772D01*
X272418Y485857D01*
X272512Y485940D01*
X272608Y486020D01*
X272707Y486097D01*
X272808Y486171D01*
X272911Y486242D01*
X273017Y486309D01*
X273124Y486374D01*
X273233Y486434D01*
X273345Y486492D01*
X273457Y486546D01*
X273572Y486597D01*
X273688Y486644D01*
X273805Y486687D01*
X273924Y486727D01*
X274044Y486763D01*
X274165Y486795D01*
X274287Y486824D01*
X274409Y486849D01*
X274533Y486870D01*
X274657Y486887D01*
X274781Y486901D01*
X274906Y486910D01*
X275031Y486916D01*
X275156Y486918D01*
X275299Y486916D01*
X275441Y486910D01*
X275584Y486900D01*
X275726Y486887D01*
X275867Y486869D01*
X276009Y486848D01*
X276149Y486823D01*
X276289Y486794D01*
X276428Y486761D01*
X276566Y486724D01*
X276703Y486684D01*
X276838Y486640D01*
X276973Y486592D01*
X277106Y486540D01*
X277238Y486485D01*
X277368Y486426D01*
X277496Y486364D01*
X277623Y486298D01*
X277748Y486229D01*
X277871Y486157D01*
X277992Y486081D01*
X278110Y486002D01*
X278227Y485919D01*
X278341Y485834D01*
X278453Y485745D01*
X278562Y485654D01*
X278669Y485559D01*
X278774Y485462D01*
X278875Y485361D01*
X278974Y485258D01*
X279070Y485153D01*
X279163Y485044D01*
X279253Y484933D01*
X279340Y484820D01*
X279424Y484705D01*
X279504Y484587D01*
X279582Y484467D01*
X279656Y484345D01*
X279726Y484221D01*
X279794Y484095D01*
X279857Y483967D01*
X279918Y483838D01*
X279975Y483707D01*
X280028Y483575D01*
X280077Y483441D01*
X280123Y483306D01*
X272447Y479693D02*
X272353Y479785D01*
X272263Y479879D01*
X272175Y479976D01*
X272090Y480076D01*
X272008Y480178D01*
X271929Y480283D01*
X271854Y480390D01*
X271782Y480499D01*
X271713Y480610D01*
X271647Y480724D01*
X271585Y480839D01*
X271526Y480956D01*
X271471Y481075D01*
X271420Y481195D01*
X271372Y481317D01*
X271327Y481440D01*
X271287Y481564D01*
X271250Y481690D01*
X271217Y481817D01*
X271188Y481944D01*
X271162Y482073D01*
X271141Y482202D01*
X271123Y482332D01*
X271110Y482462D01*
X271100Y482592D01*
X271094Y482723D01*
X271092Y482854D01*
X272447Y479693D02*
X280123Y470662D01*
X271092Y470662D01*
X264493Y475178D02*
X264491Y475311D01*
X264485Y475443D01*
X264475Y475575D01*
X264462Y475707D01*
X264444Y475839D01*
X264423Y475969D01*
X264398Y476100D01*
X264369Y476229D01*
X264336Y476357D01*
X264300Y476485D01*
X264260Y476611D01*
X264216Y476736D01*
X264168Y476860D01*
X264117Y476982D01*
X264062Y477103D01*
X264004Y477222D01*
X263942Y477340D01*
X263877Y477455D01*
X263808Y477569D01*
X263737Y477680D01*
X263661Y477789D01*
X263583Y477896D01*
X263502Y478001D01*
X263417Y478103D01*
X263330Y478203D01*
X263240Y478300D01*
X263147Y478395D01*
X263051Y478486D01*
X262953Y478575D01*
X262852Y478661D01*
X262748Y478744D01*
X262642Y478824D01*
X262534Y478900D01*
X262424Y478974D01*
X262311Y479044D01*
X262197Y479111D01*
X262080Y479174D01*
X261962Y479234D01*
X261842Y479291D01*
X261720Y479344D01*
X261597Y479393D01*
X261473Y479439D01*
X261347Y479481D01*
X261220Y479519D01*
X261092Y479554D01*
X260963Y479585D01*
X260834Y479612D01*
X260703Y479635D01*
X260572Y479655D01*
X260440Y479670D01*
X260308Y479682D01*
X260176Y479690D01*
X260043Y479694D01*
X259911Y479694D01*
X259778Y479690D01*
X259646Y479682D01*
X259514Y479670D01*
X259382Y479655D01*
X259251Y479635D01*
X259120Y479612D01*
X258991Y479585D01*
X258862Y479554D01*
X258734Y479519D01*
X258607Y479481D01*
X258481Y479439D01*
X258357Y479393D01*
X258234Y479344D01*
X258112Y479291D01*
X257992Y479234D01*
X257874Y479174D01*
X257757Y479111D01*
X257643Y479044D01*
X257530Y478974D01*
X257420Y478900D01*
X257312Y478824D01*
X257206Y478744D01*
X257102Y478661D01*
X257001Y478575D01*
X256903Y478486D01*
X256807Y478395D01*
X256714Y478300D01*
X256624Y478203D01*
X256537Y478103D01*
X256452Y478001D01*
X256371Y477896D01*
X256293Y477789D01*
X256217Y477680D01*
X256146Y477569D01*
X256077Y477455D01*
X256012Y477340D01*
X255950Y477222D01*
X255892Y477103D01*
X255837Y476982D01*
X255786Y476860D01*
X255738Y476736D01*
X255694Y476611D01*
X255654Y476485D01*
X255618Y476357D01*
X255585Y476229D01*
X255556Y476100D01*
X255531Y475969D01*
X255510Y475839D01*
X255492Y475707D01*
X255479Y475575D01*
X255469Y475443D01*
X255463Y475311D01*
X255461Y475178D01*
X255463Y475045D01*
X255469Y474913D01*
X255479Y474781D01*
X255492Y474649D01*
X255510Y474517D01*
X255531Y474387D01*
X255556Y474256D01*
X255585Y474127D01*
X255618Y473999D01*
X255654Y473871D01*
X255694Y473745D01*
X255738Y473620D01*
X255786Y473496D01*
X255837Y473374D01*
X255892Y473253D01*
X255950Y473134D01*
X256012Y473016D01*
X256077Y472901D01*
X256146Y472787D01*
X256217Y472676D01*
X256293Y472567D01*
X256371Y472460D01*
X256452Y472355D01*
X256537Y472253D01*
X256624Y472153D01*
X256714Y472056D01*
X256807Y471961D01*
X256903Y471870D01*
X257001Y471781D01*
X257102Y471695D01*
X257206Y471612D01*
X257312Y471532D01*
X257420Y471456D01*
X257530Y471382D01*
X257643Y471312D01*
X257757Y471245D01*
X257874Y471182D01*
X257992Y471122D01*
X258112Y471065D01*
X258234Y471012D01*
X258357Y470963D01*
X258481Y470917D01*
X258607Y470875D01*
X258734Y470837D01*
X258862Y470802D01*
X258991Y470771D01*
X259120Y470744D01*
X259251Y470721D01*
X259382Y470701D01*
X259514Y470686D01*
X259646Y470674D01*
X259778Y470666D01*
X259911Y470662D01*
X260043Y470662D01*
X260176Y470666D01*
X260308Y470674D01*
X260440Y470686D01*
X260572Y470701D01*
X260703Y470721D01*
X260834Y470744D01*
X260963Y470771D01*
X261092Y470802D01*
X261220Y470837D01*
X261347Y470875D01*
X261473Y470917D01*
X261597Y470963D01*
X261720Y471012D01*
X261842Y471065D01*
X261962Y471122D01*
X262080Y471182D01*
X262197Y471245D01*
X262311Y471312D01*
X262424Y471382D01*
X262534Y471456D01*
X262642Y471532D01*
X262748Y471612D01*
X262852Y471695D01*
X262953Y471781D01*
X263051Y471870D01*
X263147Y471961D01*
X263240Y472056D01*
X263330Y472153D01*
X263417Y472253D01*
X263502Y472355D01*
X263583Y472460D01*
X263661Y472567D01*
X263737Y472676D01*
X263808Y472787D01*
X263877Y472901D01*
X263942Y473016D01*
X264004Y473134D01*
X264062Y473253D01*
X264117Y473374D01*
X264168Y473496D01*
X264216Y473620D01*
X264260Y473745D01*
X264300Y473871D01*
X264336Y473999D01*
X264369Y474127D01*
X264398Y474256D01*
X264423Y474387D01*
X264444Y474517D01*
X264462Y474649D01*
X264475Y474781D01*
X264485Y474913D01*
X264491Y475045D01*
X264493Y475178D01*
X263589Y483306D02*
X263587Y483425D01*
X263581Y483545D01*
X263571Y483664D01*
X263557Y483782D01*
X263540Y483901D01*
X263518Y484018D01*
X263493Y484135D01*
X263463Y484250D01*
X263430Y484365D01*
X263393Y484479D01*
X263353Y484591D01*
X263308Y484702D01*
X263260Y484811D01*
X263209Y484919D01*
X263154Y485025D01*
X263095Y485129D01*
X263033Y485231D01*
X262968Y485331D01*
X262899Y485429D01*
X262827Y485525D01*
X262752Y485618D01*
X262675Y485708D01*
X262594Y485796D01*
X262510Y485881D01*
X262423Y485963D01*
X262334Y486043D01*
X262242Y486119D01*
X262148Y486193D01*
X262051Y486263D01*
X261953Y486330D01*
X261852Y486394D01*
X261748Y486454D01*
X261643Y486511D01*
X261536Y486564D01*
X261428Y486614D01*
X261318Y486660D01*
X261206Y486702D01*
X261093Y486741D01*
X260979Y486776D01*
X260864Y486807D01*
X260747Y486835D01*
X260630Y486858D01*
X260513Y486878D01*
X260394Y486894D01*
X260275Y486906D01*
X260156Y486914D01*
X260037Y486918D01*
X259917Y486918D01*
X259798Y486914D01*
X259679Y486906D01*
X259560Y486894D01*
X259441Y486878D01*
X259324Y486858D01*
X259207Y486835D01*
X259090Y486807D01*
X258975Y486776D01*
X258861Y486741D01*
X258748Y486702D01*
X258636Y486660D01*
X258526Y486614D01*
X258418Y486564D01*
X258311Y486511D01*
X258206Y486454D01*
X258102Y486394D01*
X258001Y486330D01*
X257903Y486263D01*
X257806Y486193D01*
X257712Y486119D01*
X257620Y486043D01*
X257531Y485963D01*
X257444Y485881D01*
X257360Y485796D01*
X257279Y485708D01*
X257202Y485618D01*
X257127Y485525D01*
X257055Y485429D01*
X256986Y485331D01*
X256921Y485231D01*
X256859Y485129D01*
X256800Y485025D01*
X256745Y484919D01*
X256694Y484811D01*
X256646Y484702D01*
X256601Y484591D01*
X256561Y484479D01*
X256524Y484365D01*
X256491Y484250D01*
X256461Y484135D01*
X256436Y484018D01*
X256414Y483901D01*
X256397Y483782D01*
X256383Y483664D01*
X256373Y483545D01*
X256367Y483425D01*
X256365Y483306D01*
X256367Y483187D01*
X256373Y483067D01*
X256383Y482948D01*
X256397Y482830D01*
X256414Y482711D01*
X256436Y482594D01*
X256461Y482477D01*
X256491Y482362D01*
X256524Y482247D01*
X256561Y482133D01*
X256601Y482021D01*
X256646Y481910D01*
X256694Y481801D01*
X256745Y481693D01*
X256800Y481587D01*
X256859Y481483D01*
X256921Y481381D01*
X256986Y481281D01*
X257055Y481183D01*
X257127Y481087D01*
X257202Y480994D01*
X257279Y480904D01*
X257360Y480816D01*
X257444Y480731D01*
X257531Y480649D01*
X257620Y480569D01*
X257712Y480493D01*
X257806Y480419D01*
X257903Y480349D01*
X258001Y480282D01*
X258102Y480218D01*
X258206Y480158D01*
X258311Y480101D01*
X258418Y480048D01*
X258526Y479998D01*
X258636Y479952D01*
X258748Y479910D01*
X258861Y479871D01*
X258975Y479836D01*
X259090Y479805D01*
X259207Y479777D01*
X259324Y479754D01*
X259441Y479734D01*
X259560Y479718D01*
X259679Y479706D01*
X259798Y479698D01*
X259917Y479694D01*
X260037Y479694D01*
X260156Y479698D01*
X260275Y479706D01*
X260394Y479718D01*
X260513Y479734D01*
X260630Y479754D01*
X260747Y479777D01*
X260864Y479805D01*
X260979Y479836D01*
X261093Y479871D01*
X261206Y479910D01*
X261318Y479952D01*
X261428Y479998D01*
X261536Y480048D01*
X261643Y480101D01*
X261748Y480158D01*
X261852Y480218D01*
X261953Y480282D01*
X262051Y480349D01*
X262148Y480419D01*
X262242Y480493D01*
X262334Y480569D01*
X262423Y480649D01*
X262510Y480731D01*
X262594Y480816D01*
X262675Y480904D01*
X262752Y480994D01*
X262827Y481087D01*
X262899Y481183D01*
X262968Y481281D01*
X263033Y481381D01*
X263095Y481483D01*
X263154Y481587D01*
X263209Y481693D01*
X263260Y481801D01*
X263308Y481910D01*
X263353Y482021D01*
X263393Y482133D01*
X263430Y482247D01*
X263463Y482362D01*
X263493Y482477D01*
X263518Y482594D01*
X263540Y482711D01*
X263557Y482830D01*
X263571Y482948D01*
X263581Y483067D01*
X263587Y483187D01*
X263589Y483306D01*
X248129Y486918D02*
X248129Y470662D01*
X248129Y476984D02*
X239098Y486918D01*
X244516Y480596D02*
X239098Y470662D01*
X232774Y470662D02*
X232774Y486918D01*
X232774Y470662D02*
X228259Y470662D01*
X228155Y470664D01*
X228052Y470670D01*
X227948Y470680D01*
X227845Y470694D01*
X227743Y470712D01*
X227642Y470733D01*
X227541Y470759D01*
X227442Y470788D01*
X227343Y470821D01*
X227246Y470858D01*
X227151Y470899D01*
X227057Y470943D01*
X226965Y470991D01*
X226875Y471042D01*
X226786Y471097D01*
X226700Y471155D01*
X226617Y471217D01*
X226535Y471281D01*
X226457Y471349D01*
X226381Y471419D01*
X226307Y471492D01*
X226237Y471569D01*
X226169Y471647D01*
X226105Y471729D01*
X226043Y471812D01*
X225985Y471898D01*
X225930Y471987D01*
X225879Y472077D01*
X225831Y472169D01*
X225787Y472263D01*
X225746Y472358D01*
X225709Y472455D01*
X225676Y472554D01*
X225647Y472653D01*
X225621Y472754D01*
X225600Y472855D01*
X225582Y472957D01*
X225568Y473060D01*
X225558Y473164D01*
X225552Y473267D01*
X225550Y473371D01*
X225549Y473371D02*
X225549Y478790D01*
X225550Y478790D02*
X225552Y478891D01*
X225558Y478992D01*
X225567Y479093D01*
X225580Y479194D01*
X225597Y479294D01*
X225618Y479393D01*
X225642Y479491D01*
X225670Y479588D01*
X225702Y479685D01*
X225737Y479780D01*
X225776Y479873D01*
X225818Y479965D01*
X225864Y480056D01*
X225913Y480145D01*
X225965Y480231D01*
X226021Y480316D01*
X226079Y480399D01*
X226141Y480479D01*
X226206Y480557D01*
X226273Y480633D01*
X226343Y480706D01*
X226416Y480776D01*
X226492Y480843D01*
X226570Y480908D01*
X226650Y480970D01*
X226733Y481028D01*
X226818Y481084D01*
X226905Y481136D01*
X226993Y481185D01*
X227084Y481231D01*
X227176Y481273D01*
X227269Y481312D01*
X227364Y481347D01*
X227461Y481379D01*
X227558Y481407D01*
X227656Y481431D01*
X227755Y481452D01*
X227855Y481469D01*
X227956Y481482D01*
X228057Y481491D01*
X228158Y481497D01*
X228259Y481499D01*
X232774Y481499D01*
X211485Y470662D02*
X204260Y481499D01*
X211485Y481499D02*
X204260Y470662D01*
X198320Y475178D02*
X198318Y475311D01*
X198312Y475443D01*
X198302Y475575D01*
X198289Y475707D01*
X198271Y475839D01*
X198250Y475969D01*
X198225Y476100D01*
X198196Y476229D01*
X198163Y476357D01*
X198127Y476485D01*
X198087Y476611D01*
X198043Y476736D01*
X197995Y476860D01*
X197944Y476982D01*
X197889Y477103D01*
X197831Y477222D01*
X197769Y477340D01*
X197704Y477455D01*
X197635Y477569D01*
X197564Y477680D01*
X197488Y477789D01*
X197410Y477896D01*
X197329Y478001D01*
X197244Y478103D01*
X197157Y478203D01*
X197067Y478300D01*
X196974Y478395D01*
X196878Y478486D01*
X196780Y478575D01*
X196679Y478661D01*
X196575Y478744D01*
X196469Y478824D01*
X196361Y478900D01*
X196251Y478974D01*
X196138Y479044D01*
X196024Y479111D01*
X195907Y479174D01*
X195789Y479234D01*
X195669Y479291D01*
X195547Y479344D01*
X195424Y479393D01*
X195300Y479439D01*
X195174Y479481D01*
X195047Y479519D01*
X194919Y479554D01*
X194790Y479585D01*
X194661Y479612D01*
X194530Y479635D01*
X194399Y479655D01*
X194267Y479670D01*
X194135Y479682D01*
X194003Y479690D01*
X193870Y479694D01*
X193738Y479694D01*
X193605Y479690D01*
X193473Y479682D01*
X193341Y479670D01*
X193209Y479655D01*
X193078Y479635D01*
X192947Y479612D01*
X192818Y479585D01*
X192689Y479554D01*
X192561Y479519D01*
X192434Y479481D01*
X192308Y479439D01*
X192184Y479393D01*
X192061Y479344D01*
X191939Y479291D01*
X191819Y479234D01*
X191701Y479174D01*
X191584Y479111D01*
X191470Y479044D01*
X191357Y478974D01*
X191247Y478900D01*
X191139Y478824D01*
X191033Y478744D01*
X190929Y478661D01*
X190828Y478575D01*
X190730Y478486D01*
X190634Y478395D01*
X190541Y478300D01*
X190451Y478203D01*
X190364Y478103D01*
X190279Y478001D01*
X190198Y477896D01*
X190120Y477789D01*
X190044Y477680D01*
X189973Y477569D01*
X189904Y477455D01*
X189839Y477340D01*
X189777Y477222D01*
X189719Y477103D01*
X189664Y476982D01*
X189613Y476860D01*
X189565Y476736D01*
X189521Y476611D01*
X189481Y476485D01*
X189445Y476357D01*
X189412Y476229D01*
X189383Y476100D01*
X189358Y475969D01*
X189337Y475839D01*
X189319Y475707D01*
X189306Y475575D01*
X189296Y475443D01*
X189290Y475311D01*
X189288Y475178D01*
X189290Y475045D01*
X189296Y474913D01*
X189306Y474781D01*
X189319Y474649D01*
X189337Y474517D01*
X189358Y474387D01*
X189383Y474256D01*
X189412Y474127D01*
X189445Y473999D01*
X189481Y473871D01*
X189521Y473745D01*
X189565Y473620D01*
X189613Y473496D01*
X189664Y473374D01*
X189719Y473253D01*
X189777Y473134D01*
X189839Y473016D01*
X189904Y472901D01*
X189973Y472787D01*
X190044Y472676D01*
X190120Y472567D01*
X190198Y472460D01*
X190279Y472355D01*
X190364Y472253D01*
X190451Y472153D01*
X190541Y472056D01*
X190634Y471961D01*
X190730Y471870D01*
X190828Y471781D01*
X190929Y471695D01*
X191033Y471612D01*
X191139Y471532D01*
X191247Y471456D01*
X191357Y471382D01*
X191470Y471312D01*
X191584Y471245D01*
X191701Y471182D01*
X191819Y471122D01*
X191939Y471065D01*
X192061Y471012D01*
X192184Y470963D01*
X192308Y470917D01*
X192434Y470875D01*
X192561Y470837D01*
X192689Y470802D01*
X192818Y470771D01*
X192947Y470744D01*
X193078Y470721D01*
X193209Y470701D01*
X193341Y470686D01*
X193473Y470674D01*
X193605Y470666D01*
X193738Y470662D01*
X193870Y470662D01*
X194003Y470666D01*
X194135Y470674D01*
X194267Y470686D01*
X194399Y470701D01*
X194530Y470721D01*
X194661Y470744D01*
X194790Y470771D01*
X194919Y470802D01*
X195047Y470837D01*
X195174Y470875D01*
X195300Y470917D01*
X195424Y470963D01*
X195547Y471012D01*
X195669Y471065D01*
X195789Y471122D01*
X195907Y471182D01*
X196024Y471245D01*
X196138Y471312D01*
X196251Y471382D01*
X196361Y471456D01*
X196469Y471532D01*
X196575Y471612D01*
X196679Y471695D01*
X196780Y471781D01*
X196878Y471870D01*
X196974Y471961D01*
X197067Y472056D01*
X197157Y472153D01*
X197244Y472253D01*
X197329Y472355D01*
X197410Y472460D01*
X197488Y472567D01*
X197564Y472676D01*
X197635Y472787D01*
X197704Y472901D01*
X197769Y473016D01*
X197831Y473134D01*
X197889Y473253D01*
X197944Y473374D01*
X197995Y473496D01*
X198043Y473620D01*
X198087Y473745D01*
X198127Y473871D01*
X198163Y473999D01*
X198196Y474127D01*
X198225Y474256D01*
X198250Y474387D01*
X198271Y474517D01*
X198289Y474649D01*
X198302Y474781D01*
X198312Y474913D01*
X198318Y475045D01*
X198320Y475178D01*
X197416Y483306D02*
X197414Y483425D01*
X197408Y483545D01*
X197398Y483664D01*
X197384Y483782D01*
X197367Y483901D01*
X197345Y484018D01*
X197320Y484135D01*
X197290Y484250D01*
X197257Y484365D01*
X197220Y484479D01*
X197180Y484591D01*
X197135Y484702D01*
X197087Y484811D01*
X197036Y484919D01*
X196981Y485025D01*
X196922Y485129D01*
X196860Y485231D01*
X196795Y485331D01*
X196726Y485429D01*
X196654Y485525D01*
X196579Y485618D01*
X196502Y485708D01*
X196421Y485796D01*
X196337Y485881D01*
X196250Y485963D01*
X196161Y486043D01*
X196069Y486119D01*
X195975Y486193D01*
X195878Y486263D01*
X195780Y486330D01*
X195679Y486394D01*
X195575Y486454D01*
X195470Y486511D01*
X195363Y486564D01*
X195255Y486614D01*
X195145Y486660D01*
X195033Y486702D01*
X194920Y486741D01*
X194806Y486776D01*
X194691Y486807D01*
X194574Y486835D01*
X194457Y486858D01*
X194340Y486878D01*
X194221Y486894D01*
X194102Y486906D01*
X193983Y486914D01*
X193864Y486918D01*
X193744Y486918D01*
X193625Y486914D01*
X193506Y486906D01*
X193387Y486894D01*
X193268Y486878D01*
X193151Y486858D01*
X193034Y486835D01*
X192917Y486807D01*
X192802Y486776D01*
X192688Y486741D01*
X192575Y486702D01*
X192463Y486660D01*
X192353Y486614D01*
X192245Y486564D01*
X192138Y486511D01*
X192033Y486454D01*
X191929Y486394D01*
X191828Y486330D01*
X191730Y486263D01*
X191633Y486193D01*
X191539Y486119D01*
X191447Y486043D01*
X191358Y485963D01*
X191271Y485881D01*
X191187Y485796D01*
X191106Y485708D01*
X191029Y485618D01*
X190954Y485525D01*
X190882Y485429D01*
X190813Y485331D01*
X190748Y485231D01*
X190686Y485129D01*
X190627Y485025D01*
X190572Y484919D01*
X190521Y484811D01*
X190473Y484702D01*
X190428Y484591D01*
X190388Y484479D01*
X190351Y484365D01*
X190318Y484250D01*
X190288Y484135D01*
X190263Y484018D01*
X190241Y483901D01*
X190224Y483782D01*
X190210Y483664D01*
X190200Y483545D01*
X190194Y483425D01*
X190192Y483306D01*
X190194Y483187D01*
X190200Y483067D01*
X190210Y482948D01*
X190224Y482830D01*
X190241Y482711D01*
X190263Y482594D01*
X190288Y482477D01*
X190318Y482362D01*
X190351Y482247D01*
X190388Y482133D01*
X190428Y482021D01*
X190473Y481910D01*
X190521Y481801D01*
X190572Y481693D01*
X190627Y481587D01*
X190686Y481483D01*
X190748Y481381D01*
X190813Y481281D01*
X190882Y481183D01*
X190954Y481087D01*
X191029Y480994D01*
X191106Y480904D01*
X191187Y480816D01*
X191271Y480731D01*
X191358Y480649D01*
X191447Y480569D01*
X191539Y480493D01*
X191633Y480419D01*
X191730Y480349D01*
X191828Y480282D01*
X191929Y480218D01*
X192033Y480158D01*
X192138Y480101D01*
X192245Y480048D01*
X192353Y479998D01*
X192463Y479952D01*
X192575Y479910D01*
X192688Y479871D01*
X192802Y479836D01*
X192917Y479805D01*
X193034Y479777D01*
X193151Y479754D01*
X193268Y479734D01*
X193387Y479718D01*
X193506Y479706D01*
X193625Y479698D01*
X193744Y479694D01*
X193864Y479694D01*
X193983Y479698D01*
X194102Y479706D01*
X194221Y479718D01*
X194340Y479734D01*
X194457Y479754D01*
X194574Y479777D01*
X194691Y479805D01*
X194806Y479836D01*
X194920Y479871D01*
X195033Y479910D01*
X195145Y479952D01*
X195255Y479998D01*
X195363Y480048D01*
X195470Y480101D01*
X195575Y480158D01*
X195679Y480218D01*
X195780Y480282D01*
X195878Y480349D01*
X195975Y480419D01*
X196069Y480493D01*
X196161Y480569D01*
X196250Y480649D01*
X196337Y480731D01*
X196421Y480816D01*
X196502Y480904D01*
X196579Y480994D01*
X196654Y481087D01*
X196726Y481183D01*
X196795Y481281D01*
X196860Y481381D01*
X196922Y481483D01*
X196981Y481587D01*
X197036Y481693D01*
X197087Y481801D01*
X197135Y481910D01*
X197180Y482021D01*
X197220Y482133D01*
X197257Y482247D01*
X197290Y482362D01*
X197320Y482477D01*
X197345Y482594D01*
X197367Y482711D01*
X197384Y482830D01*
X197398Y482948D01*
X197408Y483067D01*
X197414Y483187D01*
X197416Y483306D01*
X409307Y457454D02*
X409309Y457579D01*
X409315Y457704D01*
X409324Y457829D01*
X409338Y457953D01*
X409355Y458077D01*
X409376Y458201D01*
X409401Y458323D01*
X409430Y458445D01*
X409462Y458566D01*
X409498Y458686D01*
X409538Y458805D01*
X409581Y458922D01*
X409628Y459038D01*
X409679Y459153D01*
X409733Y459265D01*
X409791Y459377D01*
X409851Y459486D01*
X409916Y459593D01*
X409983Y459699D01*
X410054Y459802D01*
X410128Y459903D01*
X410205Y460002D01*
X410285Y460098D01*
X410368Y460192D01*
X410453Y460283D01*
X410542Y460372D01*
X410633Y460457D01*
X410727Y460540D01*
X410823Y460620D01*
X410922Y460697D01*
X411023Y460771D01*
X411126Y460842D01*
X411232Y460909D01*
X411339Y460974D01*
X411448Y461034D01*
X411560Y461092D01*
X411672Y461146D01*
X411787Y461197D01*
X411903Y461244D01*
X412020Y461287D01*
X412139Y461327D01*
X412259Y461363D01*
X412380Y461395D01*
X412502Y461424D01*
X412624Y461449D01*
X412748Y461470D01*
X412872Y461487D01*
X412996Y461501D01*
X413121Y461510D01*
X413246Y461516D01*
X413371Y461518D01*
X413514Y461516D01*
X413656Y461510D01*
X413799Y461500D01*
X413941Y461487D01*
X414082Y461469D01*
X414224Y461448D01*
X414364Y461423D01*
X414504Y461394D01*
X414643Y461361D01*
X414781Y461324D01*
X414918Y461284D01*
X415053Y461240D01*
X415188Y461192D01*
X415321Y461140D01*
X415453Y461085D01*
X415583Y461026D01*
X415711Y460964D01*
X415838Y460898D01*
X415963Y460829D01*
X416086Y460757D01*
X416207Y460681D01*
X416325Y460602D01*
X416442Y460519D01*
X416556Y460434D01*
X416668Y460345D01*
X416777Y460254D01*
X416884Y460159D01*
X416989Y460062D01*
X417090Y459961D01*
X417189Y459858D01*
X417285Y459753D01*
X417378Y459644D01*
X417468Y459533D01*
X417555Y459420D01*
X417639Y459305D01*
X417719Y459187D01*
X417797Y459067D01*
X417871Y458945D01*
X417941Y458821D01*
X418009Y458695D01*
X418072Y458567D01*
X418133Y458438D01*
X418190Y458307D01*
X418243Y458175D01*
X418292Y458041D01*
X418338Y457906D01*
X410662Y454293D02*
X410568Y454385D01*
X410478Y454479D01*
X410390Y454576D01*
X410305Y454676D01*
X410223Y454778D01*
X410144Y454883D01*
X410069Y454990D01*
X409997Y455099D01*
X409928Y455210D01*
X409862Y455324D01*
X409800Y455439D01*
X409741Y455556D01*
X409686Y455675D01*
X409635Y455795D01*
X409587Y455917D01*
X409542Y456040D01*
X409502Y456164D01*
X409465Y456290D01*
X409432Y456417D01*
X409403Y456544D01*
X409377Y456673D01*
X409356Y456802D01*
X409338Y456932D01*
X409325Y457062D01*
X409315Y457192D01*
X409309Y457323D01*
X409307Y457454D01*
X410662Y454293D02*
X418338Y445262D01*
X409307Y445262D01*
X402707Y459712D02*
X402707Y461518D01*
X393676Y461518D01*
X398191Y445262D01*
X383503Y445262D02*
X379890Y445262D01*
X383503Y445262D02*
X383621Y445264D01*
X383739Y445270D01*
X383857Y445279D01*
X383974Y445293D01*
X384091Y445310D01*
X384208Y445331D01*
X384323Y445356D01*
X384438Y445385D01*
X384552Y445418D01*
X384664Y445454D01*
X384775Y445494D01*
X384885Y445537D01*
X384994Y445584D01*
X385101Y445634D01*
X385206Y445689D01*
X385309Y445746D01*
X385410Y445807D01*
X385510Y445871D01*
X385607Y445938D01*
X385702Y446008D01*
X385794Y446082D01*
X385885Y446158D01*
X385972Y446238D01*
X386057Y446320D01*
X386139Y446405D01*
X386219Y446492D01*
X386295Y446583D01*
X386369Y446675D01*
X386439Y446770D01*
X386506Y446867D01*
X386570Y446967D01*
X386631Y447068D01*
X386688Y447171D01*
X386743Y447276D01*
X386793Y447383D01*
X386840Y447492D01*
X386883Y447602D01*
X386923Y447713D01*
X386959Y447825D01*
X386992Y447939D01*
X387021Y448054D01*
X387046Y448169D01*
X387067Y448286D01*
X387084Y448403D01*
X387098Y448520D01*
X387107Y448638D01*
X387113Y448756D01*
X387115Y448874D01*
X387115Y457906D01*
X387113Y458024D01*
X387107Y458142D01*
X387098Y458260D01*
X387084Y458377D01*
X387067Y458494D01*
X387046Y458611D01*
X387021Y458726D01*
X386992Y458841D01*
X386959Y458955D01*
X386923Y459067D01*
X386883Y459178D01*
X386840Y459288D01*
X386793Y459397D01*
X386743Y459504D01*
X386688Y459609D01*
X386631Y459712D01*
X386570Y459813D01*
X386506Y459913D01*
X386439Y460010D01*
X386369Y460105D01*
X386295Y460197D01*
X386219Y460288D01*
X386139Y460375D01*
X386057Y460460D01*
X385972Y460542D01*
X385885Y460622D01*
X385794Y460698D01*
X385702Y460772D01*
X385607Y460842D01*
X385510Y460909D01*
X385410Y460973D01*
X385309Y461034D01*
X385206Y461091D01*
X385101Y461146D01*
X384994Y461196D01*
X384885Y461243D01*
X384775Y461286D01*
X384664Y461326D01*
X384552Y461362D01*
X384438Y461395D01*
X384323Y461424D01*
X384208Y461449D01*
X384091Y461470D01*
X383974Y461487D01*
X383857Y461501D01*
X383739Y461510D01*
X383621Y461516D01*
X383503Y461518D01*
X379890Y461518D01*
X374050Y457906D02*
X369534Y461518D01*
X369534Y445262D01*
X374050Y445262D02*
X365018Y445262D01*
X358418Y453390D02*
X358414Y453710D01*
X358403Y454029D01*
X358384Y454349D01*
X358357Y454667D01*
X358323Y454985D01*
X358281Y455302D01*
X358231Y455618D01*
X358174Y455933D01*
X358110Y456246D01*
X358038Y456558D01*
X357959Y456868D01*
X357872Y457175D01*
X357778Y457481D01*
X357677Y457784D01*
X357568Y458085D01*
X357453Y458383D01*
X357330Y458679D01*
X357200Y458971D01*
X357063Y459260D01*
X357064Y459261D02*
X357025Y459369D01*
X356982Y459476D01*
X356936Y459581D01*
X356885Y459685D01*
X356832Y459787D01*
X356775Y459887D01*
X356714Y459985D01*
X356650Y460080D01*
X356583Y460174D01*
X356512Y460265D01*
X356439Y460354D01*
X356362Y460440D01*
X356283Y460523D01*
X356201Y460604D01*
X356116Y460682D01*
X356028Y460756D01*
X355938Y460828D01*
X355846Y460896D01*
X355751Y460962D01*
X355654Y461024D01*
X355555Y461082D01*
X355453Y461138D01*
X355351Y461189D01*
X355246Y461237D01*
X355140Y461282D01*
X355032Y461323D01*
X354923Y461360D01*
X354813Y461393D01*
X354701Y461422D01*
X354589Y461448D01*
X354476Y461470D01*
X354362Y461487D01*
X354248Y461501D01*
X354133Y461511D01*
X354018Y461517D01*
X353903Y461519D01*
X353903Y461518D02*
X353788Y461516D01*
X353673Y461510D01*
X353558Y461500D01*
X353444Y461486D01*
X353330Y461469D01*
X353217Y461447D01*
X353105Y461421D01*
X352993Y461392D01*
X352883Y461359D01*
X352774Y461322D01*
X352666Y461281D01*
X352560Y461236D01*
X352456Y461188D01*
X352353Y461137D01*
X352252Y461081D01*
X352152Y461023D01*
X352055Y460961D01*
X351961Y460896D01*
X351868Y460827D01*
X351778Y460755D01*
X351690Y460681D01*
X351605Y460603D01*
X351523Y460522D01*
X351444Y460439D01*
X351367Y460353D01*
X351294Y460264D01*
X351223Y460173D01*
X351156Y460079D01*
X351092Y459984D01*
X351031Y459886D01*
X350974Y459786D01*
X350921Y459684D01*
X350870Y459580D01*
X350824Y459475D01*
X350781Y459368D01*
X350742Y459260D01*
X350605Y458971D01*
X350475Y458679D01*
X350352Y458383D01*
X350237Y458085D01*
X350128Y457784D01*
X350027Y457481D01*
X349933Y457175D01*
X349846Y456868D01*
X349767Y456558D01*
X349695Y456246D01*
X349631Y455933D01*
X349574Y455618D01*
X349524Y455302D01*
X349482Y454985D01*
X349448Y454667D01*
X349421Y454349D01*
X349402Y454029D01*
X349391Y453710D01*
X349387Y453390D01*
X358418Y453390D02*
X358414Y453070D01*
X358403Y452751D01*
X358384Y452431D01*
X358357Y452113D01*
X358323Y451795D01*
X358281Y451478D01*
X358231Y451162D01*
X358174Y450847D01*
X358110Y450534D01*
X358038Y450222D01*
X357959Y449912D01*
X357872Y449605D01*
X357778Y449299D01*
X357677Y448996D01*
X357568Y448695D01*
X357453Y448397D01*
X357330Y448101D01*
X357200Y447809D01*
X357063Y447520D01*
X357064Y447520D02*
X357025Y447412D01*
X356982Y447305D01*
X356936Y447200D01*
X356885Y447096D01*
X356832Y446994D01*
X356775Y446894D01*
X356714Y446796D01*
X356650Y446701D01*
X356583Y446607D01*
X356512Y446516D01*
X356439Y446427D01*
X356362Y446341D01*
X356283Y446258D01*
X356201Y446177D01*
X356116Y446099D01*
X356028Y446025D01*
X355938Y445953D01*
X355845Y445884D01*
X355751Y445819D01*
X355654Y445757D01*
X355554Y445699D01*
X355453Y445643D01*
X355351Y445592D01*
X355246Y445544D01*
X355140Y445499D01*
X355032Y445458D01*
X354923Y445421D01*
X354813Y445388D01*
X354701Y445359D01*
X354589Y445333D01*
X354476Y445311D01*
X354362Y445294D01*
X354248Y445280D01*
X354133Y445270D01*
X354018Y445264D01*
X353903Y445262D01*
X350743Y447520D02*
X350606Y447809D01*
X350476Y448101D01*
X350353Y448397D01*
X350238Y448695D01*
X350129Y448996D01*
X350028Y449299D01*
X349934Y449605D01*
X349847Y449912D01*
X349768Y450222D01*
X349696Y450534D01*
X349632Y450847D01*
X349575Y451162D01*
X349525Y451478D01*
X349483Y451795D01*
X349449Y452113D01*
X349422Y452431D01*
X349403Y452751D01*
X349392Y453070D01*
X349388Y453390D01*
X350742Y447520D02*
X350781Y447412D01*
X350824Y447305D01*
X350870Y447200D01*
X350921Y447096D01*
X350974Y446994D01*
X351032Y446894D01*
X351092Y446796D01*
X351156Y446701D01*
X351223Y446607D01*
X351294Y446516D01*
X351367Y446427D01*
X351444Y446341D01*
X351523Y446258D01*
X351605Y446177D01*
X351690Y446099D01*
X351778Y446025D01*
X351868Y445953D01*
X351961Y445884D01*
X352055Y445819D01*
X352152Y445757D01*
X352252Y445699D01*
X352353Y445643D01*
X352456Y445592D01*
X352560Y445544D01*
X352666Y445499D01*
X352774Y445458D01*
X352883Y445421D01*
X352993Y445388D01*
X353105Y445359D01*
X353217Y445333D01*
X353330Y445311D01*
X353444Y445294D01*
X353558Y445280D01*
X353673Y445270D01*
X353788Y445264D01*
X353903Y445262D01*
X357515Y448874D02*
X350290Y457906D01*
X342787Y453390D02*
X342783Y453710D01*
X342772Y454029D01*
X342753Y454349D01*
X342726Y454667D01*
X342692Y454985D01*
X342650Y455302D01*
X342600Y455618D01*
X342543Y455933D01*
X342479Y456246D01*
X342407Y456558D01*
X342328Y456868D01*
X342241Y457175D01*
X342147Y457481D01*
X342046Y457784D01*
X341937Y458085D01*
X341822Y458383D01*
X341699Y458679D01*
X341569Y458971D01*
X341432Y459260D01*
X341433Y459261D02*
X341394Y459369D01*
X341351Y459476D01*
X341305Y459581D01*
X341254Y459685D01*
X341201Y459787D01*
X341144Y459887D01*
X341083Y459985D01*
X341019Y460080D01*
X340952Y460174D01*
X340881Y460265D01*
X340808Y460354D01*
X340731Y460440D01*
X340652Y460523D01*
X340570Y460604D01*
X340485Y460682D01*
X340397Y460756D01*
X340307Y460828D01*
X340215Y460896D01*
X340120Y460962D01*
X340023Y461024D01*
X339924Y461082D01*
X339822Y461138D01*
X339720Y461189D01*
X339615Y461237D01*
X339509Y461282D01*
X339401Y461323D01*
X339292Y461360D01*
X339182Y461393D01*
X339070Y461422D01*
X338958Y461448D01*
X338845Y461470D01*
X338731Y461487D01*
X338617Y461501D01*
X338502Y461511D01*
X338387Y461517D01*
X338272Y461519D01*
X338272Y461518D02*
X338157Y461516D01*
X338042Y461510D01*
X337927Y461500D01*
X337813Y461486D01*
X337699Y461469D01*
X337586Y461447D01*
X337474Y461421D01*
X337362Y461392D01*
X337252Y461359D01*
X337143Y461322D01*
X337035Y461281D01*
X336929Y461236D01*
X336825Y461188D01*
X336722Y461137D01*
X336621Y461081D01*
X336521Y461023D01*
X336424Y460961D01*
X336330Y460896D01*
X336237Y460827D01*
X336147Y460755D01*
X336059Y460681D01*
X335974Y460603D01*
X335892Y460522D01*
X335813Y460439D01*
X335736Y460353D01*
X335663Y460264D01*
X335592Y460173D01*
X335525Y460079D01*
X335461Y459984D01*
X335400Y459886D01*
X335343Y459786D01*
X335290Y459684D01*
X335239Y459580D01*
X335193Y459475D01*
X335150Y459368D01*
X335111Y459260D01*
X334974Y458971D01*
X334844Y458679D01*
X334721Y458383D01*
X334606Y458085D01*
X334497Y457784D01*
X334396Y457481D01*
X334302Y457175D01*
X334215Y456868D01*
X334136Y456558D01*
X334064Y456246D01*
X334000Y455933D01*
X333943Y455618D01*
X333893Y455302D01*
X333851Y454985D01*
X333817Y454667D01*
X333790Y454349D01*
X333771Y454029D01*
X333760Y453710D01*
X333756Y453390D01*
X342787Y453390D02*
X342783Y453070D01*
X342772Y452751D01*
X342753Y452431D01*
X342726Y452113D01*
X342692Y451795D01*
X342650Y451478D01*
X342600Y451162D01*
X342543Y450847D01*
X342479Y450534D01*
X342407Y450222D01*
X342328Y449912D01*
X342241Y449605D01*
X342147Y449299D01*
X342046Y448996D01*
X341937Y448695D01*
X341822Y448397D01*
X341699Y448101D01*
X341569Y447809D01*
X341432Y447520D01*
X341433Y447520D02*
X341394Y447412D01*
X341351Y447305D01*
X341305Y447200D01*
X341254Y447096D01*
X341201Y446994D01*
X341144Y446894D01*
X341083Y446796D01*
X341019Y446701D01*
X340952Y446607D01*
X340881Y446516D01*
X340808Y446427D01*
X340731Y446341D01*
X340652Y446258D01*
X340570Y446177D01*
X340485Y446099D01*
X340397Y446025D01*
X340307Y445953D01*
X340214Y445884D01*
X340120Y445819D01*
X340023Y445757D01*
X339923Y445699D01*
X339822Y445643D01*
X339720Y445592D01*
X339615Y445544D01*
X339509Y445499D01*
X339401Y445458D01*
X339292Y445421D01*
X339182Y445388D01*
X339070Y445359D01*
X338958Y445333D01*
X338845Y445311D01*
X338731Y445294D01*
X338617Y445280D01*
X338502Y445270D01*
X338387Y445264D01*
X338272Y445262D01*
X335111Y447520D02*
X334974Y447809D01*
X334844Y448101D01*
X334721Y448397D01*
X334606Y448695D01*
X334497Y448996D01*
X334396Y449299D01*
X334302Y449605D01*
X334215Y449912D01*
X334136Y450222D01*
X334064Y450534D01*
X334000Y450847D01*
X333943Y451162D01*
X333893Y451478D01*
X333851Y451795D01*
X333817Y452113D01*
X333790Y452431D01*
X333771Y452751D01*
X333760Y453070D01*
X333756Y453390D01*
X335111Y447520D02*
X335150Y447412D01*
X335193Y447305D01*
X335239Y447200D01*
X335290Y447096D01*
X335343Y446994D01*
X335401Y446894D01*
X335461Y446796D01*
X335525Y446701D01*
X335592Y446607D01*
X335663Y446516D01*
X335736Y446427D01*
X335813Y446341D01*
X335892Y446258D01*
X335974Y446177D01*
X336059Y446099D01*
X336147Y446025D01*
X336237Y445953D01*
X336330Y445884D01*
X336424Y445819D01*
X336521Y445757D01*
X336621Y445699D01*
X336722Y445643D01*
X336825Y445592D01*
X336929Y445544D01*
X337035Y445499D01*
X337143Y445458D01*
X337252Y445421D01*
X337362Y445388D01*
X337474Y445359D01*
X337586Y445333D01*
X337699Y445311D01*
X337813Y445294D01*
X337927Y445280D01*
X338042Y445270D01*
X338157Y445264D01*
X338272Y445262D01*
X341884Y448874D02*
X334659Y457906D01*
X327156Y457906D02*
X322640Y461518D01*
X322640Y445262D01*
X318125Y445262D02*
X327156Y445262D01*
M02*
