M48
;GenerationSoftware,Autodesk,EAGLE,9.6.2*%
;CreationDate,2020-10-02T11:33:39Z*%
FMAT,2
ICI,OFF
METRIC,TZ,000.000
T3C0.600
T2C0.813
T1C1.100
%
G90
M71
T1
X5080Y66040
X17780Y60960
X17780Y63500
X17780Y66040
X11430Y60960
X11430Y63500
X11430Y66040
X5080Y60960
X5080Y63500
T2
X31750Y52070
X34290Y52070
X24130Y52070
X21590Y52070
X19050Y52070
X16510Y52070
X11430Y52070
X8890Y52070
X6350Y52070
X6350Y36830
X8890Y36830
X11430Y36830
X13970Y36830
X16510Y36830
X19050Y36830
X21590Y36830
X24130Y36830
X26670Y36830
X29210Y36830
X31750Y36830
X13970Y52070
X36830Y36830
X39370Y36830
X41910Y36830
X44450Y36830
X31750Y69850
X29210Y69850
X29210Y62230
X31750Y62230
X26670Y69850
X24130Y69850
X26670Y62230
X24130Y62230
X45720Y69850
X43180Y69850
X45720Y62230
X40640Y69850
X38100Y69850
X40640Y62230
X38100Y62230
X34290Y36830
X36830Y52070
X44450Y52070
X41910Y52070
X29210Y52070
X26670Y52070
X39370Y52070
X43180Y62230
T3
X5715Y55626
X11366Y16447
M30